<?xml version="1.0" encoding="UTF-8" standalone="no"?>
<!-- Created with Inkscape (http://www.inkscape.org/) -->

<svg
   xmlns:dc="http://purl.org/dc/elements/1.1/"
   xmlns:cc="http://creativecommons.org/ns#"
   xmlns:rdf="http://www.w3.org/1999/02/22-rdf-syntax-ns#"
   xmlns:svg="http://www.w3.org/2000/svg"
   xmlns="http://www.w3.org/2000/svg"
   xmlns:inkscape="http://www.inkscape.org/namespaces/inkscape"
   version="1.1"
   width="37.5"
   height="37.5"
   id="svg2"
   xml:space="preserve"><metadata
     id="metadata8"><rdf:RDF><cc:Work
         rdf:about=""><dc:format>image/svg+xml</dc:format><dc:type
           rdf:resource="http://purl.org/dc/dcmitype/StillImage" /></cc:Work></rdf:RDF></metadata><defs
     id="defs6"><clipPath
       id="clipPath16"><path
         d="m 7.693,27.179 3.023,0 0,-7.104 -3.023,0 0,7.104 z"
         inkscape:connector-curvature="0"
         id="path18" /></clipPath><linearGradient
       x1="0"
       y1="0"
       x2="1"
       y2="0"
       id="linearGradient28"
       gradientUnits="userSpaceOnUse"
       gradientTransform="matrix(1.3738251,-2.2193756,0.9445038,3.2281647,8.1333008,25.34375)"
       spreadMethod="pad"><stop
         id="stop30"
         style="stop-color:#ffffff;stop-opacity:0.99217212"
         offset="0" /><stop
         id="stop32"
         style="stop-color:#ffffff;stop-opacity:0.95295644"
         offset="1" /></linearGradient><mask
       id="mask34"><g
         id="g36"><g
           id="g38"><g
             id="g40"><g
               id="g42"><path
                 d="m -32768,32767 65535,0 0,-65534 -65535,0 0,65534 z"
                 inkscape:connector-curvature="0"
                 id="path44"
                 style="fill:url(#linearGradient28);stroke:none" /></g></g></g></g></mask><linearGradient
       x1="0"
       y1="0"
       x2="1"
       y2="0"
       id="linearGradient50"
       gradientUnits="userSpaceOnUse"
       gradientTransform="matrix(1.3738251,-2.2193756,0.9445038,3.2281647,8.1333008,25.34375)"
       spreadMethod="pad"><stop
         id="stop52"
         style="stop-color:#fcdeb4;stop-opacity:1"
         offset="0" /><stop
         id="stop54"
         style="stop-color:#efab35;stop-opacity:1"
         offset="1" /></linearGradient><clipPath
       id="clipPath62"><path
         d="M 0,30 30,30 30,0 0,0 0,30 z"
         inkscape:connector-curvature="0"
         id="path64" /></clipPath><clipPath
       id="clipPath70"><path
         d="m 7.19287,27.6787 4.02343,0 0,-8.104 -4.02343,0 0,8.104 z"
         inkscape:connector-curvature="0"
         id="path72" /></clipPath><clipPath
       id="clipPath84"><path
         d="m 6.07666,24.8369 18.25294,0 0,-23.83495 -18.25294,0 0,23.83495 z"
         inkscape:connector-curvature="0"
         id="path86" /></clipPath><clipPath
       id="clipPath100"><path
         d="m 6.983,1.907 c 3.755,0 3.755,0.103 3.755,0.103 l 0,0 0,10.859 -3.654,2.74 C 6.88,15.507 6.983,1.806 6.983,1.907"
         inkscape:connector-curvature="0"
         id="path102" /></clipPath><linearGradient
       x1="0"
       y1="0"
       x2="1"
       y2="0"
       id="linearGradient112"
       gradientUnits="userSpaceOnUse"
       gradientTransform="matrix(3.0646667,-0.1070099,0.0295258,11.107223,6.8598633,8.78125)"
       spreadMethod="pad"><stop
         id="stop114"
         style="stop-color:#ffffff;stop-opacity:0.99217212"
         offset="0" /><stop
         id="stop116"
         style="stop-color:#ffffff;stop-opacity:0.99217212"
         offset="1" /></linearGradient><mask
       id="mask118"><g
         id="g120"><g
           id="g122"><g
             id="g124"><g
               id="g126"><path
                 d="m -32768,32767 65535,0 0,-65534 -65535,0 0,65534 z"
                 inkscape:connector-curvature="0"
                 id="path128"
                 style="fill:url(#linearGradient112);stroke:none" /></g></g></g></g></mask><linearGradient
       x1="0"
       y1="0"
       x2="1"
       y2="0"
       id="linearGradient134"
       gradientUnits="userSpaceOnUse"
       gradientTransform="matrix(3.0646667,-0.1070099,0.0295258,11.107223,6.8598633,8.78125)"
       spreadMethod="pad"><stop
         id="stop136"
         style="stop-color:#7f7e7e;stop-opacity:1"
         offset="0" /><stop
         id="stop138"
         style="stop-color:#ffffff;stop-opacity:1"
         offset="1" /></linearGradient><clipPath
       id="clipPath146"><path
         d="m 6.983,15.609 3.755,-2.74 5.989,5.378 -1.828,5.38 -7.916,-8.018 z"
         inkscape:connector-curvature="0"
         id="path148" /></clipPath><linearGradient
       x1="0"
       y1="0"
       x2="1"
       y2="0"
       id="linearGradient158"
       gradientUnits="userSpaceOnUse"
       gradientTransform="matrix(4.2566528,-3.5292816,3.1963348,4.7000275,9.3442383,20.875)"
       spreadMethod="pad"><stop
         id="stop160"
         style="stop-color:#ffffff;stop-opacity:0.99217212"
         offset="0" /><stop
         id="stop162"
         style="stop-color:#ffffff;stop-opacity:0.99217212"
         offset="1" /></linearGradient><mask
       id="mask164"><g
         id="g166"><g
           id="g168"><g
             id="g170"><g
               id="g172"><path
                 d="m -32768,32767 65535,0 0,-65534 -65535,0 0,65534 z"
                 inkscape:connector-curvature="0"
                 id="path174"
                 style="fill:url(#linearGradient158);stroke:none" /></g></g></g></g></mask><linearGradient
       x1="0"
       y1="0"
       x2="1"
       y2="0"
       id="linearGradient180"
       gradientUnits="userSpaceOnUse"
       gradientTransform="matrix(4.2566528,-3.5292816,3.1963348,4.7000275,9.3442383,20.875)"
       spreadMethod="pad"><stop
         id="stop182"
         style="stop-color:#7f7e7e;stop-opacity:1"
         offset="0" /><stop
         id="stop184"
         style="stop-color:#ffffff;stop-opacity:1"
         offset="1" /></linearGradient><clipPath
       id="clipPath192"><path
         d="m 14.087,18.958 5.48,-6.393 3.755,3.247 -7.815,7.916 -1.42,-4.77 z"
         inkscape:connector-curvature="0"
         id="path194" /></clipPath><linearGradient
       x1="0"
       y1="0"
       x2="1"
       y2="0"
       id="linearGradient204"
       gradientUnits="userSpaceOnUse"
       gradientTransform="matrix(-7.737854,-6.3895874,5.285965,-9.3533936,23.375488,22.96875)"
       spreadMethod="pad"><stop
         id="stop206"
         style="stop-color:#ffffff;stop-opacity:0.99217212"
         offset="0" /><stop
         id="stop208"
         style="stop-color:#ffffff;stop-opacity:0.99217212"
         offset="1" /></linearGradient><mask
       id="mask210"><g
         id="g212"><g
           id="g214"><g
             id="g216"><g
               id="g218"><path
                 d="m -32768,32767 65535,0 0,-65534 -65535,0 0,65534 z"
                 inkscape:connector-curvature="0"
                 id="path220"
                 style="fill:url(#linearGradient204);stroke:none" /></g></g></g></g></mask><linearGradient
       x1="0"
       y1="0"
       x2="1"
       y2="0"
       id="linearGradient226"
       gradientUnits="userSpaceOnUse"
       gradientTransform="matrix(-7.737854,-6.3895874,5.285965,-9.3533936,23.375488,22.96875)"
       spreadMethod="pad"><stop
         id="stop228"
         style="stop-color:#7f7e7e;stop-opacity:1"
         offset="0" /><stop
         id="stop230"
         style="stop-color:#ffffff;stop-opacity:1"
         offset="1" /></linearGradient><clipPath
       id="clipPath238"><path
         d="m 19.363,12.869 0.102,-10.962 4.06,0 -0.102,14.007 -4.06,-3.045 z"
         inkscape:connector-curvature="0"
         id="path240" /></clipPath><linearGradient
       x1="0"
       y1="0"
       x2="1"
       y2="0"
       id="linearGradient250"
       gradientUnits="userSpaceOnUse"
       gradientTransform="matrix(-4.5943909,0.1096802,-0.0325928,-15.463974,24.391113,8.84375)"
       spreadMethod="pad"><stop
         id="stop252"
         style="stop-color:#ffffff;stop-opacity:0.99217212"
         offset="0" /><stop
         id="stop254"
         style="stop-color:#ffffff;stop-opacity:0.99217212"
         offset="1" /></linearGradient><mask
       id="mask256"><g
         id="g258"><g
           id="g260"><g
             id="g262"><g
               id="g264"><path
                 d="m -32768,32767 65535,0 0,-65534 -65535,0 0,65534 z"
                 inkscape:connector-curvature="0"
                 id="path266"
                 style="fill:url(#linearGradient250);stroke:none" /></g></g></g></g></mask><linearGradient
       x1="0"
       y1="0"
       x2="1"
       y2="0"
       id="linearGradient272"
       gradientUnits="userSpaceOnUse"
       gradientTransform="matrix(-4.5943909,0.1096802,-0.0325928,-15.463974,24.391113,8.84375)"
       spreadMethod="pad"><stop
         id="stop274"
         style="stop-color:#7f7e7e;stop-opacity:1"
         offset="0" /><stop
         id="stop276"
         style="stop-color:#ffffff;stop-opacity:1"
         offset="1" /></linearGradient><clipPath
       id="clipPath284"><path
         d="m 11.041,11.955 0.103,-9.743 c 0,0.101 8.018,0 8.018,0 l 0,0 0,9.743 c 0,2.03 -1.371,3.959 -4.163,3.959 l 0,0 c -2.689,0 -3.958,-1.625 -3.958,-3.959"
         inkscape:connector-curvature="0"
         id="path286" /></clipPath><radialGradient
       cx="0"
       cy="0"
       r="1"
       fx="0"
       fy="0"
       id="radialGradient296"
       gradientUnits="userSpaceOnUse"
       gradientTransform="matrix(7.1746521,0,0,15.021713,12.609863,14.125)"
       spreadMethod="pad"><stop
         id="stop298"
         style="stop-color:#ffffff;stop-opacity:0.99217212"
         offset="0" /><stop
         id="stop300"
         style="stop-color:#ffffff;stop-opacity:0.95295644"
         offset="1" /></radialGradient><mask
       id="mask302"><g
         id="g304"><g
           id="g306"><g
             id="g308"><g
               id="g310"><path
                 d="m -32767,32767 65534,0 0,-65534 -65534,0 0,65534 z"
                 inkscape:connector-curvature="0"
                 id="path312"
                 style="fill:url(#radialGradient296);stroke:none" /></g></g></g></g></mask><radialGradient
       cx="0"
       cy="0"
       r="1"
       fx="0"
       fy="0"
       id="radialGradient318"
       gradientUnits="userSpaceOnUse"
       gradientTransform="matrix(7.1746521,0,0,15.021713,12.609863,14.125)"
       spreadMethod="pad"><stop
         id="stop320"
         style="stop-color:#fcdeb4;stop-opacity:1"
         offset="0" /><stop
         id="stop322"
         style="stop-color:#efab35;stop-opacity:1"
         offset="1" /></radialGradient><clipPath
       id="clipPath330"><path
         d="M 0,30 30,30 30,0 0,0 0,30 z"
         inkscape:connector-curvature="0"
         id="path332" /></clipPath><clipPath
       id="clipPath338"><path
         d="m 10.5415,16.4136 9.1201,0 0,-14.7012 -9.1201,0 0,14.7012 z"
         inkscape:connector-curvature="0"
         id="path340" /></clipPath><clipPath
       id="clipPath354"><path
         d="m 1.603,14.899 1.929,-2.132 9.54,9.135 c 0,0 4.364,0.101 4.465,0.101 l 0,0 c 0.102,0 8.83,-8.728 8.83,-8.728 l 0,0 2.03,2.131 L 15.305,28.498 1.603,14.899 z"
         inkscape:connector-curvature="0"
         id="path356" /></clipPath><linearGradient
       x1="0"
       y1="0"
       x2="1"
       y2="0"
       id="linearGradient366"
       gradientUnits="userSpaceOnUse"
       gradientTransform="matrix(6.8474121,-1.9652557,3.3472748,4.0202484,7.1879883,21.375)"
       spreadMethod="pad"><stop
         id="stop368"
         style="stop-color:#ffffff;stop-opacity:0.99217212"
         offset="0" /><stop
         id="stop370"
         style="stop-color:#ffffff;stop-opacity:0.95295644"
         offset="1" /></linearGradient><mask
       id="mask372"><g
         id="g374"><g
           id="g376"><g
             id="g378"><g
               id="g380"><path
                 d="m -32768,32767 65535,0 0,-65534 -65535,0 0,65534 z"
                 inkscape:connector-curvature="0"
                 id="path382"
                 style="fill:url(#linearGradient366);stroke:none" /></g></g></g></g></mask><linearGradient
       x1="0"
       y1="0"
       x2="1"
       y2="0"
       id="linearGradient388"
       gradientUnits="userSpaceOnUse"
       gradientTransform="matrix(6.8474121,-1.9652557,3.3472748,4.0202484,7.1879883,21.375)"
       spreadMethod="pad"><stop
         id="stop390"
         style="stop-color:#cd5d74;stop-opacity:1"
         offset="0" /><stop
         id="stop392"
         style="stop-color:#ab3446;stop-opacity:1"
         offset="1" /></linearGradient><clipPath
       id="clipPath400"><path
         d="M 0,30 30,30 30,0 0,0 0,30 z"
         inkscape:connector-curvature="0"
         id="path402" /></clipPath><clipPath
       id="clipPath408"><path
         d="m 0.912109,29.2041 28.183591,0 0,-17.1538 -28.183591,0 0,17.1538 z"
         inkscape:connector-curvature="0"
         id="path410" /></clipPath></defs><g
     transform="matrix(1.25,0,0,-1.25,0,37.5)"
     id="g10"><g
       id="g12"><g
         clip-path="url(#clipPath16)"
         id="g14"><g
           id="g20"><g
             id="g22" /><g
             mask="url(#mask34)"
             id="g46"><g
               id="g48"><path
                 d="m 7.693,27.179 3.023,0 0,-7.104 -3.023,0 0,7.104 z"
                 inkscape:connector-curvature="0"
                 id="path56"
                 style="fill:url(#linearGradient50);stroke:none" /></g></g></g></g></g><g
       id="g58"><g
         clip-path="url(#clipPath62)"
         id="g60"><g
           id="g66"><g
             id="g68" /><g
             id="g74"><g
               clip-path="url(#clipPath70)"
               id="g76"
               style="opacity:0.99215698"><path
                 d="m 7.693,27.179 3.023,0 0,-7.104 -3.023,0 0,7.104 z"
                 inkscape:connector-curvature="0"
                 id="path78"
                 style="fill:none;stroke:#5d2e2d;stroke-width:1;stroke-linecap:butt;stroke-linejoin:miter;stroke-miterlimit:4;stroke-opacity:1;stroke-dasharray:none" /></g></g></g><g
           id="g80"><g
             id="g82" /><g
             id="g88"><g
               clip-path="url(#clipPath84)"
               id="g90"
               style="opacity:0.98823499"><g
                 transform="translate(6.5767,1.502)"
                 id="g92"><path
                   d="M 0,0 C 17.151,0.101 17.253,0 17.253,0 L 17.151,14.412 8.626,22.835 0.101,14.208 C 0,14.107 0.101,0.101 0,0 z"
                   inkscape:connector-curvature="0"
                   id="path94"
                   style="fill:none;stroke:#30535a;stroke-width:1;stroke-linecap:butt;stroke-linejoin:round;stroke-miterlimit:4;stroke-opacity:1;stroke-dasharray:none" /></g></g></g></g></g></g><g
       id="g96"><g
         clip-path="url(#clipPath100)"
         id="g98"><g
           id="g104"><g
             id="g106" /><g
             mask="url(#mask118)"
             id="g130"><g
               id="g132"><path
                 d="m 6.983,1.907 c 3.755,0 3.755,0.103 3.755,0.103 l 0,0 0,10.859 -3.654,2.74 C 6.88,15.507 6.983,1.806 6.983,1.907"
                 inkscape:connector-curvature="0"
                 id="path140"
                 style="fill:url(#linearGradient134);stroke:none" /></g></g></g></g></g><g
       id="g142"><g
         clip-path="url(#clipPath146)"
         id="g144"><g
           id="g150"><g
             id="g152" /><g
             mask="url(#mask164)"
             id="g176"><g
               id="g178"><path
                 d="m 6.983,15.609 3.755,-2.74 5.989,5.378 -1.828,5.38 -7.916,-8.018 z"
                 inkscape:connector-curvature="0"
                 id="path186"
                 style="fill:url(#linearGradient180);stroke:none" /></g></g></g></g></g><g
       id="g188"><g
         clip-path="url(#clipPath192)"
         id="g190"><g
           id="g196"><g
             id="g198" /><g
             mask="url(#mask210)"
             id="g222"><g
               id="g224"><path
                 d="m 14.087,18.958 5.48,-6.393 3.755,3.247 -7.815,7.916 -1.42,-4.77 z"
                 inkscape:connector-curvature="0"
                 id="path232"
                 style="fill:url(#linearGradient226);stroke:none" /></g></g></g></g></g><g
       id="g234"><g
         clip-path="url(#clipPath238)"
         id="g236"><g
           id="g242"><g
             id="g244" /><g
             mask="url(#mask256)"
             id="g268"><g
               id="g270"><path
                 d="m 19.363,12.869 0.102,-10.962 4.06,0 -0.102,14.007 -4.06,-3.045 z"
                 inkscape:connector-curvature="0"
                 id="path278"
                 style="fill:url(#linearGradient272);stroke:none" /></g></g></g></g></g><g
       id="g280"><g
         clip-path="url(#clipPath284)"
         id="g282"><g
           id="g288"><g
             id="g290" /><g
             mask="url(#mask302)"
             id="g314"><g
               id="g316"><path
                 d="m 11.041,11.955 0.103,-9.743 c 0,0.101 8.018,0 8.018,0 l 0,0 0,9.743 c 0,2.03 -1.371,3.959 -4.163,3.959 l 0,0 c -2.689,0 -3.958,-1.625 -3.958,-3.959"
                 inkscape:connector-curvature="0"
                 id="path324"
                 style="fill:url(#radialGradient318);stroke:none" /></g></g></g></g></g><g
       id="g326"><g
         clip-path="url(#clipPath330)"
         id="g328"><g
           id="g334"><g
             id="g336" /><g
             id="g342"><g
               clip-path="url(#clipPath338)"
               id="g344"
               style="opacity:0.99215698"><g
                 transform="translate(11.144,2.2124)"
                 id="g346"><path
                   d="m 0,0 -0.103,9.743 c 0,2.334 1.269,3.958 3.958,3.958 2.792,0 4.163,-1.929 4.163,-3.958 L 8.018,0 C 8.018,0 0,0.101 0,0 z"
                   inkscape:connector-curvature="0"
                   id="path348"
                   style="fill:none;stroke:#5d2e2d;stroke-width:1;stroke-linecap:butt;stroke-linejoin:round;stroke-miterlimit:4;stroke-opacity:1;stroke-dasharray:none" /></g></g></g></g></g></g><g
       id="g350"><g
         clip-path="url(#clipPath354)"
         id="g352"><g
           id="g358"><g
             id="g360" /><g
             mask="url(#mask372)"
             id="g384"><g
               id="g386"><path
                 d="m 1.603,14.899 1.929,-2.132 9.54,9.135 c 0,0 4.364,0.101 4.465,0.101 l 0,0 c 0.102,0 8.83,-8.728 8.83,-8.728 l 0,0 2.03,2.131 L 15.305,28.498 1.603,14.899 z"
                 inkscape:connector-curvature="0"
                 id="path394"
                 style="fill:url(#linearGradient388);stroke:none" /></g></g></g></g></g><g
       id="g396"><g
         clip-path="url(#clipPath400)"
         id="g398"><g
           id="g404"><g
             id="g406" /><g
             id="g412"><g
               clip-path="url(#clipPath408)"
               id="g414"
               style="opacity:0.99215698"><g
                 transform="translate(3.5317,12.7671)"
                 id="g416"><path
                   d="m 0,0 9.54,9.134 c 0,0 4.364,0.102 4.466,0.102 0.101,0 8.83,-8.728 8.83,-8.728 L 24.865,2.639 11.773,15.731 -1.929,2.132 0,0 z"
                   inkscape:connector-curvature="0"
                   id="path418"
                   style="fill:none;stroke:#5d2e2d;stroke-width:1;stroke-linecap:butt;stroke-linejoin:miter;stroke-miterlimit:4;stroke-opacity:1;stroke-dasharray:none" /></g></g></g></g></g></g></g></svg>