<?xml version="1.0" encoding="UTF-8" standalone="no"?>
<!-- Created with Inkscape (http://www.inkscape.org/) -->

<svg
   xmlns:dc="http://purl.org/dc/elements/1.1/"
   xmlns:cc="http://creativecommons.org/ns#"
   xmlns:rdf="http://www.w3.org/1999/02/22-rdf-syntax-ns#"
   xmlns:svg="http://www.w3.org/2000/svg"
   xmlns="http://www.w3.org/2000/svg"
   xmlns:inkscape="http://www.inkscape.org/namespaces/inkscape"
   version="1.1"
   width="37.5"
   height="37.5"
   id="svg2"
   xml:space="preserve"><metadata
     id="metadata8"><rdf:RDF><cc:Work
         rdf:about=""><dc:format>image/svg+xml</dc:format><dc:type
           rdf:resource="http://purl.org/dc/dcmitype/StillImage" /></cc:Work></rdf:RDF></metadata><defs
     id="defs6"><clipPath
       id="clipPath16"><path
         d="M 0,30 30,30 30,0 0,0 0,30 z"
         inkscape:connector-curvature="0"
         id="path18" /></clipPath></defs><g
     transform="matrix(1.25,0,0,-1.25,0,37.5)"
     id="g10"><g
       id="g12"><g
         clip-path="url(#clipPath16)"
         id="g14"><g
           transform="translate(35.3643,22.9175)"
           id="g20"><path
             d="m 0,0 c 6.081,1.937 11.074,-2.006 11.292,3.379 0.218,5.385 2.929,2.96 7.002,0 4.072,-2.959 7.328,-17.373 3.854,-20.914 -3.473,-3.54 -10.209,-5.506 -12.704,-1.109 -2.495,4.397 -1.411,6.299 -2.929,9.646 -1.52,3.349 -4.559,0.446 -8.034,0 C -4.994,-9.442 -6.08,-1.937 0,0"
             inkscape:connector-curvature="0"
             id="path22"
             style="fill:#000000;fill-opacity:1;fill-rule:nonzero;stroke:none" /></g><g
           transform="translate(16.0029,14.0566)"
           id="g24"><path
             d="m 0,0 c -0.063,-0.236 -0.161,-0.536 -0.304,-0.819 -0.13,-0.278 -0.314,-0.538 -0.518,-0.789 -0.423,-0.494 -0.998,-0.879 -1.593,-1.111 -0.598,-0.24 -1.202,-0.339 -1.784,-0.404 l -0.442,-0.036 c -0.13,-0.008 -0.338,-0.008 -0.488,-0.003 -0.318,0.007 -0.637,0.046 -0.954,0.1 -2.554,0.419 -4.844,2.666 -5.214,5.497 -0.307,2.65 0.624,5.313 2.434,7.246 0.907,0.954 2.008,1.724 3.22,2.252 1.22,0.5 2.542,0.778 3.854,0.746 l 0,-4.091 C -3.356,8.546 -4.897,7.97 -6.042,6.892 -6.604,6.352 -7.103,5.728 -7.429,5.004 -7.594,4.646 -7.723,4.267 -7.808,3.876 -7.851,3.665 -7.88,3.504 -7.905,3.319 -7.924,3.016 -7.946,2.914 -7.949,2.72 c -0.072,-1.406 0.942,-2.872 2.474,-3.47 0.191,-0.073 0.388,-0.141 0.592,-0.186 0.11,-0.024 0.164,-0.042 0.296,-0.061 l 0.345,-0.039 c 0.465,-0.042 0.916,-0.042 1.324,0.021 0.832,0.094 1.485,0.555 2.008,1.427 L 0,0 z"
             inkscape:connector-curvature="0"
             id="path26"
             style="fill:#373536;fill-opacity:1;fill-rule:nonzero;stroke:none" /></g><g
           transform="translate(15.0918,14.4507)"
           id="g28"><path
             d="m 0,0 c 0.063,0.236 0.162,0.536 0.305,0.82 0.129,0.278 0.313,0.538 0.517,0.789 0.423,0.494 0.998,0.879 1.593,1.11 0.599,0.24 1.202,0.338 1.784,0.404 L 4.64,3.159 C 4.771,3.167 4.979,3.167 5.129,3.161 5.447,3.154 5.766,3.116 6.083,3.061 8.637,2.643 10.925,0.396 11.296,-2.435 11.604,-5.084 10.673,-7.747 8.863,-9.68 7.957,-10.635 6.855,-11.404 5.644,-11.932 4.423,-12.433 3.102,-12.71 1.79,-12.679 l 0,4.091 c 1.567,0.043 3.107,0.619 4.252,1.696 0.562,0.54 1.061,1.165 1.386,1.888 0.166,0.358 0.294,0.737 0.38,1.128 0.042,0.211 0.071,0.372 0.096,0.557 0.019,0.303 0.041,0.404 0.044,0.599 C 8.02,-1.315 7.007,0.152 5.475,0.749 5.284,0.823 5.087,0.891 4.883,0.936 4.773,0.96 4.719,0.978 4.588,0.996 L 4.242,1.035 C 3.777,1.078 3.326,1.078 2.918,1.015 2.085,0.922 1.433,0.461 0.912,-0.411 L 0,0 z"
             inkscape:connector-curvature="0"
             id="path30"
             style="fill:#373536;fill-opacity:1;fill-rule:nonzero;stroke:none" /></g><g
           transform="translate(17.3896,14.2627)"
           id="g32"><path
             d="m 0,0 c 0,-1.018 -0.826,-1.843 -1.842,-1.843 -1.017,0 -1.844,0.824 -1.844,1.842 0,1.018 0.827,1.844 1.844,1.844 C -0.826,1.843 0,1.018 0,0"
             inkscape:connector-curvature="0"
             id="path34"
             style="fill:#373536;fill-opacity:1;fill-rule:nonzero;stroke:none" /></g><g
           transform="translate(17.3896,14.2627)"
           id="g36"><path
             d="m 0,0 c 0,-1.018 -0.826,-1.843 -1.842,-1.843 -1.017,0 -1.844,0.824 -1.844,1.842 0,1.018 0.827,1.844 1.844,1.844 C -0.826,1.843 0,1.018 0,0 z"
             inkscape:connector-curvature="0"
             id="path38"
             style="fill:none;stroke:#373536;stroke-width:1;stroke-linecap:butt;stroke-linejoin:miter;stroke-miterlimit:10;stroke-opacity:1;stroke-dasharray:none" /></g><g
           transform="translate(20.1406,24.0869)"
           id="g40"><path
             d="M 0,0 -1.375,0.309 -2.408,-0.648 -2.54,0.754 -3.77,1.441 -2.477,2 -2.203,3.382 -1.272,2.324 0.127,2.491 -0.592,1.279 0,0 z"
             inkscape:connector-curvature="0"
             id="path42"
             style="fill:#000000;fill-opacity:1;fill-rule:nonzero;stroke:none" /></g><g
           transform="translate(20.1406,24.0869)"
           id="g44"><path
             d="M 0,0 -1.375,0.309 -2.408,-0.648 -2.54,0.754 -3.77,1.441 -2.477,2 -2.203,3.382 -1.272,2.324 0.127,2.491 -0.592,1.279 0,0 z"
             inkscape:connector-curvature="0"
             id="path46"
             style="fill:none;stroke:#373536;stroke-width:1;stroke-linecap:butt;stroke-linejoin:miter;stroke-miterlimit:10;stroke-opacity:1;stroke-dasharray:none" /></g><g
           transform="translate(7.7129,3.8174)"
           id="g48"><path
             d="M 0,0 -0.806,-0.397 -0.935,-1.286 -1.562,-0.644 -2.446,-0.795 -2.029,0 -2.446,0.795 -1.562,0.643 -0.935,1.286 -0.806,0.397 0,0 z"
             inkscape:connector-curvature="0"
             id="path50"
             style="fill:#000000;fill-opacity:1;fill-rule:nonzero;stroke:none" /></g><g
           transform="translate(7.7129,3.8174)"
           id="g52"><path
             d="M 0,0 -0.806,-0.397 -0.935,-1.286 -1.562,-0.644 -2.446,-0.795 -2.029,0 -2.446,0.795 -1.562,0.643 -0.935,1.286 -0.806,0.397 0,0 z"
             inkscape:connector-curvature="0"
             id="path54"
             style="fill:none;stroke:#373536;stroke-width:1;stroke-linecap:butt;stroke-linejoin:miter;stroke-miterlimit:10;stroke-opacity:1;stroke-dasharray:none" /></g></g></g></g></svg>