<?xml version="1.0" encoding="UTF-8" standalone="no"?>
<!-- Created with Inkscape (http://www.inkscape.org/) -->

<svg
   xmlns:dc="http://purl.org/dc/elements/1.1/"
   xmlns:cc="http://creativecommons.org/ns#"
   xmlns:rdf="http://www.w3.org/1999/02/22-rdf-syntax-ns#"
   xmlns:svg="http://www.w3.org/2000/svg"
   xmlns="http://www.w3.org/2000/svg"
   xmlns:inkscape="http://www.inkscape.org/namespaces/inkscape"
   version="1.1"
   width="37.5"
   height="37.5"
   id="svg2"
   xml:space="preserve"><metadata
     id="metadata8"><rdf:RDF><cc:Work
         rdf:about=""><dc:format>image/svg+xml</dc:format><dc:type
           rdf:resource="http://purl.org/dc/dcmitype/StillImage" /></cc:Work></rdf:RDF></metadata><defs
     id="defs6"><linearGradient
       x1="0"
       y1="0"
       x2="1"
       y2="0"
       id="linearGradient24"
       gradientUnits="userSpaceOnUse"
       gradientTransform="matrix(19.740478,-11.140533,-11.140533,-19.740478,4.9599609,17.853516)"
       spreadMethod="pad"><stop
         id="stop26"
         style="stop-color:#dfe2f2;stop-opacity:1"
         offset="0" /><stop
         id="stop28"
         style="stop-color:#00b0f0;stop-opacity:1"
         offset="0.907974" /><stop
         id="stop30"
         style="stop-color:#00b0f0;stop-opacity:1"
         offset="1" /></linearGradient><clipPath
       id="clipPath38"><path
         d="M 0,30 30,30 30,0 0,0 0,30 z"
         inkscape:connector-curvature="0"
         id="path40" /></clipPath><clipPath
       id="clipPath54"><path
         d="M 0,30 30,30 30,0 0,0 0,30 z"
         inkscape:connector-curvature="0"
         id="path56" /></clipPath></defs><g
     transform="matrix(1.25,0,0,-1.25,0,37.5)"
     id="g10"><g
       id="g12"><g
         id="g14"><g
           id="g20"><g
             id="g22"><path
               d="m 0,7.625 30,0 0,9.125 -30,0 0,-9.125 z"
               inkscape:connector-curvature="0"
               id="path32"
               style="fill:url(#linearGradient24);stroke:none" /></g></g></g></g><g
       id="g34"><g
         clip-path="url(#clipPath38)"
         id="g36"><g
           transform="translate(19.4414,14.7285)"
           id="g42"><path
             d="M 0,0 z"
             inkscape:connector-curvature="0"
             id="path44"
             style="fill:#bcd6f0;fill-opacity:1;fill-rule:nonzero;stroke:none" /></g></g></g><g
       transform="translate(19.4414,14.7285)"
       id="g46"><path
         d="M 0,0 0,0 z"
         inkscape:connector-curvature="0"
         id="path48"
         style="fill:none;stroke:#3c4694;stroke-width:1;stroke-linecap:butt;stroke-linejoin:miter;stroke-miterlimit:10;stroke-opacity:1;stroke-dasharray:none" /></g><g
       id="g50"><g
         clip-path="url(#clipPath54)"
         id="g52"><g
           transform="translate(6.3965,3.1475)"
           id="g58"><path
             d="M 0,0 C 1.935,0 1.935,3 0,3 -1.935,3 -1.935,0 0,0"
             inkscape:connector-curvature="0"
             id="path60"
             style="fill:#737577;fill-opacity:1;fill-rule:nonzero;stroke:none" /></g><g
           transform="translate(7.7168,12.3945)"
           id="g62"><path
             d="M 0,0 C 1.935,0 1.935,3 0,3 -1.935,3 -1.935,0 0,0"
             inkscape:connector-curvature="0"
             id="path64"
             style="fill:#ba3125;fill-opacity:1;fill-rule:nonzero;stroke:none" /></g><g
           transform="translate(13.001,9.7607)"
           id="g66"><path
             d="M 0,0 C 1.935,0 1.935,3 0,3 -1.935,3 -1.935,0 0,0"
             inkscape:connector-curvature="0"
             id="path68"
             style="fill:#ba3125;fill-opacity:1;fill-rule:nonzero;stroke:none" /></g><g
           transform="translate(13.4971,19.3389)"
           id="g70"><path
             d="M 0,0 C 1.935,0 1.935,3 0,3 -1.935,3 -1.935,0 0,0"
             inkscape:connector-curvature="0"
             id="path72"
             style="fill:#737577;fill-opacity:1;fill-rule:nonzero;stroke:none" /></g><g
           transform="translate(19.4414,18.8447)"
           id="g74"><path
             d="M 0,0 C 1.935,0 1.935,3 0,3 -1.935,3 -1.935,0 0,0"
             inkscape:connector-curvature="0"
             id="path76"
             style="fill:#737577;fill-opacity:1;fill-rule:nonzero;stroke:none" /></g><g
           transform="translate(19.4414,12.2285)"
           id="g78"><path
             d="M 0,0 C 1.935,0 1.935,3 0,3 -1.935,3 -1.935,0 0,0"
             inkscape:connector-curvature="0"
             id="path80"
             style="fill:#ba3125;fill-opacity:1;fill-rule:nonzero;stroke:none" /></g><g
           transform="translate(17.2949,24.458)"
           id="g82"><path
             d="M 0,0 C 1.935,0 1.935,3 0,3 -1.935,3 -1.935,0 0,0"
             inkscape:connector-curvature="0"
             id="path84"
             style="fill:#737577;fill-opacity:1;fill-rule:nonzero;stroke:none" /></g><g
           transform="translate(24.9004,23.3857)"
           id="g86"><path
             d="M 0,0 C 1.935,0 1.935,3 0,3 -1.935,3 -1.935,0 0,0"
             inkscape:connector-curvature="0"
             id="path88"
             style="fill:#737577;fill-opacity:1;fill-rule:nonzero;stroke:none" /></g><g
           transform="translate(24.9004,18.0273)"
           id="g90"><path
             d="M 0,0 C 1.935,0 1.935,3 0,3 -1.935,3 -1.935,0 0,0"
             inkscape:connector-curvature="0"
             id="path92"
             style="fill:#737577;fill-opacity:1;fill-rule:nonzero;stroke:none" /></g><g
           transform="translate(0,16.75)"
           id="g94"><path
             d="M 0,0 30,0"
             inkscape:connector-curvature="0"
             id="path96"
             style="fill:none;stroke:#3f4096;stroke-width:1;stroke-linecap:butt;stroke-linejoin:miter;stroke-miterlimit:10;stroke-opacity:1;stroke-dasharray:none" /></g><g
           transform="translate(0,7.625)"
           id="g98"><path
             d="M 0,0 30,0"
             inkscape:connector-curvature="0"
             id="path100"
             style="fill:none;stroke:#3f4096;stroke-width:1;stroke-linecap:butt;stroke-linejoin:miter;stroke-miterlimit:10;stroke-opacity:1;stroke-dasharray:none" /></g></g></g></g></svg>