<?xml version="1.0" encoding="UTF-8" standalone="no"?>
<!-- Created with Inkscape (http://www.inkscape.org/) -->

<svg
   xmlns:dc="http://purl.org/dc/elements/1.1/"
   xmlns:cc="http://creativecommons.org/ns#"
   xmlns:rdf="http://www.w3.org/1999/02/22-rdf-syntax-ns#"
   xmlns:svg="http://www.w3.org/2000/svg"
   xmlns="http://www.w3.org/2000/svg"
   xmlns:inkscape="http://www.inkscape.org/namespaces/inkscape"
   version="1.1"
   width="37.5"
   height="37.5"
   id="svg2"
   xml:space="preserve"><metadata
     id="metadata8"><rdf:RDF><cc:Work
         rdf:about=""><dc:format>image/svg+xml</dc:format><dc:type
           rdf:resource="http://purl.org/dc/dcmitype/StillImage" /></cc:Work></rdf:RDF></metadata><defs
     id="defs6"><clipPath
       id="clipPath16"><path
         d="M 0,30 30,30 30,0 0,0 0,30 z"
         inkscape:connector-curvature="0"
         id="path18" /></clipPath><linearGradient
       x1="0"
       y1="0"
       x2="1"
       y2="0"
       id="linearGradient36"
       gradientUnits="userSpaceOnUse"
       gradientTransform="matrix(16.349213,-9.2266693,-9.2266693,-16.349213,6.6845703,19.629883)"
       spreadMethod="pad"><stop
         id="stop38"
         style="stop-color:#dfe2f2;stop-opacity:1"
         offset="0" /><stop
         id="stop40"
         style="stop-color:#00b0f0;stop-opacity:1"
         offset="0.907974" /><stop
         id="stop42"
         style="stop-color:#00b0f0;stop-opacity:1"
         offset="1" /></linearGradient><clipPath
       id="clipPath50"><path
         d="M 0,30 30,30 30,0 0,0 0,30 z"
         inkscape:connector-curvature="0"
         id="path52" /></clipPath><clipPath
       id="clipPath110"><path
         d="M 0,30 30,30 30,0 0,0 0,30 z"
         inkscape:connector-curvature="0"
         id="path112" /></clipPath><linearGradient
       x1="0"
       y1="0"
       x2="1"
       y2="0"
       id="linearGradient126"
       gradientUnits="userSpaceOnUse"
       gradientTransform="matrix(19.740478,-11.140533,-11.140533,-19.740478,34.959961,17.853516)"
       spreadMethod="pad"><stop
         id="stop128"
         style="stop-color:#dfe2f2;stop-opacity:1"
         offset="0" /><stop
         id="stop130"
         style="stop-color:#00b0f0;stop-opacity:1"
         offset="0.907974" /><stop
         id="stop132"
         style="stop-color:#00b0f0;stop-opacity:1"
         offset="1" /></linearGradient><clipPath
       id="clipPath140"><path
         d="M 0,30 30,30 30,0 0,0 0,30 z"
         inkscape:connector-curvature="0"
         id="path142" /></clipPath></defs><g
     transform="matrix(1.25,0,0,-1.25,0,37.5)"
     id="g10"><g
       id="g12"><g
         clip-path="url(#clipPath16)"
         id="g14"><g
           transform="translate(-24.6357,-7.0825)"
           id="g20"><path
             d="m 0,0 c 6.081,1.937 11.074,-2.006 11.292,3.379 0.218,5.385 2.929,2.96 7.002,0 4.072,-2.959 7.328,-17.373 3.854,-20.914 -3.473,-3.54 -10.209,-5.506 -12.704,-1.109 -2.495,4.397 -1.411,6.299 -2.929,9.646 -1.52,3.349 -4.559,0.446 -8.034,0 C -4.994,-9.442 -6.08,-1.937 0,0"
             inkscape:connector-curvature="0"
             id="path22"
             style="fill:#000000;fill-opacity:1;fill-rule:nonzero;stroke:none" /></g></g></g><g
       id="g24"><g
         id="g26"><g
           id="g32"><g
             id="g34"><path
               d="m 8.875,0 12.25,0 0,29.876 -12.25,0 0,-29.876 z"
               inkscape:connector-curvature="0"
               id="path44"
               style="fill:url(#linearGradient36);stroke:none" /></g></g></g></g><g
       id="g46"><g
         clip-path="url(#clipPath50)"
         id="g48"><g
           transform="translate(18.2949,14.666)"
           id="g54"><path
             d="M 0,0 z"
             inkscape:connector-curvature="0"
             id="path56"
             style="fill:#bcd6f0;fill-opacity:1;fill-rule:nonzero;stroke:none" /></g><g
           transform="translate(18.2949,14.666)"
           id="g58"><path
             d="M 0,0 0,0 z"
             inkscape:connector-curvature="0"
             id="path60"
             style="fill:none;stroke:#3c4694;stroke-width:1;stroke-linecap:butt;stroke-linejoin:miter;stroke-miterlimit:10;stroke-opacity:1;stroke-dasharray:none" /></g><g
           transform="translate(5.25,4.085)"
           id="g62"><path
             d="M 0,0 C 1.935,0 1.935,3 0,3 -1.935,3 -1.935,0 0,0"
             inkscape:connector-curvature="0"
             id="path64"
             style="fill:#737577;fill-opacity:1;fill-rule:nonzero;stroke:none" /></g><g
           transform="translate(6.5703,13.332)"
           id="g66"><path
             d="M 0,0 C 1.935,0 1.935,3 0,3 -1.935,3 -1.935,0 0,0"
             inkscape:connector-curvature="0"
             id="path68"
             style="fill:#737577;fill-opacity:1;fill-rule:nonzero;stroke:none" /></g><g
           transform="translate(11.8545,9.6982)"
           id="g70"><path
             d="M 0,0 C 1.935,0 1.935,3 0,3 -1.935,3 -1.935,0 0,0"
             inkscape:connector-curvature="0"
             id="path72"
             style="fill:#ba3125;fill-opacity:1;fill-rule:nonzero;stroke:none" /></g><g
           transform="translate(12.3506,19.2764)"
           id="g74"><path
             d="M 0,0 C 1.935,0 1.935,3 0,3 -1.935,3 -1.935,0 0,0"
             inkscape:connector-curvature="0"
             id="path76"
             style="fill:#ba3125;fill-opacity:1;fill-rule:nonzero;stroke:none" /></g><g
           transform="translate(18.2949,18.7822)"
           id="g78"><path
             d="M 0,0 C 1.935,0 1.935,3 0,3 -1.935,3 -1.935,0 0,0"
             inkscape:connector-curvature="0"
             id="path80"
             style="fill:#ba3125;fill-opacity:1;fill-rule:nonzero;stroke:none" /></g><g
           transform="translate(18.2949,13.166)"
           id="g82"><path
             d="M 0,0 C 1.935,0 1.935,3 0,3 -1.935,3 -1.935,0 0,0"
             inkscape:connector-curvature="0"
             id="path84"
             style="fill:#ba3125;fill-opacity:1;fill-rule:nonzero;stroke:none" /></g><g
           transform="translate(16.1484,24.3955)"
           id="g86"><path
             d="M 0,0 C 1.935,0 1.935,3 0,3 -1.935,3 -1.935,0 0,0"
             inkscape:connector-curvature="0"
             id="path88"
             style="fill:#ba3125;fill-opacity:1;fill-rule:nonzero;stroke:none" /></g><g
           transform="translate(23.7539,23.3232)"
           id="g90"><path
             d="M 0,0 C 1.935,0 1.935,3 0,3 -1.935,3 -1.935,0 0,0"
             inkscape:connector-curvature="0"
             id="path92"
             style="fill:#737577;fill-opacity:1;fill-rule:nonzero;stroke:none" /></g><g
           transform="translate(23.7539,16.9648)"
           id="g94"><path
             d="M 0,0 C 1.935,0 1.935,3 0,3 -1.935,3 -1.935,0 0,0"
             inkscape:connector-curvature="0"
             id="path96"
             style="fill:#737577;fill-opacity:1;fill-rule:nonzero;stroke:none" /></g><g
           transform="translate(8.875,29.8755)"
           id="g98"><path
             d="M 0,0 0,-29.875"
             inkscape:connector-curvature="0"
             id="path100"
             style="fill:none;stroke:#3f4096;stroke-width:1;stroke-linecap:butt;stroke-linejoin:miter;stroke-miterlimit:10;stroke-opacity:1;stroke-dasharray:none" /></g><g
           transform="translate(20.875,29.8755)"
           id="g102"><path
             d="M 0,0 0,-29.875"
             inkscape:connector-curvature="0"
             id="path104"
             style="fill:none;stroke:#3f4096;stroke-width:1;stroke-linecap:butt;stroke-linejoin:miter;stroke-miterlimit:10;stroke-opacity:1;stroke-dasharray:none" /></g></g></g><g
       id="g106"><g
         clip-path="url(#clipPath110)"
         id="g108"><g
           id="g114"><g
             id="g116"><g
               id="g122"><g
                 id="g124"><path
                   d="m 60,7.625 -30,0 0,9.125 30,0 0,-9.125 z"
                   inkscape:connector-curvature="0"
                   id="path134"
                   style="fill:url(#linearGradient126);stroke:none" /></g></g></g></g></g></g><g
       id="g136"><g
         clip-path="url(#clipPath140)"
         id="g138"><g
           transform="translate(30,16.75)"
           id="g144"><path
             d="M 0,0 30,0"
             inkscape:connector-curvature="0"
             id="path146"
             style="fill:none;stroke:#3f4096;stroke-width:1;stroke-linecap:butt;stroke-linejoin:miter;stroke-miterlimit:10;stroke-opacity:1;stroke-dasharray:none" /></g><g
           transform="translate(30,7.625)"
           id="g148"><path
             d="M 0,0 30,0"
             inkscape:connector-curvature="0"
             id="path150"
             style="fill:none;stroke:#3f4096;stroke-width:1;stroke-linecap:butt;stroke-linejoin:miter;stroke-miterlimit:10;stroke-opacity:1;stroke-dasharray:none" /></g></g></g></g></svg>