<?xml version="1.0" encoding="UTF-8" standalone="no"?>
<!-- Created with Inkscape (http://www.inkscape.org/) -->

<svg
   xmlns:dc="http://purl.org/dc/elements/1.1/"
   xmlns:cc="http://creativecommons.org/ns#"
   xmlns:rdf="http://www.w3.org/1999/02/22-rdf-syntax-ns#"
   xmlns:svg="http://www.w3.org/2000/svg"
   xmlns="http://www.w3.org/2000/svg"
   xmlns:inkscape="http://www.inkscape.org/namespaces/inkscape"
   version="1.1"
   width="37.5"
   height="37.5"
   id="svg2"
   xml:space="preserve"><metadata
     id="metadata8"><rdf:RDF><cc:Work
         rdf:about=""><dc:format>image/svg+xml</dc:format><dc:type
           rdf:resource="http://purl.org/dc/dcmitype/StillImage" /></cc:Work></rdf:RDF></metadata><defs
     id="defs6"><clipPath
       id="clipPath16"><path
         d="M 0,30 30,30 30,0 0,0 0,30 z"
         inkscape:connector-curvature="0"
         id="path18" /></clipPath><clipPath
       id="clipPath24"><path
         d="m 1.79102,28.3291 26.41798,0 0,-26.6582 -26.41798,0 0,26.6582 z"
         inkscape:connector-curvature="0"
         id="path26" /></clipPath><radialGradient
       cx="0"
       cy="0"
       r="1"
       fx="0"
       fy="0"
       id="radialGradient48"
       gradientUnits="userSpaceOnUse"
       gradientTransform="matrix(17.743179,0,0,17.743179,10.967773,20.117676)"
       spreadMethod="pad"><stop
         id="stop50"
         style="stop-color:#96d7e4;stop-opacity:1"
         offset="0" /><stop
         id="stop52"
         style="stop-color:#3ea9bb;stop-opacity:1"
         offset="0.28089899" /><stop
         id="stop54"
         style="stop-color:#29718f;stop-opacity:1"
         offset="1" /></radialGradient><clipPath
       id="clipPath62"><path
         d="M 0,30 30,30 30,0 0,0 0,30 z"
         inkscape:connector-curvature="0"
         id="path64" /></clipPath><clipPath
       id="clipPath70"><path
         d="m 2.36621,27.6416 25.31349,0 0,-25.31445 -25.31349,0 0,25.31445 z"
         inkscape:connector-curvature="0"
         id="path72" /></clipPath><clipPath
       id="clipPath86"><path
         d="m 7.36035,22.5557 15.16605,0 0,-15.7266 -15.16605,0 0,15.7266 z"
         inkscape:connector-curvature="0"
         id="path88" /></clipPath><clipPath
       id="clipPath90"><path
         d="m 7.36035,22.5557 15.16605,0 0,-15.7266 -15.16605,0 0,15.7266 z"
         inkscape:connector-curvature="0"
         id="path92" /></clipPath></defs><g
     transform="matrix(1.25,0,0,-1.25,0,37.5)"
     id="g10"><g
       id="g12"><g
         clip-path="url(#clipPath16)"
         id="g14"><g
           id="g20"><g
             id="g22" /><g
             id="g28"><g
               clip-path="url(#clipPath24)"
               id="g30"
               style="opacity:0.69999701"><g
                 transform="translate(1.791,15)"
                 id="g32"><path
                   d="m 0,0 c 0,-7.35 5.926,-13.329 13.209,-13.329 7.283,0 13.209,5.979 13.209,13.329 0,7.35 -5.926,13.329 -13.209,13.329 C 5.926,13.329 0,7.35 0,0"
                   inkscape:connector-curvature="0"
                   id="path34"
                   style="fill:#a8caeb;fill-opacity:1;fill-rule:nonzero;stroke:none" /></g></g></g></g></g></g><g
       id="g36"><g
         id="g38"><g
           id="g44"><g
             id="g46"><path
               d="M 2.867,14.984 C 2.867,8.27 8.309,2.827 15.024,2.827 l 0,0 c 6.712,0 12.156,5.443 12.156,12.157 l 0,0 c 0,6.714 -5.444,12.157 -12.156,12.157 l 0,0 C 8.309,27.141 2.867,21.698 2.867,14.984"
               inkscape:connector-curvature="0"
               id="path56"
               style="fill:url(#radialGradient48);stroke:none" /></g></g></g></g><g
       id="g58"><g
         clip-path="url(#clipPath62)"
         id="g60"><g
           id="g66"><g
             id="g68" /><g
             id="g74"><g
               clip-path="url(#clipPath70)"
               id="g76"
               style="opacity:0.98823499"><g
                 transform="translate(27.1797,14.9844)"
                 id="g78"><path
                   d="m 0,0 c 0,-6.714 -5.443,-12.157 -12.156,-12.157 -6.715,0 -12.157,5.443 -12.157,12.157 0,6.714 5.442,12.157 12.157,12.157 C -5.443,12.157 0,6.714 0,0 z"
                   inkscape:connector-curvature="0"
                   id="path80"
                   style="fill:none;stroke:#346d77;stroke-width:1;stroke-linecap:butt;stroke-linejoin:miter;stroke-miterlimit:4;stroke-opacity:1;stroke-dasharray:none" /></g></g></g></g><g
           id="g82"><g
             id="g84" /><g
             id="g94"><g
               clip-path="url(#clipPath86)"
               id="g96"
               style="opacity:0.69999701"><g
                 transform="translate(20.8633,17.5137)"
                 id="g98"><path
                   d="m 0,0 c 0,0 -3.052,-0.014 -4.507,-0.021 -0.006,1.286 -0.014,3.423 -0.014,3.423 -0.002,0.31 -0.128,0.599 -0.34,0.809 -0.105,0.103 -0.23,0.187 -0.372,0.246 -0.428,0.175 -0.92,0.075 -1.246,-0.254 l -6.192,-6.245 c -0.445,-0.449 -0.442,-1.174 0.007,-1.619 l 6.246,-6.193 c 0.329,-0.325 0.821,-0.42 1.248,-0.242 0.428,0.179 0.704,0.597 0.702,1.06 0,0 -0.01,2.138 -0.015,3.424 1.456,0.006 4.507,0.019 4.507,0.019 0.304,0.001 0.594,0.122 0.808,0.338 0.214,0.216 0.333,0.507 0.331,0.811 L 1.149,-1.14 C 1.147,-0.836 1.026,-0.546 0.811,-0.332 0.596,-0.118 0.304,0.001 0,0"
                   inkscape:connector-curvature="0"
                   id="path100"
                   style="fill:#ffffff;fill-opacity:1;fill-rule:nonzero;stroke:none" /></g><g
                 id="g102"><g
                   id="g104" /><g
                   id="g106"><g
                     clip-path="url(#clipPath90)"
                     id="g108"
                     style="opacity:0.98823499"><g
                       transform="translate(20.8633,17.5137)"
                       id="g110"><path
                         d="m 0,0 c 0,0 -3.052,-0.014 -4.507,-0.021 -0.006,1.286 -0.014,3.423 -0.014,3.423 -0.002,0.31 -0.128,0.599 -0.34,0.809 -0.105,0.103 -0.23,0.187 -0.372,0.246 -0.428,0.175 -0.92,0.075 -1.246,-0.254 l -6.192,-6.245 c -0.445,-0.449 -0.442,-1.174 0.007,-1.619 l 6.246,-6.193 c 0.329,-0.325 0.821,-0.42 1.248,-0.242 0.428,0.179 0.704,0.597 0.702,1.06 0,0 -0.01,2.138 -0.015,3.424 1.456,0.006 4.507,0.019 4.507,0.019 0.304,0.001 0.594,0.122 0.808,0.338 0.214,0.216 0.333,0.507 0.331,0.811 L 1.149,-1.14 C 1.147,-0.836 1.026,-0.546 0.811,-0.332 0.596,-0.118 0.304,0.001 0,0 z"
                         inkscape:connector-curvature="0"
                         id="path112"
                         style="fill:none;stroke:#346e78;stroke-width:1;stroke-linecap:butt;stroke-linejoin:miter;stroke-miterlimit:4;stroke-opacity:1;stroke-dasharray:none" /></g></g></g></g></g></g></g></g></g></g></svg>