<?xml version="1.0" encoding="UTF-8" standalone="no"?>
<!-- Created with Inkscape (http://www.inkscape.org/) -->

<svg
   xmlns:dc="http://purl.org/dc/elements/1.1/"
   xmlns:cc="http://creativecommons.org/ns#"
   xmlns:rdf="http://www.w3.org/1999/02/22-rdf-syntax-ns#"
   xmlns:svg="http://www.w3.org/2000/svg"
   xmlns="http://www.w3.org/2000/svg"
   xmlns:xlink="http://www.w3.org/1999/xlink"
   xmlns:sodipodi="http://sodipodi.sourceforge.net/DTD/sodipodi-0.dtd"
   xmlns:inkscape="http://www.inkscape.org/namespaces/inkscape"
   version="1.1"
   width="37.5"
   height="37.5"
   id="svg2"
   xml:space="preserve"
   inkscape:version="0.91 r13725"
   sodipodi:docname="glue_pythonsave.svg"><sodipodi:namedview
     pagecolor="#ffffff"
     bordercolor="#666666"
     borderopacity="1"
     objecttolerance="10"
     gridtolerance="10"
     guidetolerance="10"
     inkscape:pageopacity="0"
     inkscape:pageshadow="2"
     inkscape:window-width="1136"
     inkscape:window-height="798"
     id="namedview194"
     showgrid="false"
     inkscape:zoom="5"
     inkscape:cx="48.75"
     inkscape:cy="-4.25"
     inkscape:window-x="139"
     inkscape:window-y="0"
     inkscape:window-maximized="0"
     inkscape:current-layer="svg2" /><metadata
     id="metadata8"><rdf:RDF><cc:Work
         rdf:about=""><dc:format>image/svg+xml</dc:format><dc:type
           rdf:resource="http://purl.org/dc/dcmitype/StillImage" /><dc:title></dc:title></cc:Work></rdf:RDF></metadata><defs
     id="defs6"><clipPath
       id="clipPath16"><path
         d="M 0,30 30,30 30,0 0,0 0,30 z"
         inkscape:connector-curvature="0"
         id="path18" /></clipPath><clipPath
       id="clipPath24"><path
         d="m 1.90283,27.5059 26.19437,0 0,-25.01176 -26.19437,0 0,25.01176 z"
         inkscape:connector-curvature="0"
         id="path26" /></clipPath><clipPath
       id="clipPath28"><path
         d="m 1.91,25.196 c -0.092,1.072 0.669,2.175 1.682,2.31 l 22.911,-0.122 c 0.833,-0.079 1.364,-0.533 1.594,-1.814 L 28.077,4.688 25.737,2.594 4.034,2.494 1.916,4.796 1.91,25.196 z"
         inkscape:connector-curvature="0"
         id="path30" /></clipPath><radialGradient
       cx="0"
       cy="0"
       r="1"
       fx="0"
       fy="0"
       id="radialGradient36"
       gradientUnits="userSpaceOnUse"
       gradientTransform="matrix(17.53743,-4.58e-5,0,14.35376,7.3129883,19.4375)"
       spreadMethod="pad"><stop
         id="stop38"
         style="stop-color:#ffffff;stop-opacity:0.6156863"
         offset="0" /><stop
         id="stop40"
         style="stop-color:#ffffff;stop-opacity:0.91764706"
         offset="1" /></radialGradient><mask
       id="mask42"><g
         id="g44"><g
           id="g46"><g
             id="g48"><g
               id="g50"><path
                 d="m -32767,32767 65534,0 0,-65534 -65534,0 0,65534 z"
                 inkscape:connector-curvature="0"
                 id="path52"
                 style="fill:url(#radialGradient36);stroke:none" /></g></g></g></g></mask><radialGradient
       cx="0"
       cy="0"
       r="1"
       fx="0"
       fy="0"
       id="radialGradient54"
       gradientUnits="userSpaceOnUse"
       gradientTransform="matrix(17.53743,-4.58e-5,0,14.35376,7.3129883,19.4375)"
       spreadMethod="pad"><stop
         id="stop56"
         style="stop-color:#2d6582;stop-opacity:1"
         offset="0" /><stop
         id="stop58"
         style="stop-color:#29506f;stop-opacity:1"
         offset="1" /></radialGradient><clipPath
       id="clipPath82"><path
         d="m 1.40283,28.0059 27.19437,0 0,-26.01176 -27.19437,0 0,26.01176 z"
         inkscape:connector-curvature="0"
         id="path84" /></clipPath><clipPath
       id="clipPath98"><path
         d="m 9.01123,11.1182 12.83397,0 0,-8.33109 -12.83397,0 0,8.33109 z"
         inkscape:connector-curvature="0"
         id="path100" /></clipPath><linearGradient
       x1="0"
       y1="0"
       x2="1"
       y2="0"
       id="linearGradient106"
       gradientUnits="userSpaceOnUse"
       gradientTransform="matrix(11.000671,-8.0020905,11.931717,14.256714,10.187988,10.75)"
       spreadMethod="pad"><stop
         id="stop108"
         style="stop-color:#f7f8f9;stop-opacity:1"
         offset="0" /><stop
         id="stop110"
         style="stop-color:#999898;stop-opacity:1"
         offset="1" /></linearGradient><clipPath
       id="clipPath130"><path
         d="m 8.50586,11.6182 13.84624,0 0,-9.33158 -13.84624,0 0,9.33158 z"
         inkscape:connector-curvature="0"
         id="path132" /></clipPath><clipPath
       id="clipPath146"><path
         d="m 3.30029,25.5264 1.6416,0 0,-1.794 -1.6416,0 0,1.794 z"
         inkscape:connector-curvature="0"
         id="path148" /></clipPath><clipPath
       id="clipPath162"><path
         d="m 2.7998,26.0317 2.64356,0 0,-2.8188 -2.64356,0 0,2.8188 z"
         inkscape:connector-curvature="0"
         id="path164" /></clipPath><clipPath
       id="clipPath178"><path
         d="m 6.10498,27.291 18.14062,0 0,-10.4795 -18.14062,0 0,10.4795 z"
         inkscape:connector-curvature="0"
         id="path180" /></clipPath><linearGradient
       x1="0"
       y1="0"
       x2="1"
       y2="0"
       id="linearGradient186"
       gradientUnits="userSpaceOnUse"
       gradientTransform="matrix(16.269119,-8.6781158,15.47258,18.159607,8.1254883,25.75)"
       spreadMethod="pad"><stop
         id="stop188"
         style="stop-color:#feffff;stop-opacity:1"
         offset="0" /><stop
         id="stop190"
         style="stop-color:#b2b5b8;stop-opacity:1"
         offset="1" /></linearGradient><clipPath
       id="clipPath210"><path
         d="m 5.59912,27.791 19.15378,0 0,-11.48 -19.15378,0 0,11.48 z"
         inkscape:connector-curvature="0"
         id="path212" /></clipPath><clipPath
       id="clipPath226"><path
         d="m 11.2749,22.8828 11.0957,0 0,-1.1172 -11.0957,0 0,1.1172 z"
         inkscape:connector-curvature="0"
         id="path228" /></clipPath><clipPath
       id="clipPath242"><path
         d="m 10.7695,23.3838 12.1197,0 0,-2.1187 -12.1197,0 0,2.1187 z"
         inkscape:connector-curvature="0"
         id="path244" /></clipPath><clipPath
       id="clipPath258"><path
         d="m 11.1343,10.3008 3.2842,0 0,-6.60353 -3.2842,0 0,6.60353 z"
         inkscape:connector-curvature="0"
         id="path260" /></clipPath><clipPath
       id="clipPath274"><path
         d="M 6.474,27.053 23.825,27.021 23.887,25.315 6.492,25.3 6.474,27.053 z"
         inkscape:connector-curvature="0"
         id="path276" /></clipPath><linearGradient
       x1="0"
       y1="0"
       x2="1"
       y2="0"
       id="linearGradient286"
       gradientUnits="userSpaceOnUse"
       gradientTransform="matrix(-0.3928223,2.9530029,-25.049133,-0.1617737,15.437988,24.289062)"
       spreadMethod="pad"><stop
         id="stop288"
         style="stop-color:#ffffff;stop-opacity:0.99217212"
         offset="0" /><stop
         id="stop290"
         style="stop-color:#ffffff;stop-opacity:0.95295644"
         offset="1" /></linearGradient><mask
       id="mask292"><g
         id="g294"><g
           id="g296"><g
             id="g298"><g
               id="g300"><path
                 d="m -32768,32767 65535,0 0,-65534 -65535,0 0,65534 z"
                 inkscape:connector-curvature="0"
                 id="path302"
                 style="fill:url(#linearGradient286);stroke:none" /></g></g></g></g></mask><linearGradient
       x1="0"
       y1="0"
       x2="1"
       y2="0"
       id="linearGradient308"
       gradientUnits="userSpaceOnUse"
       gradientTransform="matrix(-0.3928223,2.9530029,-25.049133,-0.1617737,15.437988,24.289062)"
       spreadMethod="pad"><stop
         id="stop310"
         style="stop-color:#fcdeb4;stop-opacity:1"
         offset="0" /><stop
         id="stop312"
         style="stop-color:#efab35;stop-opacity:1"
         offset="1" /></linearGradient><clipPath
       id="clipPath320"><path
         d="M 0,30 30,30 30,0 0,0 0,30 z"
         inkscape:connector-curvature="0"
         id="path322" /></clipPath><clipPath
       id="clipPath328"><path
         d="m 5.96826,27.5537 18.43754,0 0,-2.7544 -18.43754,0 0,2.7544 z"
         inkscape:connector-curvature="0"
         id="path330" /></clipPath><clipPath
       id="clipPath344"><path
         d="m 11.2749,20.3555 11.0957,0 0,-1.1162 -11.0957,0 0,1.1162 z"
         inkscape:connector-curvature="0"
         id="path346" /></clipPath><clipPath
       id="clipPath360"><path
         d="m 10.7695,20.8564 12.1197,0 0,-2.1176 -12.1197,0 0,2.1176 z"
         inkscape:connector-curvature="0"
         id="path362" /></clipPath><clipPath
       id="clipPath376"><path
         d="m 25.2861,25.6523 1.6416,0 0,-1.7929 -1.6416,0 0,1.7929 z"
         inkscape:connector-curvature="0"
         id="path378" /></clipPath><clipPath
       id="clipPath392"><path
         d="m 24.7852,26.1572 2.644,0 0,-2.8174 -2.644,0 0,2.8174 z"
         inkscape:connector-curvature="0"
         id="path394" /></clipPath><linearGradient
       id="linearGradient2795"><stop
         id="stop2797"
         offset="0"
         style="stop-color:#b8b8b8;stop-opacity:0.49803922" /><stop
         id="stop2799"
         offset="1"
         style="stop-color:#7f7f7f;stop-opacity:0" /></linearGradient><linearGradient
       id="linearGradient2787"><stop
         id="stop2789"
         offset="0"
         style="stop-color:#7f7f7f;stop-opacity:0.5" /><stop
         id="stop2791"
         offset="1"
         style="stop-color:#7f7f7f;stop-opacity:0" /></linearGradient><linearGradient
       id="linearGradient3676"><stop
         id="stop3678"
         offset="0"
         style="stop-color:#b2b2b2;stop-opacity:0.5" /><stop
         id="stop3680"
         offset="1"
         style="stop-color:#b3b3b3;stop-opacity:0" /></linearGradient><linearGradient
       id="linearGradient3236"><stop
         id="stop3244"
         offset="0"
         style="stop-color:#f4f4f4;stop-opacity:1" /><stop
         id="stop3240"
         offset="1"
         style="stop-color:#ffffff;stop-opacity:1" /></linearGradient><linearGradient
       id="linearGradient4671"><stop
         id="stop4673"
         offset="0"
         style="stop-color:#ffd43b;stop-opacity:1" /><stop
         id="stop4675"
         offset="1"
         style="stop-color:#ffe873;stop-opacity:1" /></linearGradient><linearGradient
       id="linearGradient4689"><stop
         id="stop4691"
         offset="0"
         style="stop-color:#5a9fd4;stop-opacity:1" /><stop
         id="stop4693"
         offset="1"
         style="stop-color:#306998;stop-opacity:1" /></linearGradient><linearGradient
       gradientTransform="translate(100.2702,99.61116)"
       gradientUnits="userSpaceOnUse"
       xlink:href="#linearGradient4671"
       id="linearGradient2987"
       y2="144.75717"
       x2="-65.308502"
       y1="144.75717"
       x1="224.23996" /><linearGradient
       gradientTransform="translate(100.2702,99.61116)"
       gradientUnits="userSpaceOnUse"
       xlink:href="#linearGradient4689"
       id="linearGradient2990"
       y2="76.313133"
       x2="26.670298"
       y1="77.475983"
       x1="172.94208" /><linearGradient
       gradientTransform="matrix(0.562541,0,0,0.567972,-11.5974,-7.60954)"
       gradientUnits="userSpaceOnUse"
       xlink:href="#linearGradient4671"
       id="linearGradient2255"
       y2="144.75717"
       x2="-65.308502"
       y1="144.75717"
       x1="224.23996" /><linearGradient
       gradientTransform="matrix(0.562541,0,0,0.567972,-11.5974,-7.60954)"
       gradientUnits="userSpaceOnUse"
       xlink:href="#linearGradient4689"
       id="linearGradient2258"
       y2="76.313133"
       x2="26.670298"
       y1="76.176224"
       x1="172.94208" /><radialGradient
       gradientTransform="matrix(1,0,0,0.177966,0,108.7434)"
       gradientUnits="userSpaceOnUse"
       xlink:href="#linearGradient2795"
       id="radialGradient2801"
       fy="132.28575"
       fx="61.518883"
       r="29.036913"
       cy="132.28575"
       cx="61.518883" /><linearGradient
       gradientTransform="matrix(0.562541,0,0,0.567972,-9.399749,-5.305317)"
       gradientUnits="userSpaceOnUse"
       xlink:href="#linearGradient4671"
       id="linearGradient1475"
       y2="137.27299"
       x2="112.03144"
       y1="192.35176"
       x1="150.96111" /><linearGradient
       gradientTransform="matrix(0.562541,0,0,0.567972,-9.399749,-5.305317)"
       gradientUnits="userSpaceOnUse"
       xlink:href="#linearGradient4689"
       id="linearGradient1478"
       y2="114.39767"
       x2="135.66525"
       y1="20.603781"
       x1="26.648937" /><radialGradient
       gradientTransform="matrix(2.382716e-8,-0.296405,1.43676,4.683673e-7,-128.544,150.5202)"
       gradientUnits="userSpaceOnUse"
       xlink:href="#linearGradient2795"
       id="radialGradient1480"
       fy="132.28575"
       fx="61.518883"
       r="29.036913"
       cy="132.28575"
       cx="61.518883" /></defs><g
     id="g2303"
     transform="matrix(0.28026654,0,0,0.28026654,0.76693048,0.69819774)"><g
       transform="matrix(1.0474143,0,0,1.0474143,-0.26511085,-0.30331181)"
       id="g3391"><path
         inkscape:connector-curvature="0"
         id="path1948"
         style="fill:url(#linearGradient1478);fill-opacity:1"
         d="m 60.510156,6.3979729 c -4.583653,0.021298 -8.960939,0.4122177 -12.8125,1.09375 C 36.35144,9.4962267 34.291407,13.691825 34.291406,21.429223 l 0,10.21875 26.8125,0 0,3.40625 -26.8125,0 -10.0625,0 c -7.792459,0 -14.6157592,4.683717 -16.7500002,13.59375 -2.46182,10.212966 -2.5710151,16.586023 0,27.25 1.9059283,7.937852 6.4575432,13.593748 14.2500002,13.59375 l 9.21875,0 0,-12.25 c 0,-8.849902 7.657144,-16.656248 16.75,-16.65625 l 26.78125,0 c 7.454951,0 13.406253,-6.138164 13.40625,-13.625 l 0,-25.53125 c 0,-7.266339 -6.12998,-12.7247775 -13.40625,-13.9375001 -4.605987,-0.7667253 -9.385097,-1.1150483 -13.96875,-1.09375 z m -14.5,8.2187501 c 2.769547,0 5.03125,2.298646 5.03125,5.125 -2e-6,2.816336 -2.261703,5.09375 -5.03125,5.09375 -2.779476,-1e-6 -5.03125,-2.277415 -5.03125,-5.09375 -1e-6,-2.826353 2.251774,-5.125 5.03125,-5.125 z" /><path
         inkscape:connector-curvature="0"
         id="path1950"
         style="fill:url(#linearGradient1475);fill-opacity:1"
         d="m 91.228906,35.054223 0,11.90625 c 0,9.230755 -7.825895,16.999999 -16.75,17 l -26.78125,0 c -7.335833,0 -13.406249,6.278483 -13.40625,13.625 l 0,25.531247 c 0,7.26634 6.318588,11.54032 13.40625,13.625 8.487331,2.49561 16.626237,2.94663 26.78125,0 6.750155,-1.95439 13.406253,-5.88761 13.40625,-13.625 l 0,-10.218747 -26.78125,0 0,-3.40625 26.78125,0 13.406254,0 c 7.79246,0 10.69625,-5.435408 13.40624,-13.59375 2.79933,-8.398886 2.68022,-16.475776 0,-27.25 -1.92578,-7.757441 -5.60387,-13.59375 -13.40624,-13.59375 l -10.062504,0 z m -15.0625,64.65625 c 2.779478,3e-6 5.03125,2.277417 5.03125,5.093747 -2e-6,2.82635 -2.251775,5.125 -5.03125,5.125 -2.76955,0 -5.03125,-2.29865 -5.03125,-5.125 2e-6,-2.81633 2.261697,-5.093747 5.03125,-5.093747 z" /></g></g></svg>