<?xml version="1.0" encoding="UTF-8" standalone="no"?>
<!-- Created with Inkscape (http://www.inkscape.org/) -->

<svg
   xmlns:dc="http://purl.org/dc/elements/1.1/"
   xmlns:cc="http://creativecommons.org/ns#"
   xmlns:rdf="http://www.w3.org/1999/02/22-rdf-syntax-ns#"
   xmlns:svg="http://www.w3.org/2000/svg"
   xmlns="http://www.w3.org/2000/svg"
   version="1.1"
   width="37.5"
   height="37.5"
   id="svg2"
   xml:space="preserve"><metadata
     id="metadata8"><rdf:RDF><cc:Work
         rdf:about=""><dc:format>image/svg+xml</dc:format><dc:type
           rdf:resource="http://purl.org/dc/dcmitype/StillImage" /><dc:title></dc:title></cc:Work></rdf:RDF></metadata><defs
     id="defs6"><clipPath
       id="clipPath16"><path
         d="M 0,30 30,30 30,0 0,0 0,30 z"
         id="path18" /></clipPath><clipPath
       id="clipPath24"><path
         d="m 2.8291,28.0825 24.0039,0 0,-26.07762 -24.0039,0 0,26.07762 z"
         id="path26" /></clipPath><clipPath
       id="clipPath56"><path
         d="m 30,60 29.999,0 0,-30 L 30,30 30,60 z"
         id="path58" /></clipPath></defs><g
     transform="matrix(1.25,0,0,-1.25,0,37.5)"
     id="g10"><g
       id="g12"><g
         clip-path="url(#clipPath16)"
         id="g14"><g
           id="g20"><g
             id="g22" /><g
             id="g28"><g
               clip-path="url(#clipPath24)"
               id="g30"><g
                 transform="translate(20.5977,19.3818)"
                 id="g32"><path
                   d="m 0,0 c 3.615,-1.126 6.235,-4.504 6.235,-8.487 0,-4.908 -3.983,-8.89 -8.89,-8.89 -4.848,0 -8.783,3.876 -8.878,8.7 0.842,-0.261 1.73,-0.403 2.655,-0.403 4.907,0 8.89,3.983 8.89,8.891 0,0.059 0,0.13 -0.012,0.189"
                   id="path34"
                   style="fill:#ba3125;fill-opacity:1;fill-rule:nonzero;stroke:none" /></g><g
                 transform="translate(20.5977,19.3818)"
                 id="g36"><path
                   d="m 0.63427331,0.58157148 c 0.0133199,-0.0669089 0.0133199,-0.14742636 0.0133199,-0.21433525 0,-5.56591233 -4.42110121,-10.08282943 -9.86783571,-10.08282943 -1.0267435,0 -2.0124165,0.1610349 -2.9470305,0.4570217 -0.01332,0.068043 -0.01332,0.1485604 -0.01332,0.2154693 0,5.5647783 4.419991,10.0816954 9.8678355,10.0816954 1.0267433,0 2.01241688,-0.16103493 2.9470308,-0.45702172"
                   id="path38"
                   style="fill:#ba3125;fill-opacity:1;fill-rule:nonzero;stroke:none" /></g><g
                 transform="translate(20.5977,19.3818)"
                 id="g40"><path
                   d="m 0,0 c -0.842,0.261 -1.73,0.403 -2.655,0.403 -4.908,0 -8.89,-3.983 -8.89,-8.89 0,-0.059 0,-0.13 0.012,-0.19 -3.615,1.127 -6.236,4.505 -6.236,8.488 0,4.907 3.984,8.89 8.891,8.89 C -4.03,8.701 -0.095,4.825 0,0"
                   id="path42"
                   style="fill:#ba3125;fill-opacity:1;fill-rule:nonzero;stroke:none" /></g></g></g></g><g
           transform="translate(20.5977,19.3818)"
           id="g44"><path
             d="m 0,0 c 3.615,-1.126 6.235,-4.504 6.235,-8.487 0,-4.908 -3.983,-8.89 -8.89,-8.89 -4.848,0 -8.783,3.876 -8.878,8.7"
             id="path46"
             style="fill:none;stroke:#000000;stroke-width:1;stroke-linecap:round;stroke-linejoin:miter;stroke-miterlimit:10;stroke-opacity:1;stroke-dasharray:none" /></g><g
           transform="translate(9.0645,10.7051)"
           id="g48"><path
             d="m 0,0 c -3.615,1.126 -6.235,4.504 -6.235,8.487 0,4.908 3.983,8.89 8.89,8.89 4.848,0 8.783,-3.876 8.878,-8.7"
             id="path50"
             style="fill:none;stroke:#000000;stroke-width:1;stroke-linecap:round;stroke-linejoin:miter;stroke-miterlimit:10;stroke-opacity:1;stroke-dasharray:none" /></g><g
           id="g52"><g
             id="g54" /><g
             id="g60"><g
               clip-path="url(#clipPath56)"
               id="g62"><g
                 transform="translate(45.6543,36)"
                 id="g64"><path
                   d="m 0,0 c 4.929,0 8.929,4 8.929,8.929 0,4.928 -4,8.928 -8.929,8.928 -4.928,0 -8.928,-4 -8.928,-8.928 C -8.928,4 -4.928,0 0,0 m 14.345,-6 -29.999,0 0,30 29.999,0 0,-30 z"
                   id="path66"
                   style="fill:#ba3125;fill-opacity:1;fill-rule:nonzero;stroke:none" /></g></g></g></g></g></g></g></svg>