<?xml version="1.0" encoding="UTF-8" standalone="no"?>
<!-- Created with Inkscape (http://www.inkscape.org/) -->

<svg
   xmlns:dc="http://purl.org/dc/elements/1.1/"
   xmlns:cc="http://creativecommons.org/ns#"
   xmlns:rdf="http://www.w3.org/1999/02/22-rdf-syntax-ns#"
   xmlns:svg="http://www.w3.org/2000/svg"
   xmlns="http://www.w3.org/2000/svg"
   xmlns:inkscape="http://www.inkscape.org/namespaces/inkscape"
   version="1.1"
   width="37.5"
   height="37.5"
   id="svg2"
   xml:space="preserve"><metadata
     id="metadata8"><rdf:RDF><cc:Work
         rdf:about=""><dc:format>image/svg+xml</dc:format><dc:type
           rdf:resource="http://purl.org/dc/dcmitype/StillImage" /></cc:Work></rdf:RDF></metadata><defs
     id="defs6"><linearGradient
       x1="0"
       y1="0"
       x2="1"
       y2="0"
       id="linearGradient32"
       gradientUnits="userSpaceOnUse"
       gradientTransform="matrix(-39.873627,26.624085,26.624085,39.873627,35.064941,1.0336914)"
       spreadMethod="pad"><stop
         id="stop34"
         style="stop-color:#ba3125;stop-opacity:1"
         offset="0" /><stop
         id="stop36"
         style="stop-color:#e7b9a4;stop-opacity:1"
         offset="0.834351" /><stop
         id="stop38"
         style="stop-color:#e7b9a4;stop-opacity:1"
         offset="0.834351" /><stop
         id="stop40"
         style="stop-color:#ba3125;stop-opacity:1"
         offset="1" /></linearGradient><clipPath
       id="clipPath48"><path
         d="M 0,30 30,30 30,0 0,0 0,30 z"
         inkscape:connector-curvature="0"
         id="path50" /></clipPath></defs><g
     transform="matrix(1.25,0,0,-1.25,0,37.5)"
     id="g10"><g
       transform="translate(26.5449,27.375)"
       id="g12"><path
         d="m 0,0 0,-11.42 -10.34,0 0,-10.33 -13.5,0 0,19.75 13.5,0 0,2 L 0,0 z"
         inkscape:connector-curvature="0"
         id="path14"
         style="fill:#ba3125;fill-opacity:1;fill-rule:nonzero;stroke:none" /></g><g
       transform="translate(26.5449,27.375)"
       id="g16"><path
         d="m 0,0 0,-11.42 -10.34,0 0,-10.33 -13.5,0 0,19.75 13.5,0 0,2 L 0,0 z"
         inkscape:connector-curvature="0"
         id="path18"
         style="fill:none;stroke:#000000;stroke-width:1;stroke-linecap:butt;stroke-linejoin:miter;stroke-miterlimit:10;stroke-opacity:1;stroke-dasharray:none" /></g><g
       id="g20"><g
         id="g22"><g
           id="g28"><g
             id="g30"><path
               d="m 26.541,5.542 -23.833,0 2.167,16.833 23.833,0 -2.167,-16.833 z"
               inkscape:connector-curvature="0"
               id="path42"
               style="fill:url(#linearGradient32);stroke:none" /></g></g></g></g><g
       id="g44"><g
         clip-path="url(#clipPath48)"
         id="g46"><g
           transform="translate(26.541,5.5415)"
           id="g52"><path
             d="m 0,0 -23.833,0 2.167,16.833 23.833,0 L 0,0 z"
             inkscape:connector-curvature="0"
             id="path54"
             style="fill:none;stroke:#000000;stroke-width:1;stroke-linecap:butt;stroke-linejoin:miter;stroke-miterlimit:10;stroke-opacity:1;stroke-dasharray:none" /></g></g></g></g></svg>