<?xml version="1.0" encoding="UTF-8" standalone="no"?>
<!-- Created with Inkscape (http://www.inkscape.org/) -->

<svg
   xmlns:dc="http://purl.org/dc/elements/1.1/"
   xmlns:cc="http://creativecommons.org/ns#"
   xmlns:rdf="http://www.w3.org/1999/02/22-rdf-syntax-ns#"
   xmlns:svg="http://www.w3.org/2000/svg"
   xmlns="http://www.w3.org/2000/svg"
   xmlns:inkscape="http://www.inkscape.org/namespaces/inkscape"
   version="1.1"
   width="37.5"
   height="37.5"
   id="svg2"
   xml:space="preserve"><metadata
     id="metadata8"><rdf:RDF><cc:Work
         rdf:about=""><dc:format>image/svg+xml</dc:format><dc:type
           rdf:resource="http://purl.org/dc/dcmitype/StillImage" /></cc:Work></rdf:RDF></metadata><defs
     id="defs6"><linearGradient
       x1="0"
       y1="0"
       x2="1"
       y2="0"
       id="linearGradient24"
       gradientUnits="userSpaceOnUse"
       gradientTransform="matrix(16.832871,-9.4996185,-9.4996185,-16.832871,6.4394531,20.069336)"
       spreadMethod="pad"><stop
         id="stop26"
         style="stop-color:#dfe2f2;stop-opacity:1"
         offset="0" /><stop
         id="stop28"
         style="stop-color:#00b0f0;stop-opacity:1"
         offset="0.907974" /><stop
         id="stop30"
         style="stop-color:#00b0f0;stop-opacity:1"
         offset="1" /></linearGradient><clipPath
       id="clipPath40"><path
         d="M 0,30 30,30 30,0 0,0 0,30 z"
         inkscape:connector-curvature="0"
         id="path42" /></clipPath><clipPath
       id="clipPath56"><path
         d="M 0,30 30,30 30,0 0,0 0,30 z"
         inkscape:connector-curvature="0"
         id="path58" /></clipPath></defs><g
     transform="matrix(1.25,0,0,-1.25,0,37.5)"
     id="g10"><g
       id="g12"><g
         id="g14"><g
           id="g20"><g
             id="g22"><path
               d="m 26.083,8.321 -22.166,0 0,13.833 22.166,0 0,-13.833 z"
               inkscape:connector-curvature="0"
               id="path32"
               style="fill:url(#linearGradient24);stroke:none" /></g></g></g></g><path
       d="m 26.083,8.321 -22.166,0 0,13.833 22.166,0 0,-13.833 z"
       inkscape:connector-curvature="0"
       id="path34"
       style="fill:none;stroke:#3c4694;stroke-width:1;stroke-linecap:round;stroke-linejoin:bevel;stroke-miterlimit:10;stroke-opacity:1;stroke-dasharray:none" /><g
       id="g36"><g
         clip-path="url(#clipPath40)"
         id="g38"><g
           transform="translate(18.2949,13.9258)"
           id="g44"><path
             d="M 0,0 z"
             inkscape:connector-curvature="0"
             id="path46"
             style="fill:#bcd6f0;fill-opacity:1;fill-rule:nonzero;stroke:none" /></g></g></g><g
       transform="translate(18.2949,13.9258)"
       id="g48"><path
         d="M 0,0 0,0 z"
         inkscape:connector-curvature="0"
         id="path50"
         style="fill:none;stroke:#3c4694;stroke-width:1;stroke-linecap:butt;stroke-linejoin:miter;stroke-miterlimit:10;stroke-opacity:1;stroke-dasharray:none" /></g><g
       id="g52"><g
         clip-path="url(#clipPath56)"
         id="g54"><g
           transform="translate(5.25,3.3447)"
           id="g60"><path
             d="M 0,0 C 1.935,0 1.935,3 0,3 -1.935,3 -1.935,0 0,0"
             inkscape:connector-curvature="0"
             id="path62"
             style="fill:#737577;fill-opacity:1;fill-rule:nonzero;stroke:none" /></g><g
           transform="translate(6.5703,12.5918)"
           id="g64"><path
             d="M 0,0 C 1.935,0 1.935,3 0,3 -1.935,3 -1.935,0 0,0"
             inkscape:connector-curvature="0"
             id="path66"
             style="fill:#ba3125;fill-opacity:1;fill-rule:nonzero;stroke:none" /></g><g
           transform="translate(11.8545,8.958)"
           id="g68"><path
             d="M 0,0 C 1.935,0 1.935,3 0,3 -1.935,3 -1.935,0 0,0"
             inkscape:connector-curvature="0"
             id="path70"
             style="fill:#ba3125;fill-opacity:1;fill-rule:nonzero;stroke:none" /></g><g
           transform="translate(12.3506,18.5361)"
           id="g72"><path
             d="M 0,0 C 1.935,0 1.935,3 0,3 -1.935,3 -1.935,0 0,0"
             inkscape:connector-curvature="0"
             id="path74"
             style="fill:#ba3125;fill-opacity:1;fill-rule:nonzero;stroke:none" /></g><g
           transform="translate(18.2949,18.042)"
           id="g76"><path
             d="M 0,0 C 1.935,0 1.935,3 0,3 -1.935,3 -1.935,0 0,0"
             inkscape:connector-curvature="0"
             id="path78"
             style="fill:#ba3125;fill-opacity:1;fill-rule:nonzero;stroke:none" /></g><g
           transform="translate(18.2949,12.4258)"
           id="g80"><path
             d="M 0,0 C 1.935,0 1.935,3 0,3 -1.935,3 -1.935,0 0,0"
             inkscape:connector-curvature="0"
             id="path82"
             style="fill:#ba3125;fill-opacity:1;fill-rule:nonzero;stroke:none" /></g><g
           transform="translate(16.1484,23.6553)"
           id="g84"><path
             d="M 0,0 C 1.935,0 1.935,3 0,3 -1.935,3 -1.935,0 0,0"
             inkscape:connector-curvature="0"
             id="path86"
             style="fill:#737577;fill-opacity:1;fill-rule:nonzero;stroke:none" /></g><g
           transform="translate(22.7539,22.583)"
           id="g88"><path
             d="M 0,0 C 1.935,0 1.935,3 0,3 -1.935,3 -1.935,0 0,0"
             inkscape:connector-curvature="0"
             id="path90"
             style="fill:#737577;fill-opacity:1;fill-rule:nonzero;stroke:none" /></g><g
           transform="translate(22.7539,16.2246)"
           id="g92"><path
             d="M 0,0 C 1.935,0 1.935,3 0,3 -1.935,3 -1.935,0 0,0"
             inkscape:connector-curvature="0"
             id="path94"
             style="fill:#ba3125;fill-opacity:1;fill-rule:nonzero;stroke:none" /></g></g></g></g></svg>