<?xml version="1.0" encoding="UTF-8" standalone="no"?>
<!-- Created with Inkscape (http://www.inkscape.org/) -->

<svg
   xmlns:dc="http://purl.org/dc/elements/1.1/"
   xmlns:cc="http://creativecommons.org/ns#"
   xmlns:rdf="http://www.w3.org/1999/02/22-rdf-syntax-ns#"
   xmlns:svg="http://www.w3.org/2000/svg"
   xmlns="http://www.w3.org/2000/svg"
   xmlns:inkscape="http://www.inkscape.org/namespaces/inkscape"
   version="1.1"
   width="37.5"
   height="37.5"
   id="svg2"
   xml:space="preserve"><metadata
     id="metadata8"><rdf:RDF><cc:Work
         rdf:about=""><dc:format>image/svg+xml</dc:format><dc:type
           rdf:resource="http://purl.org/dc/dcmitype/StillImage" /></cc:Work></rdf:RDF></metadata><defs
     id="defs6"><clipPath
       id="clipPath16"><path
         d="M 0,30 30,30 30,0 0,0 0,30 z"
         inkscape:connector-curvature="0"
         id="path18" /></clipPath></defs><g
     transform="matrix(1.25,0,0,-1.25,0,37.5)"
     id="g10"><g
       id="g12"><g
         clip-path="url(#clipPath16)"
         id="g14"><g
           transform="translate(26.0625,15)"
           id="g20"><path
             d="m 0,0 c 0,-6.11 -4.953,-11.063 -11.063,-11.063 -6.109,0 -11.062,4.953 -11.062,11.063 0,6.11 4.953,11.063 11.062,11.063 C -4.953,11.063 0,6.11 0,0"
             inkscape:connector-curvature="0"
             id="path22"
             style="fill:#ba3125;fill-opacity:1;fill-rule:nonzero;stroke:none" /></g><g
           transform="translate(26.0625,15)"
           id="g24"><path
             d="m 0,0 c 0,-6.11 -4.953,-11.063 -11.063,-11.063 -6.109,0 -11.062,4.953 -11.062,11.063 0,6.11 4.953,11.063 11.062,11.063 C -4.953,11.063 0,6.11 0,0 z"
             inkscape:connector-curvature="0"
             id="path26"
             style="fill:none;stroke:#000000;stroke-width:1;stroke-linecap:butt;stroke-linejoin:miter;stroke-miterlimit:4;stroke-opacity:1;stroke-dasharray:none" /></g><g
           transform="translate(-9.5068,21.0137)"
           id="g28"><path
             d="m 0,0 c -0.041,0.086 -0.083,0.173 -0.127,0.259 1.97,-0.698 3.83,-1.93 5.33,-3.564 4.15,-4.548 4.369,-10.882 0.48,-14.13 -1.48,-1.241 -3.39,-1.891 -5.5,-1.891 -3.26,0 -6.66,1.586 -9.09,4.251 -0.82,0.908 -1.5,1.882 -2.03,2.914 -0.42,0.822 -0.74,1.672 -0.95,2.541 -0.16,0.66 -0.26,1.328 -0.29,1.997 -0.12,2.704 0.87,5.082 2.79,6.678 1.48,1.242 3.38,1.892 5.49,1.892 0.35,0 0.71,-0.019 1.07,-0.058 0.51,-0.697 0.92,-1.433 1.23,-2.168 -0.76,0.21 -1.54,0.315 -2.3,0.315 -1.62,0 -3.07,-0.488 -4.18,-1.424 -1.45,-1.203 -2.19,-3.038 -2.1,-5.158 0.05,-1.033 0.29,-2.074 0.71,-3.077 0.31,-0.755 0.72,-1.481 1.23,-2.169 0.25,-0.353 0.53,-0.687 0.83,-1.022 2.06,-2.254 4.9,-3.602 7.59,-3.602 1.62,0 3.07,0.488 4.18,1.424 3.06,2.551 2.76,7.681 -0.67,11.436 -0.85,0.927 -1.83,1.701 -2.88,2.292 C 0.625,-1.501 0.356,-0.747 0,0"
             inkscape:connector-curvature="0"
             id="path30"
             style="fill:#aaacae;fill-opacity:1;fill-rule:nonzero;stroke:#000000;stroke-width:1;stroke-linecap:butt;stroke-linejoin:miter;stroke-miterlimit:4;stroke-opacity:1;stroke-dasharray:none" /></g><g
           transform="translate(35.3643,-7.0825)"
           id="g32"><path
             d="m 0,0 c 6.081,1.937 11.074,-2.006 11.292,3.379 0.218,5.385 2.929,2.96 7.002,0 4.072,-2.959 7.328,-17.373 3.854,-20.914 -3.473,-3.54 -10.209,-5.506 -12.704,-1.109 -2.495,4.397 -1.411,6.299 -2.929,9.646 -1.52,3.349 -4.559,0.446 -8.034,0 C -4.994,-9.442 -6.08,-1.937 0,0"
             inkscape:connector-curvature="0"
             id="path34"
             style="fill:#000000;fill-opacity:1;fill-rule:nonzero;stroke:none" /></g></g></g></g></svg>