<?xml version="1.0" encoding="UTF-8" standalone="no"?>
<!-- Created with Inkscape (http://www.inkscape.org/) -->

<svg
   xmlns:dc="http://purl.org/dc/elements/1.1/"
   xmlns:cc="http://creativecommons.org/ns#"
   xmlns:rdf="http://www.w3.org/1999/02/22-rdf-syntax-ns#"
   xmlns:svg="http://www.w3.org/2000/svg"
   xmlns="http://www.w3.org/2000/svg"
   xmlns:inkscape="http://www.inkscape.org/namespaces/inkscape"
   version="1.1"
   width="37.5"
   height="37.5"
   id="svg2"
   xml:space="preserve"><metadata
     id="metadata8"><rdf:RDF><cc:Work
         rdf:about=""><dc:format>image/svg+xml</dc:format><dc:type
           rdf:resource="http://purl.org/dc/dcmitype/StillImage" /></cc:Work></rdf:RDF></metadata><defs
     id="defs6"><clipPath
       id="clipPath16"><path
         d="M 0,30 30,30 30,0 0,0 0,30 z"
         inkscape:connector-curvature="0"
         id="path18" /></clipPath></defs><g
     transform="matrix(1.25,0,0,-1.25,0,37.5)"
     id="g10"><g
       id="g12"><g
         clip-path="url(#clipPath16)"
         id="g14"><g
           transform="translate(29,11.0313)"
           id="g20"><path
             d="m 0,0 c 0,-4.401 -3.736,-7.969 -8.344,-7.969 -4.608,0 -8.344,3.568 -8.344,7.969 0,4.401 3.736,7.969 8.344,7.969 C -3.736,7.969 0,4.401 0,0"
             inkscape:connector-curvature="0"
             id="path22"
             style="fill:#bec0c2;fill-opacity:1;fill-rule:nonzero;stroke:none" /></g><g
           transform="translate(4.8999,6.8682)"
           id="g24"><path
             d="M 0,0 C 2.902,0 2.902,4.5 0,4.5 -2.902,4.5 -2.902,0 0,0"
             inkscape:connector-curvature="0"
             id="path26"
             style="fill:#737577;fill-opacity:1;fill-rule:nonzero;stroke:none" /></g><g
           transform="translate(16.9375,9.25)"
           id="g28"><path
             d="M 0,0 C 3.869,0 3.869,6 0,6 -3.869,6 -3.869,0 0,0"
             inkscape:connector-curvature="0"
             id="path30"
             style="fill:#ba3125;fill-opacity:1;fill-rule:nonzero;stroke:none" /></g><g
           transform="translate(22.1064,4.6802)"
           id="g32"><path
             d="M 0,0 C 3.869,0 3.869,6 0,6 -3.869,6 -3.869,0 0,0"
             inkscape:connector-curvature="0"
             id="path34"
             style="fill:#ba3125;fill-opacity:1;fill-rule:nonzero;stroke:none" /></g><g
           transform="translate(23.854,11.3022)"
           id="g36"><path
             d="M 0,0 C 3.869,0 3.869,6 0,6 -3.869,6 -3.869,0 0,0"
             inkscape:connector-curvature="0"
             id="path38"
             style="fill:#ba3125;fill-opacity:1;fill-rule:nonzero;stroke:none" /></g><g
           transform="translate(23.1904,24.2212)"
           id="g40"><path
             d="M 0,0 C 2.902,0 2.902,4.5 0,4.5 -2.902,4.5 -2.902,0 0,0"
             inkscape:connector-curvature="0"
             id="path42"
             style="fill:#737577;fill-opacity:1;fill-rule:nonzero;stroke:none" /></g><g
           transform="translate(16.772,20.833)"
           id="g44"><path
             d="M 0,0 C 2.902,0 2.902,4.5 0,4.5 -2.902,4.5 -2.902,0 0,0"
             inkscape:connector-curvature="0"
             id="path46"
             style="fill:#737577;fill-opacity:1;fill-rule:nonzero;stroke:none" /></g><g
           transform="translate(9.4526,13.4902)"
           id="g48"><path
             d="M 0,0 C 2.902,0 2.902,4.5 0,4.5 -2.902,4.5 -2.902,0 0,0"
             inkscape:connector-curvature="0"
             id="path50"
             style="fill:#737577;fill-opacity:1;fill-rule:nonzero;stroke:none" /></g><g
           transform="translate(-3.7798,2.98)"
           id="g52"><path
             d="m 0,0 c -1.48,-1.3 -3.39,-1.98 -5.5,-1.98 -3.26,0 -6.66,1.66 -9.09,4.45 -0.82,0.95 -1.5,1.97 -2.03,3.05 -0.42,0.86 -0.74,1.75 -0.95,2.66 -0.16,0.69 -0.26,1.39 -0.29,2.09 -0.12,2.83 0.87,5.32 2.79,6.99 1.48,1.3 3.38,1.98 5.49,1.98 0.35,0 0.71,-0.02 1.07,-0.06 0.51,-0.73 0.92,-1.5 1.23,-2.27 -0.76,0.22 -1.54,0.33 -2.3,0.33 -1.62,0 -3.07,-0.51 -4.18,-1.49 -1.45,-1.26 -2.19,-3.18 -2.1,-5.4 0.05,-1.08 0.29,-2.17 0.71,-3.22 0.31,-0.79 0.72,-1.55 1.23,-2.27 0.25,-0.37 0.53,-0.72 0.83,-1.07 2.06,-2.36 4.9,-3.77 7.59,-3.77 1.62,0 3.07,0.51 4.18,1.49 3.06,2.67 2.76,8.04 -0.67,11.97 -0.85,0.97 -1.83,1.78 -2.88,2.4 -0.21,0.89 -0.52,1.77 -0.94,2.64 1.97,-0.73 3.83,-2.02 5.33,-3.73 C 3.67,10.03 3.89,3.4 0,0"
             inkscape:connector-curvature="0"
             id="path54"
             style="fill:#ba3125;fill-opacity:1;fill-rule:nonzero;stroke:none" /></g><g
           transform="translate(-3.7798,2.98)"
           id="g56"><path
             d="m 0,0 c -1.48,-1.3 -3.39,-1.98 -5.5,-1.98 -3.26,0 -6.66,1.66 -9.09,4.45 -0.82,0.95 -1.5,1.97 -2.03,3.05 -0.42,0.86 -0.74,1.75 -0.95,2.66 -0.16,0.69 -0.26,1.39 -0.29,2.09 -0.12,2.83 0.87,5.32 2.79,6.99 1.48,1.3 3.38,1.98 5.49,1.98 0.35,0 0.71,-0.02 1.07,-0.06 0.51,-0.73 0.92,-1.5 1.23,-2.27 -0.76,0.22 -1.54,0.33 -2.3,0.33 -1.62,0 -3.07,-0.51 -4.18,-1.49 -1.45,-1.26 -2.19,-3.18 -2.1,-5.4 0.05,-1.08 0.29,-2.17 0.71,-3.22 0.31,-0.79 0.72,-1.55 1.23,-2.27 0.25,-0.37 0.53,-0.72 0.83,-1.07 2.06,-2.36 4.9,-3.77 7.59,-3.77 1.62,0 3.07,0.51 4.18,1.49 3.06,2.67 2.76,8.04 -0.67,11.97 -0.85,0.97 -1.83,1.78 -2.88,2.4 -0.21,0.89 -0.52,1.77 -0.94,2.64 1.97,-0.73 3.83,-2.02 5.33,-3.73 C 3.67,10.03 3.89,3.4 0,0 z"
             inkscape:connector-curvature="0"
             id="path58"
             style="fill:none;stroke:#000000;stroke-width:1;stroke-linecap:butt;stroke-linejoin:miter;stroke-miterlimit:4;stroke-opacity:1;stroke-dasharray:none" /></g></g></g></g></svg>