<?xml version="1.0" encoding="UTF-8" standalone="no"?>
<!-- Created with Inkscape (http://www.inkscape.org/) -->

<svg
   xmlns:dc="http://purl.org/dc/elements/1.1/"
   xmlns:cc="http://creativecommons.org/ns#"
   xmlns:rdf="http://www.w3.org/1999/02/22-rdf-syntax-ns#"
   xmlns:svg="http://www.w3.org/2000/svg"
   xmlns="http://www.w3.org/2000/svg"
   xmlns:inkscape="http://www.inkscape.org/namespaces/inkscape"
   version="1.1"
   width="37.5"
   height="37.5"
   id="svg2"
   xml:space="preserve"><metadata
     id="metadata8"><rdf:RDF><cc:Work
         rdf:about=""><dc:format>image/svg+xml</dc:format><dc:type
           rdf:resource="http://purl.org/dc/dcmitype/StillImage" /></cc:Work></rdf:RDF></metadata><defs
     id="defs6"><clipPath
       id="clipPath16"><path
         d="M 0,30 30,30 30,0 0,0 0,30 z"
         inkscape:connector-curvature="0"
         id="path18" /></clipPath></defs><g
     transform="matrix(1.25,0,0,-1.25,0,37.5)"
     id="g10"><g
       id="g12"><g
         clip-path="url(#clipPath16)"
         id="g14"><g
           transform="translate(18.8701,9.7598)"
           id="g20"><path
             d="m 0,0 c -1.49,-1.3 -3.39,-1.98 -5.5,-1.98 -0.35,0 -0.71,0.02 -1.07,0.06 -0.51,0.72 -0.92,1.48 -1.23,2.27 0.76,-0.22 1.54,-0.33 2.3,-0.33 1.62,0 3.07,0.51 4.18,1.49 2.25,1.96 2.68,5.38 1.39,8.62 -0.31,0.77 -0.72,1.54 -1.23,2.27 -0.25,0.37 -0.53,0.72 -0.83,1.07 -2.06,2.36 -4.9,3.77 -7.59,3.77 -1.62,0 -3.07,-0.51 -4.18,-1.49 -1.45,-1.26 -2.2,-3.18 -2.1,-5.4 0.1,-2.3 1.08,-4.63 2.77,-6.56 0.84,-0.97 1.82,-1.77 2.87,-2.39 0.21,-0.91 0.53,-1.8 0.95,-2.66 -1.97,0.73 -3.83,2.02 -5.33,3.73 -1.98,2.27 -3.14,5.04 -3.26,7.8 -0.12,2.83 0.87,5.32 2.78,6.99 1.49,1.3 3.39,1.98 5.5,1.98 3.26,0 6.66,-1.66 9.09,-4.45 C 0.34,13.84 1.02,12.81 1.54,11.74 1.96,10.87 2.27,9.99 2.48,9.1 3.29,5.63 2.48,2.16 0,0"
             inkscape:connector-curvature="0"
             id="path22"
             style="fill:#ba3125;fill-opacity:1;fill-rule:nonzero;stroke:none" /></g><g
           transform="translate(18.8701,9.7598)"
           id="g24"><path
             d="m 0,0 c -1.49,-1.3 -3.39,-1.98 -5.5,-1.98 -0.35,0 -0.71,0.02 -1.07,0.06 -0.51,0.72 -0.92,1.48 -1.23,2.27 0.76,-0.22 1.54,-0.33 2.3,-0.33 1.62,0 3.07,0.51 4.18,1.49 2.25,1.96 2.68,5.38 1.39,8.62 -0.31,0.77 -0.72,1.54 -1.23,2.27 -0.25,0.37 -0.53,0.72 -0.83,1.07 -2.06,2.36 -4.9,3.77 -7.59,3.77 -1.62,0 -3.07,-0.51 -4.18,-1.49 -1.45,-1.26 -2.2,-3.18 -2.1,-5.4 0.1,-2.3 1.08,-4.63 2.77,-6.56 0.84,-0.97 1.82,-1.77 2.87,-2.39 0.21,-0.91 0.53,-1.8 0.95,-2.66 -1.97,0.73 -3.83,2.02 -5.33,3.73 -1.98,2.27 -3.14,5.04 -3.26,7.8 -0.12,2.83 0.87,5.32 2.78,6.99 1.49,1.3 3.39,1.98 5.5,1.98 3.26,0 6.66,-1.66 9.09,-4.45 C 0.34,13.84 1.02,12.81 1.54,11.74 1.96,10.87 2.27,9.99 2.48,9.1 3.29,5.63 2.48,2.16 0,0 z"
             inkscape:connector-curvature="0"
             id="path26"
             style="fill:none;stroke:#000000;stroke-width:1;stroke-linecap:butt;stroke-linejoin:miter;stroke-miterlimit:4;stroke-opacity:1;stroke-dasharray:none" /></g><g
           transform="translate(26.2202,2.98)"
           id="g28"><path
             d="m 0,0 c -1.48,-1.3 -3.39,-1.98 -5.5,-1.98 -3.26,0 -6.66,1.66 -9.09,4.45 -0.82,0.95 -1.5,1.97 -2.03,3.05 -0.42,0.86 -0.74,1.75 -0.95,2.66 -0.16,0.69 -0.26,1.39 -0.29,2.09 -0.12,2.83 0.87,5.32 2.79,6.99 1.48,1.3 3.38,1.98 5.49,1.98 0.35,0 0.71,-0.02 1.07,-0.06 0.51,-0.73 0.92,-1.5 1.23,-2.27 -0.76,0.22 -1.54,0.33 -2.3,0.33 -1.62,0 -3.07,-0.51 -4.18,-1.49 -1.45,-1.26 -2.19,-3.18 -2.1,-5.4 0.05,-1.08 0.29,-2.17 0.71,-3.22 0.31,-0.79 0.72,-1.55 1.23,-2.27 0.25,-0.37 0.53,-0.72 0.83,-1.07 2.06,-2.36 4.9,-3.77 7.59,-3.77 1.62,0 3.07,0.51 4.18,1.49 3.06,2.67 2.76,8.04 -0.67,11.97 -0.85,0.97 -1.83,1.78 -2.88,2.4 -0.21,0.89 -0.52,1.77 -0.94,2.64 1.97,-0.73 3.83,-2.02 5.33,-3.73 C 3.67,10.03 3.89,3.4 0,0"
             inkscape:connector-curvature="0"
             id="path30"
             style="fill:#ba3125;fill-opacity:1;fill-rule:nonzero;stroke:none" /></g><g
           transform="translate(26.2202,2.98)"
           id="g32"><path
             d="m 0,0 c -1.48,-1.3 -3.39,-1.98 -5.5,-1.98 -3.26,0 -6.66,1.66 -9.09,4.45 -0.82,0.95 -1.5,1.97 -2.03,3.05 -0.42,0.86 -0.74,1.75 -0.95,2.66 -0.16,0.69 -0.26,1.39 -0.29,2.09 -0.12,2.83 0.87,5.32 2.79,6.99 1.48,1.3 3.38,1.98 5.49,1.98 0.35,0 0.71,-0.02 1.07,-0.06 0.51,-0.73 0.92,-1.5 1.23,-2.27 -0.76,0.22 -1.54,0.33 -2.3,0.33 -1.62,0 -3.07,-0.51 -4.18,-1.49 -1.45,-1.26 -2.19,-3.18 -2.1,-5.4 0.05,-1.08 0.29,-2.17 0.71,-3.22 0.31,-0.79 0.72,-1.55 1.23,-2.27 0.25,-0.37 0.53,-0.72 0.83,-1.07 2.06,-2.36 4.9,-3.77 7.59,-3.77 1.62,0 3.07,0.51 4.18,1.49 3.06,2.67 2.76,8.04 -0.67,11.97 -0.85,0.97 -1.83,1.78 -2.88,2.4 -0.21,0.89 -0.52,1.77 -0.94,2.64 1.97,-0.73 3.83,-2.02 5.33,-3.73 C 3.67,10.03 3.89,3.4 0,0 z"
             inkscape:connector-curvature="0"
             id="path34"
             style="fill:none;stroke:#000000;stroke-width:1;stroke-linecap:butt;stroke-linejoin:miter;stroke-miterlimit:4;stroke-opacity:1;stroke-dasharray:none" /></g></g></g></g></svg>