<?xml version="1.0" encoding="UTF-8" standalone="no"?>
<!-- Created with Inkscape (http://www.inkscape.org/) -->

<svg
   xmlns:dc="http://purl.org/dc/elements/1.1/"
   xmlns:cc="http://creativecommons.org/ns#"
   xmlns:rdf="http://www.w3.org/1999/02/22-rdf-syntax-ns#"
   xmlns:svg="http://www.w3.org/2000/svg"
   xmlns="http://www.w3.org/2000/svg"
   xmlns:inkscape="http://www.inkscape.org/namespaces/inkscape"
   version="1.1"
   width="37.5"
   height="37.5"
   id="svg2"
   xml:space="preserve"><metadata
     id="metadata8"><rdf:RDF><cc:Work
         rdf:about=""><dc:format>image/svg+xml</dc:format><dc:type
           rdf:resource="http://purl.org/dc/dcmitype/StillImage" /></cc:Work></rdf:RDF></metadata><defs
     id="defs6"><clipPath
       id="clipPath16"><path
         d="M 0,30 30,30 30,0 0,0 0,30 z"
         inkscape:connector-curvature="0"
         id="path18" /></clipPath><clipPath
       id="clipPath24"><path
         d="m 5.92334,18.3984 21.38866,0 0,-15.6235 -21.38866,0 0,15.6235 z"
         inkscape:connector-curvature="0"
         id="path26" /></clipPath><clipPath
       id="clipPath40"><path
         d="m 5.42041,18.8999 22.39209,0 0,-16.62744 -22.39209,0 0,16.62744 z"
         inkscape:connector-curvature="0"
         id="path42" /></clipPath><clipPath
       id="clipPath56"><path
         d="m 8.74023,15.0342 7.68997,0 0,-1.1924 -7.68997,0 0,1.1924 z"
         inkscape:connector-curvature="0"
         id="path58" /></clipPath><clipPath
       id="clipPath72"><path
         d="m 8.24023,15.5366 8.69877,0 0,-2.1992 -8.69877,0 0,2.1992 z"
         inkscape:connector-curvature="0"
         id="path74" /></clipPath><clipPath
       id="clipPath88"><path
         d="m 8.74023,12.3091 7.68997,0 0,-1.1914 -7.68997,0 0,1.1914 z"
         inkscape:connector-curvature="0"
         id="path90" /></clipPath><clipPath
       id="clipPath104"><path
         d="m 8.24023,12.8115 8.69877,0 0,-2.1982 -8.69877,0 0,2.1982 z"
         inkscape:connector-curvature="0"
         id="path106" /></clipPath><clipPath
       id="clipPath120"><path
         d="m 8.74023,9.50781 7.68997,0 0,-1.19238 -7.68997,0 0,1.19238 z"
         inkscape:connector-curvature="0"
         id="path122" /></clipPath><clipPath
       id="clipPath136"><path
         d="m 8.24023,10.0103 8.69877,0 0,-2.19926 -8.69877,0 0,2.19926 z"
         inkscape:connector-curvature="0"
         id="path138" /></clipPath><linearGradient
       x1="0"
       y1="0"
       x2="1"
       y2="0"
       id="linearGradient160"
       gradientUnits="userSpaceOnUse"
       gradientTransform="matrix(2.2347565,-3.1164093,10.191421,6.5961761,21.875488,23.890625)"
       spreadMethod="pad"><stop
         id="stop162"
         style="stop-color:#fcdeb4;stop-opacity:1"
         offset="0" /><stop
         id="stop164"
         style="stop-color:#efab35;stop-opacity:1"
         offset="1" /></linearGradient><clipPath
       id="clipPath172"><path
         d="M 0,30 30,30 30,0 0,0 0,30 z"
         inkscape:connector-curvature="0"
         id="path174" /></clipPath><clipPath
       id="clipPath180"><path
         d="m 15.9497,27.7251 13.8965,0 0,-11.1001 -13.8965,0 0,11.1001 z"
         inkscape:connector-curvature="0"
         id="path182" /></clipPath><clipPath
       id="clipPath196"><path
         d="m 0.154297,23.4883 19.418003,0 0,-19.58547 -19.418003,0 0,19.58547 z"
         inkscape:connector-curvature="0"
         id="path198" /></clipPath><clipPath
       id="clipPath212"><path
         d="m 0.736816,22.8257 18.198684,0 0,-18.19826 -18.198684,0 0,18.19826 z"
         inkscape:connector-curvature="0"
         id="path214" /></clipPath><clipPath
       id="clipPath228"><path
         d="m 2.126,13.683 c 0,-4.333 3.512,-7.845 7.843,-7.845 l 0,0 c 4.333,0 7.845,3.512 7.845,7.845 l 0,0 c 0,4.331 -3.512,7.843 -7.845,7.843 l 0,0 c -4.331,0 -7.843,-3.512 -7.843,-7.843"
         inkscape:connector-curvature="0"
         id="path230" /></clipPath><radialGradient
       cx="0"
       cy="0"
       r="1"
       fx="0"
       fy="0"
       id="radialGradient240"
       gradientUnits="userSpaceOnUse"
       gradientTransform="matrix(10.217026,0,0,10.647156,7.5004883,16.9375)"
       spreadMethod="pad"><stop
         id="stop242"
         style="stop-color:#ffffff;stop-opacity:0.43137255"
         offset="0" /><stop
         id="stop244"
         style="stop-color:#ffffff;stop-opacity:0.43527886"
         offset="1" /></radialGradient><mask
       id="mask246"><g
         id="g248"><g
           id="g250"><g
             id="g252"><g
               id="g254"><path
                 d="m -32767,32767 65534,0 0,-65534 -65534,0 0,65534 z"
                 inkscape:connector-curvature="0"
                 id="path256"
                 style="fill:url(#radialGradient240);stroke:none" /></g></g></g></g></mask><radialGradient
       cx="0"
       cy="0"
       r="1"
       fx="0"
       fy="0"
       id="radialGradient262"
       gradientUnits="userSpaceOnUse"
       gradientTransform="matrix(10.217026,0,0,10.647156,7.5004883,16.9375)"
       spreadMethod="pad"><stop
         id="stop264"
         style="stop-color:#c9eaf6;stop-opacity:1"
         offset="0" /><stop
         id="stop266"
         style="stop-color:#4ba1a9;stop-opacity:1"
         offset="1" /></radialGradient><clipPath
       id="clipPath274"><path
         d="M 0,30 30,30 30,0 0,0 0,30 z"
         inkscape:connector-curvature="0"
         id="path276" /></clipPath><clipPath
       id="clipPath286"><path
         d="m 1.35889,22.2036 17.13231,0 0,-17.13182 -17.13231,0 0,17.13182 z"
         inkscape:connector-curvature="0"
         id="path288" /></clipPath></defs><g
     transform="matrix(1.25,0,0,-1.25,0,37.5)"
     id="g10"><g
       id="g12"><g
         clip-path="url(#clipPath16)"
         id="g14"><g
           id="g20"><g
             id="g22" /><g
             id="g28"><g
               clip-path="url(#clipPath24)"
               id="g30"
               style="opacity:0.99000501"><g
                 transform="translate(6.0151,18.3354)"
                 id="g32"><path
                   d="M 0,0 21.297,0.063 21.283,-15.561 -0.092,-15.463 0,0 z"
                   inkscape:connector-curvature="0"
                   id="path34"
                   style="fill:#fffefe;fill-opacity:1;fill-rule:nonzero;stroke:none" /></g></g></g></g><g
           id="g36"><g
             id="g38" /><g
             id="g44"><g
               clip-path="url(#clipPath40)"
               id="g46"
               style="opacity:0.97999603"><g
                 transform="translate(6.0151,18.3354)"
                 id="g48"><path
                   d="M 0,0 21.297,0.063 21.283,-15.561 -0.092,-15.463 0,0 z"
                   inkscape:connector-curvature="0"
                   id="path50"
                   style="fill:none;stroke:#3ea9bb;stroke-width:1;stroke-linecap:butt;stroke-linejoin:miter;stroke-miterlimit:4;stroke-opacity:1;stroke-dasharray:none" /></g></g></g></g><g
           id="g52"><g
             id="g54" /><g
             id="g60"><g
               clip-path="url(#clipPath56)"
               id="g62"
               style="opacity:0.99215698"><g
                 transform="translate(8.7402,14.998)"
                 id="g64"><path
                   d="M 0,0 7.67,0.036 7.69,-1.09 0,-1.156 0,0 z"
                   inkscape:connector-curvature="0"
                   id="path66"
                   style="fill:#2d6683;fill-opacity:1;fill-rule:nonzero;stroke:none" /></g></g></g></g><g
           id="g68"><g
             id="g70" /><g
             id="g76"><g
               clip-path="url(#clipPath72)"
               id="g78"
               style="opacity:0.99000501"><g
                 transform="translate(8.7402,14.998)"
                 id="g80"><path
                   d="M 0,0 7.67,0.036 7.69,-1.09 0,-1.156 0,0 z"
                   inkscape:connector-curvature="0"
                   id="path82"
                   style="fill:none;stroke:#2d6683;stroke-width:1;stroke-linecap:butt;stroke-linejoin:miter;stroke-miterlimit:4;stroke-opacity:1;stroke-dasharray:none" /></g></g></g></g><g
           id="g84"><g
             id="g86" /><g
             id="g92"><g
               clip-path="url(#clipPath88)"
               id="g94"
               style="opacity:0.99215698"><g
                 transform="translate(8.7402,12.2744)"
                 id="g96"><path
                   d="M 0,0 7.67,0.035 7.69,-1.09 0,-1.157 0,0 z"
                   inkscape:connector-curvature="0"
                   id="path98"
                   style="fill:#2d6683;fill-opacity:1;fill-rule:nonzero;stroke:none" /></g></g></g></g><g
           id="g100"><g
             id="g102" /><g
             id="g108"><g
               clip-path="url(#clipPath104)"
               id="g110"
               style="opacity:0.99000501"><g
                 transform="translate(8.7402,12.2744)"
                 id="g112"><path
                   d="M 0,0 7.67,0.035 7.69,-1.09 0,-1.157 0,0 z"
                   inkscape:connector-curvature="0"
                   id="path114"
                   style="fill:none;stroke:#2d6683;stroke-width:1;stroke-linecap:butt;stroke-linejoin:miter;stroke-miterlimit:4;stroke-opacity:1;stroke-dasharray:none" /></g></g></g></g><g
           id="g116"><g
             id="g118" /><g
             id="g124"><g
               clip-path="url(#clipPath120)"
               id="g126"
               style="opacity:0.99215698"><g
                 transform="translate(8.7402,9.4722)"
                 id="g128"><path
                   d="M 0,0 7.67,0.036 7.69,-1.09 0,-1.157 0,0 z"
                   inkscape:connector-curvature="0"
                   id="path130"
                   style="fill:#2d6683;fill-opacity:1;fill-rule:nonzero;stroke:none" /></g></g></g></g><g
           id="g132"><g
             id="g134" /><g
             id="g140"><g
               clip-path="url(#clipPath136)"
               id="g142"
               style="opacity:0.99000501"><g
                 transform="translate(8.7402,9.4722)"
                 id="g144"><path
                   d="M 0,0 7.67,0.036 7.69,-1.09 0,-1.157 0,0 z"
                   inkscape:connector-curvature="0"
                   id="path146"
                   style="fill:none;stroke:#2d6683;stroke-width:1;stroke-linecap:butt;stroke-linejoin:miter;stroke-miterlimit:4;stroke-opacity:1;stroke-dasharray:none" /></g></g></g></g></g></g><g
       id="g148"><g
         id="g150"><g
           id="g156"><g
             id="g158"><path
               d="m 26.807,27.101 -10.358,-6.524 2.209,-3.452 10.232,6.547 c 0.396,0.259 0.558,0.598 0.391,0.954 l 0,0 c -0.51,0.796 -1.019,1.593 -1.528,2.389 l 0,0 c -0.154,0.138 -0.34,0.21 -0.529,0.21 l 0,0 c -0.142,0 -0.284,-0.041 -0.417,-0.124"
               inkscape:connector-curvature="0"
               id="path166"
               style="fill:url(#linearGradient160);stroke:none" /></g></g></g></g><g
       id="g168"><g
         clip-path="url(#clipPath172)"
         id="g170"><g
           id="g176"><g
             id="g178" /><g
             id="g184"><g
               clip-path="url(#clipPath180)"
               id="g186"
               style="opacity:0.99215698"><g
                 transform="translate(18.6582,17.125)"
                 id="g188"><path
                   d="m 0,0 10.231,6.546 c 0.396,0.26 0.559,0.599 0.392,0.955 -0.51,0.796 -1.019,1.593 -1.528,2.39 -0.27,0.24 -0.637,0.28 -0.946,0.085 L -2.208,3.452 0,0 z"
                   inkscape:connector-curvature="0"
                   id="path190"
                   style="fill:none;stroke:#d0673a;stroke-width:1;stroke-linecap:butt;stroke-linejoin:round;stroke-miterlimit:4;stroke-opacity:1;stroke-dasharray:none" /></g></g></g></g><g
           id="g192"><g
             id="g194" /><g
             id="g200"><g
               clip-path="url(#clipPath196)"
               id="g202"
               style="opacity:0.70196497"><g
                 transform="translate(0.6543,13.6963)"
                 id="g204"><path
                   d="m 0,0 c 0,-5.125 4.131,-9.293 9.209,-9.293 5.078,0 9.209,4.168 9.209,9.293 0,5.124 -4.131,9.292 -9.209,9.292 C 4.131,9.292 0,5.124 0,0 z"
                   inkscape:connector-curvature="0"
                   id="path206"
                   style="fill:none;stroke:#a8caeb;stroke-width:1;stroke-linecap:butt;stroke-linejoin:miter;stroke-miterlimit:4;stroke-opacity:1;stroke-dasharray:none" /></g></g></g></g><g
           id="g208"><g
             id="g210" /><g
             id="g216"><g
               clip-path="url(#clipPath212)"
               id="g218"
               style="opacity:0.98823499"><g
                 transform="translate(18.4355,13.7271)"
                 id="g220"><path
                   d="m 0,0 c 0,-4.75 -3.85,-8.6 -8.599,-8.6 -4.75,0 -8.6,3.85 -8.6,8.6 0,4.749 3.85,8.599 8.6,8.599 C -3.85,8.599 0,4.749 0,0 z"
                   inkscape:connector-curvature="0"
                   id="path222"
                   style="fill:none;stroke:#346d77;stroke-width:1;stroke-linecap:butt;stroke-linejoin:miter;stroke-miterlimit:4;stroke-opacity:1;stroke-dasharray:none" /></g></g></g></g></g></g><g
       id="g224"><g
         clip-path="url(#clipPath228)"
         id="g226"><g
           id="g232"><g
             id="g234" /><g
             mask="url(#mask246)"
             id="g258"><g
               id="g260"><path
                 d="m 2.126,13.683 c 0,-4.333 3.512,-7.845 7.843,-7.845 l 0,0 c 4.333,0 7.845,3.512 7.845,7.845 l 0,0 c 0,4.331 -3.512,7.843 -7.845,7.843 l 0,0 c -4.331,0 -7.843,-3.512 -7.843,-7.843"
                 inkscape:connector-curvature="0"
                 id="path268"
                 style="fill:url(#radialGradient262);stroke:none" /></g></g></g></g></g><g
       id="g270"><g
         clip-path="url(#clipPath274)"
         id="g272"><g
           transform="translate(16.6104,18.7319)"
           id="g278"><path
             d="M 0,0 0.089,-0.177"
             inkscape:connector-curvature="0"
             id="path280"
             style="fill:none;stroke:#292929;stroke-width:1;stroke-linecap:butt;stroke-linejoin:miter;stroke-miterlimit:4;stroke-opacity:1;stroke-dasharray:none" /></g><g
           id="g282"><g
             id="g284" /><g
             id="g290"><g
               clip-path="url(#clipPath286)"
               id="g292"
               style="opacity:0.98823499"><g
                 transform="translate(17.9912,13.6382)"
                 id="g294"><path
                   d="m 0,0 c 0,-4.455 -3.611,-8.066 -8.066,-8.066 -4.455,0 -8.066,3.611 -8.066,8.066 0,4.455 3.611,8.065 8.066,8.065 C -3.611,8.065 0,4.455 0,0 z"
                   inkscape:connector-curvature="0"
                   id="path296"
                   style="fill:none;stroke:#292929;stroke-width:1;stroke-linecap:butt;stroke-linejoin:miter;stroke-miterlimit:4;stroke-opacity:1;stroke-dasharray:none" /></g></g></g></g></g></g></g></svg>