<?xml version="1.0" encoding="UTF-8" standalone="no"?>
<!-- Created with Inkscape (http://www.inkscape.org/) -->

<svg
   xmlns:dc="http://purl.org/dc/elements/1.1/"
   xmlns:cc="http://creativecommons.org/ns#"
   xmlns:rdf="http://www.w3.org/1999/02/22-rdf-syntax-ns#"
   xmlns:svg="http://www.w3.org/2000/svg"
   xmlns="http://www.w3.org/2000/svg"
   xmlns:inkscape="http://www.inkscape.org/namespaces/inkscape"
   version="1.1"
   width="37.5"
   height="37.5"
   id="svg2"
   xml:space="preserve"><metadata
     id="metadata8"><rdf:RDF><cc:Work
         rdf:about=""><dc:format>image/svg+xml</dc:format><dc:type
           rdf:resource="http://purl.org/dc/dcmitype/StillImage" /></cc:Work></rdf:RDF></metadata><defs
     id="defs6"><clipPath
       id="clipPath16"><path
         d="M 0,30 30,30 30,0 0,0 0,30 z"
         inkscape:connector-curvature="0"
         id="path18" /></clipPath></defs><g
     transform="matrix(1.25,0,0,-1.25,0,37.5)"
     id="g10"><g
       id="g12"><g
         clip-path="url(#clipPath16)"
         id="g14"><g
           transform="translate(20.666,7.4229)"
           id="g20"><path
             d="M 0,0 C 0.33,1.211 0.403,2.346 0.304,3.551 0.186,4.73 -0.092,5.91 -0.609,6.977 -1.125,8.042 -1.93,8.955 -2.838,9.589 -3.749,10.233 -4.72,10.585 -5.72,10.661 l 0,1.75 c 1.505,0.082 2.937,-0.65 3.902,-1.621 C -0.829,9.81 -0.184,8.643 0.424,7.499 1.028,6.347 1.535,5.148 1.931,3.897 2.354,2.673 2.659,1.321 3,0.048 L 0,0 z"
             inkscape:connector-curvature="0"
             id="path22"
             style="fill:#317abe;fill-opacity:1;fill-rule:nonzero;stroke:none" /></g><g
           transform="translate(6.3857,7.4707)"
           id="g24"><path
             d="m 0,0 c 0.341,1.273 0.646,2.625 1.069,3.85 0.396,1.25 0.903,2.45 1.508,3.601 0.607,1.144 1.252,2.311 2.242,3.291 0.965,0.971 2.398,1.703 3.902,1.621 l 0,-1.75 C 7.721,10.538 6.75,10.186 5.839,9.541 4.931,8.908 4.125,7.995 3.61,6.93 3.092,5.863 2.815,4.682 2.696,3.504 2.597,2.298 2.67,1.163 3,-0.048 L 0,0 z"
             inkscape:connector-curvature="0"
             id="path26"
             style="fill:#317abe;fill-opacity:1;fill-rule:nonzero;stroke:none" /></g><g
           transform="translate(24.6768,7.3203)"
           id="g28"><path
             d="m 0,0 c 0.334,1.736 0.323,3.49 0.06,5.232 -0.286,1.729 -0.821,3.439 -1.681,4.975 -0.859,1.533 -2.1,2.839 -3.518,3.753 -1.408,0.942 -3.001,1.428 -4.611,1.511 l 0,1.75 c 2.047,0.098 4.034,-0.767 5.543,-1.992 1.521,-1.25 2.63,-2.83 3.589,-4.444 C 0.338,9.162 1.108,7.432 1.676,5.622 2.271,3.823 2.661,1.931 3,0.026 L 0,0 z"
             inkscape:connector-curvature="0"
             id="path30"
             style="fill:#f04d44;fill-opacity:1;fill-rule:nonzero;stroke:none" /></g><g
           transform="translate(2.4268,7.3467)"
           id="g32"><path
             d="m 0,0 c 0.339,1.905 0.729,3.796 1.324,5.596 0.568,1.809 1.338,3.539 2.294,5.163 0.959,1.614 2.068,3.194 3.589,4.444 1.509,1.225 3.496,2.09 5.543,1.992 l 0,-1.75 C 11.14,15.362 9.547,14.876 8.139,13.934 6.721,13.02 5.48,11.714 4.621,10.18 3.761,8.645 3.226,6.935 2.94,5.206 2.677,3.464 2.666,1.71 3,-0.026 L 0,0 z"
             inkscape:connector-curvature="0"
             id="path34"
             style="fill:#f04d44;fill-opacity:1;fill-rule:nonzero;stroke:none" /></g></g></g></g></svg>