<?xml version="1.0" encoding="UTF-8" standalone="no"?>
<!-- Created with Inkscape (http://www.inkscape.org/) -->

<svg
   xmlns:dc="http://purl.org/dc/elements/1.1/"
   xmlns:cc="http://creativecommons.org/ns#"
   xmlns:rdf="http://www.w3.org/1999/02/22-rdf-syntax-ns#"
   xmlns:svg="http://www.w3.org/2000/svg"
   xmlns="http://www.w3.org/2000/svg"
   xmlns:inkscape="http://www.inkscape.org/namespaces/inkscape"
   version="1.1"
   width="37.5"
   height="37.5"
   id="svg2"
   xml:space="preserve"><metadata
     id="metadata8"><rdf:RDF><cc:Work
         rdf:about=""><dc:format>image/svg+xml</dc:format><dc:type
           rdf:resource="http://purl.org/dc/dcmitype/StillImage" /></cc:Work></rdf:RDF></metadata><defs
     id="defs6"><linearGradient
       x1="0"
       y1="0"
       x2="1"
       y2="0"
       id="linearGradient24"
       gradientUnits="userSpaceOnUse"
       gradientTransform="matrix(25.011719,0,0,-25.011719,2.4941406,14.670898)"
       spreadMethod="pad"><stop
         id="stop26"
         style="stop-color:#dfe2f2;stop-opacity:1"
         offset="0" /><stop
         id="stop28"
         style="stop-color:#00b0f0;stop-opacity:1"
         offset="0.907974" /><stop
         id="stop30"
         style="stop-color:#00b0f0;stop-opacity:1"
         offset="1" /></linearGradient><clipPath
       id="clipPath38"><path
         d="M 0,30 30,30 30,0 0,0 0,30 z"
         inkscape:connector-curvature="0"
         id="path40" /></clipPath></defs><g
     transform="matrix(1.25,0,0,-1.25,0,37.5)"
     id="g10"><g
       id="g12"><g
         id="g14"><g
           id="g20"><g
             id="g22"><path
               d="m 4.161,20.822 c 0,0 -1.667,-4.167 -1.667,-5.334 l 0,0 c 0,-1.165 0.667,-5.166 4.333,-5.5 l 0,0 c 3.667,-0.333 1.477,3.245 5.167,4.167 l 0,0 c 2,0.501 3.667,-2.167 5,-3.833 l 0,0 c 1.073,-1.34 4.667,-5.167 7.334,-4.666 l 0,0 c 2.666,0.499 3.973,5.791 2.666,12.332 l 0,0 c -0.333,1.667 -0.333,3 -1.833,3.667 l 0,0 c -1.429,0.634 -2.346,0.469 -3.327,0.303 l 0,0 c -0.8,-0.135 -1.643,-0.27 -2.839,0.03 l 0,0 c -1.557,0.39 -5.1,1.744 -8.51,1.744 l 0,0 c -2.432,0 -4.797,-0.69 -6.324,-2.91"
               inkscape:connector-curvature="0"
               id="path32"
               style="fill:url(#linearGradient24);stroke:none" /></g></g></g></g><g
       id="g34"><g
         clip-path="url(#clipPath38)"
         id="g36"><g
           transform="translate(4.1611,20.8223)"
           id="g42"><path
             d="M 0,0 C 3.667,5.333 12.167,1.833 14.833,1.166 17.5,0.5 18.407,1.985 21,0.833 c 1.5,-0.667 1.5,-2 1.833,-3.667 1.307,-6.541 0,-11.833 -2.666,-12.333 -2.667,-0.5 -6.262,3.327 -7.334,4.667 -1.333,1.666 -3,4.333 -5,3.833 -3.69,-0.923 -1.5,-4.5 -5.166,-4.167 C -1,-10.5 -1.667,-6.5 -1.667,-5.334 -1.667,-4.167 0,0 0,0 z"
             inkscape:connector-curvature="0"
             id="path44"
             style="fill:none;stroke:#3c4694;stroke-width:1;stroke-linecap:round;stroke-linejoin:round;stroke-miterlimit:10;stroke-opacity:1;stroke-dasharray:none" /></g><g
           transform="translate(18.7056,13.9258)"
           id="g46"><path
             d="M 0,0 z"
             inkscape:connector-curvature="0"
             id="path48"
             style="fill:#bcd6f0;fill-opacity:1;fill-rule:nonzero;stroke:none" /></g><g
           transform="translate(18.7056,13.9258)"
           id="g50"><path
             d="M 0,0 0,0 z"
             inkscape:connector-curvature="0"
             id="path52"
             style="fill:none;stroke:#3c4694;stroke-width:1;stroke-linecap:butt;stroke-linejoin:miter;stroke-miterlimit:10;stroke-opacity:1;stroke-dasharray:none" /></g><g
           transform="translate(5.6606,3.3447)"
           id="g54"><path
             d="M 0,0 C 1.935,0 1.935,3 0,3 -1.935,3 -1.935,0 0,0"
             inkscape:connector-curvature="0"
             id="path56"
             style="fill:#737577;fill-opacity:1;fill-rule:nonzero;stroke:none" /></g><g
           transform="translate(6.9814,12.5918)"
           id="g58"><path
             d="M 0,0 C 1.935,0 1.935,3 0,3 -1.935,3 -1.935,0 0,0"
             inkscape:connector-curvature="0"
             id="path60"
             style="fill:#ba3125;fill-opacity:1;fill-rule:nonzero;stroke:none" /></g><g
           transform="translate(12.2656,8.958)"
           id="g62"><path
             d="M 0,0 C 1.935,0 1.935,3 0,3 -1.935,3 -1.935,0 0,0"
             inkscape:connector-curvature="0"
             id="path64"
             style="fill:#737577;fill-opacity:1;fill-rule:nonzero;stroke:none" /></g><g
           transform="translate(12.7612,18.5361)"
           id="g66"><path
             d="M 0,0 C 1.935,0 1.935,3 0,3 -1.935,3 -1.935,0 0,0"
             inkscape:connector-curvature="0"
             id="path68"
             style="fill:#ba3125;fill-opacity:1;fill-rule:nonzero;stroke:none" /></g><g
           transform="translate(18.7056,18.042)"
           id="g70"><path
             d="M 0,0 C 1.935,0 1.935,3 0,3 -1.935,3 -1.935,0 0,0"
             inkscape:connector-curvature="0"
             id="path72"
             style="fill:#ba3125;fill-opacity:1;fill-rule:nonzero;stroke:none" /></g><g
           transform="translate(18.7056,12.4258)"
           id="g74"><path
             d="M 0,0 C 1.935,0 1.935,3 0,3 -1.935,3 -1.935,0 0,0"
             inkscape:connector-curvature="0"
             id="path76"
             style="fill:#ba3125;fill-opacity:1;fill-rule:nonzero;stroke:none" /></g><g
           transform="translate(16.5596,23.6553)"
           id="g78"><path
             d="M 0,0 C 1.935,0 1.935,3 0,3 -1.935,3 -1.935,0 0,0"
             inkscape:connector-curvature="0"
             id="path80"
             style="fill:#737577;fill-opacity:1;fill-rule:nonzero;stroke:none" /></g><g
           transform="translate(23.1646,22.583)"
           id="g82"><path
             d="M 0,0 C 1.935,0 1.935,3 0,3 -1.935,3 -1.935,0 0,0"
             inkscape:connector-curvature="0"
             id="path84"
             style="fill:#737577;fill-opacity:1;fill-rule:nonzero;stroke:none" /></g><g
           transform="translate(23.1646,16.2246)"
           id="g86"><path
             d="M 0,0 C 1.935,0 1.935,3 0,3 -1.935,3 -1.935,0 0,0"
             inkscape:connector-curvature="0"
             id="path88"
             style="fill:#ba3125;fill-opacity:1;fill-rule:nonzero;stroke:none" /></g></g></g></g></svg>