<?xml version="1.0" encoding="UTF-8" standalone="no"?>
<!-- Created with Inkscape (http://www.inkscape.org/) -->

<svg
   xmlns:dc="http://purl.org/dc/elements/1.1/"
   xmlns:cc="http://creativecommons.org/ns#"
   xmlns:rdf="http://www.w3.org/1999/02/22-rdf-syntax-ns#"
   xmlns:svg="http://www.w3.org/2000/svg"
   xmlns="http://www.w3.org/2000/svg"
   xmlns:inkscape="http://www.inkscape.org/namespaces/inkscape"
   version="1.1"
   width="37.5"
   height="37.5"
   id="svg2"
   xml:space="preserve"><metadata
     id="metadata8"><rdf:RDF><cc:Work
         rdf:about=""><dc:format>image/svg+xml</dc:format><dc:type
           rdf:resource="http://purl.org/dc/dcmitype/StillImage" /></cc:Work></rdf:RDF></metadata><defs
     id="defs6"><clipPath
       id="clipPath16"><path
         d="M 0,30 30,30 30,0 0,0 0,30 z"
         inkscape:connector-curvature="0"
         id="path18" /></clipPath><clipPath
       id="clipPath28"><path
         d="m 3.45312,24.6904 23.71678,0 0,-21.88669 -23.71678,0 0,21.88669 z"
         inkscape:connector-curvature="0"
         id="path30" /></clipPath><clipPath
       id="clipPath44"><path
         d="m 2.12109,25.1904 26.41211,0 0,-23.04587 -26.41211,0 0,23.04587 z"
         inkscape:connector-curvature="0"
         id="path46" /></clipPath><clipPath
       id="clipPath60"><path
         d="M 0,30 30,30 30,0 0,0 0,30 z"
         inkscape:connector-curvature="0"
         id="path62" /></clipPath><linearGradient
       x1="0"
       y1="0"
       x2="1"
       y2="0"
       id="linearGradient76"
       gradientUnits="userSpaceOnUse"
       gradientTransform="matrix(16.349213,-9.2266693,-9.2266693,-16.349213,6.6845703,49.629883)"
       spreadMethod="pad"><stop
         id="stop78"
         style="stop-color:#dfe2f2;stop-opacity:1"
         offset="0" /><stop
         id="stop80"
         style="stop-color:#00b0f0;stop-opacity:1"
         offset="0.907974" /><stop
         id="stop82"
         style="stop-color:#00b0f0;stop-opacity:1"
         offset="1" /></linearGradient><clipPath
       id="clipPath90"><path
         d="M 0,30 30,30 30,0 0,0 0,30 z"
         inkscape:connector-curvature="0"
         id="path92" /></clipPath></defs><g
     transform="matrix(1.25,0,0,-1.25,0,37.5)"
     id="g10"><g
       id="g12"><g
         clip-path="url(#clipPath16)"
         id="g14"><g
           transform="translate(-24.6357,22.9175)"
           id="g20"><path
             d="m 0,0 c 6.081,1.937 11.074,-2.006 11.292,3.379 0.218,5.385 2.929,2.96 7.002,0 4.072,-2.959 7.328,-17.373 3.854,-20.914 -3.473,-3.54 -10.209,-5.506 -12.704,-1.109 -2.495,4.397 -1.411,6.299 -2.929,9.646 -1.52,3.349 -4.559,0.446 -8.034,0 C -4.994,-9.442 -6.08,-1.937 0,0"
             inkscape:connector-curvature="0"
             id="path22"
             style="fill:#000000;fill-opacity:1;fill-rule:nonzero;stroke:none" /></g><g
           id="g24"><g
             id="g26" /><g
             id="g32"><g
               clip-path="url(#clipPath28)"
               id="g34"
               style="opacity:0.99215698"><g
                 transform="translate(15.3389,2.8037)"
                 id="g36"><path
                   d="m 0,0 -11.886,10.068 6.785,0.136 0.121,11.683 9.962,0 0.123,-11.683 6.726,0.133 L 0,0 z"
                   inkscape:connector-curvature="0"
                   id="path38"
                   style="fill:#c1343e;fill-opacity:1;fill-rule:nonzero;stroke:none" /></g></g></g></g><g
           id="g40"><g
             id="g42" /><g
             id="g48"><g
               clip-path="url(#clipPath44)"
               id="g50"
               style="opacity:0.99000501"><g
                 transform="translate(15.3389,2.8037)"
                 id="g52"><path
                   d="m 0,0 -11.886,10.068 6.785,0.136 0.121,11.683 9.962,0 0.123,-11.683 6.726,0.133 L 0,0 z"
                   inkscape:connector-curvature="0"
                   id="path54"
                   style="fill:none;stroke:#000000;stroke-width:1;stroke-linecap:butt;stroke-linejoin:miter;stroke-miterlimit:4;stroke-opacity:1;stroke-dasharray:none" /></g></g></g></g></g></g><g
       id="g56"><g
         clip-path="url(#clipPath60)"
         id="g58"><g
           id="g64"><g
             id="g66"><g
               id="g72"><g
                 id="g74"><path
                   d="m 21.125,30 -12.25,0 0,29.875 12.25,0 0,-29.875 z"
                   inkscape:connector-curvature="0"
                   id="path84"
                   style="fill:url(#linearGradient76);stroke:none" /></g></g></g></g></g></g><g
       id="g86"><g
         clip-path="url(#clipPath90)"
         id="g88"><g
           transform="translate(8.875,59.8755)"
           id="g94"><path
             d="M 0,0 0,-29.875"
             inkscape:connector-curvature="0"
             id="path96"
             style="fill:none;stroke:#3f4096;stroke-width:1;stroke-linecap:butt;stroke-linejoin:miter;stroke-miterlimit:10;stroke-opacity:1;stroke-dasharray:none" /></g><g
           transform="translate(20.875,59.8755)"
           id="g98"><path
             d="M 0,0 0,-29.875"
             inkscape:connector-curvature="0"
             id="path100"
             style="fill:none;stroke:#3f4096;stroke-width:1;stroke-linecap:butt;stroke-linejoin:miter;stroke-miterlimit:10;stroke-opacity:1;stroke-dasharray:none" /></g></g></g></g></svg>