<?xml version="1.0" encoding="UTF-8" standalone="no"?>
<!-- Created with Inkscape (http://www.inkscape.org/) -->

<svg
   xmlns:dc="http://purl.org/dc/elements/1.1/"
   xmlns:cc="http://creativecommons.org/ns#"
   xmlns:rdf="http://www.w3.org/1999/02/22-rdf-syntax-ns#"
   xmlns:svg="http://www.w3.org/2000/svg"
   xmlns="http://www.w3.org/2000/svg"
   xmlns:sodipodi="http://sodipodi.sourceforge.net/DTD/sodipodi-0.dtd"
   xmlns:inkscape="http://www.inkscape.org/namespaces/inkscape"
   version="1.1"
   width="37.5"
   height="37.5"
   id="svg2"
   xml:space="preserve"
   inkscape:version="0.91 r13725"
   sodipodi:docname="glue_spawn.svg"><sodipodi:namedview
     pagecolor="#ffffff"
     bordercolor="#666666"
     borderopacity="1"
     objecttolerance="10"
     gridtolerance="10"
     guidetolerance="10"
     inkscape:pageopacity="0"
     inkscape:pageshadow="2"
     inkscape:window-width="949"
     inkscape:window-height="531"
     id="namedview26"
     showgrid="false"
     inkscape:zoom="1"
     inkscape:cx="18.024829"
     inkscape:cy="21.459262"
     inkscape:window-x="296"
     inkscape:window-y="129"
     inkscape:window-maximized="0"
     inkscape:current-layer="g14" /><metadata
     id="metadata8"><rdf:RDF><cc:Work
         rdf:about=""><dc:format>image/svg+xml</dc:format><dc:type
           rdf:resource="http://purl.org/dc/dcmitype/StillImage" /></cc:Work></rdf:RDF></metadata><defs
     id="defs6"><clipPath
       id="clipPath16"><path
         d="M 0,30 30,30 30,0 0,0 0,30 z"
         inkscape:connector-curvature="0"
         id="path18" /></clipPath><clipPath
       id="clipPath32"><path
         d="m 17.2539,28.377 9.9082,0 0,-9.6592 -9.9082,0 0,9.6592 z"
         inkscape:connector-curvature="0"
         id="path34" /></clipPath></defs><g
     transform="matrix(1.25,0,0,-1.25,0,37.5)"
     id="g10"><g
       id="g12"><g
         clip-path="url(#clipPath16)"
         id="g14"><g
           transform="translate(26.0625,15)"
           id="g20"><path
             d="m 0,0 c 0,-6.11 -4.953,-11.063 -11.063,-11.063 -6.109,0 -11.062,4.953 -11.062,11.063 0,6.11 4.953,11.063 11.062,11.063 C -4.953,11.063 0,6.11 0,0"
             inkscape:connector-curvature="0"
             id="path22"
             style="fill:#ba3125;fill-opacity:1;fill-rule:nonzero;stroke:none" /></g><g
           transform="translate(26.0625,15)"
           id="g24"><path
             d="m 0,0 c 0,-6.11 -4.953,-11.063 -11.063,-11.063 -6.109,0 -11.062,4.953 -11.062,11.063 0,6.11 4.953,11.063 11.062,11.063 C -4.953,11.063 0,6.11 0,0 z"
             inkscape:connector-curvature="0"
             id="path26"
             style="fill:none;stroke:#000000;stroke-width:1;stroke-linecap:butt;stroke-linejoin:miter;stroke-miterlimit:4;stroke-opacity:1;stroke-dasharray:none" /></g><g
           transform="translate(5.3643,-7.0825)"
           id="g48"><path
             d="m 0,0 c 6.081,1.937 11.074,-2.006 11.292,3.379 0.218,5.385 2.929,2.96 7.002,0 4.072,-2.959 7.328,-17.373 3.854,-20.914 -3.473,-3.54 -10.209,-5.506 -12.704,-1.109 -2.495,4.397 -1.411,6.299 -2.929,9.646 -1.52,3.349 -4.559,0.446 -8.034,0 C -4.994,-9.442 -6.08,-1.937 0,0"
             inkscape:connector-curvature="0"
             id="path50"
             style="fill:#000000;fill-opacity:1;fill-rule:nonzero;stroke:none" /></g><path
           sodipodi:type="star"
           style="fill:#ffff00;fill-opacity:1;stroke:#000000;stroke-width:0.29101852;stroke-miterlimit:4;stroke-dasharray:none;stroke-dashoffset:0;stroke-opacity:1"
           id="path4162"
           sodipodi:sides="8"
           sodipodi:cx="21.842403"
           sodipodi:cy="-21.728021"
           sodipodi:r1="7.7699618"
           sodipodi:r2="3.3077891"
           sodipodi:arg1="2.0943951"
           sodipodi:arg2="2.4870942"
           inkscape:flatsided="false"
           inkscape:rounded="0"
           inkscape:randomized="0"
           d="m 17.957423,-14.999037 1.260735,-4.71533 -4.880961,-0.0026 4.225716,-2.442767 -3.449494,-3.453228 4.71533,1.260736 0.0026,-4.880961 2.442768,4.225716 3.453227,-3.449494 -1.260735,4.71533 4.880961,0.0026 -4.225716,2.442768 3.449494,3.453227 -4.71533,-1.260735 -0.0026,4.880961 -2.442768,-4.225716 z"
           transform="scale(1,-1)" /></g></g></g></svg>