<?xml version="1.0" encoding="UTF-8" standalone="no"?>
<!-- Created with Inkscape (http://www.inkscape.org/) -->

<svg
   xmlns:dc="http://purl.org/dc/elements/1.1/"
   xmlns:cc="http://creativecommons.org/ns#"
   xmlns:rdf="http://www.w3.org/1999/02/22-rdf-syntax-ns#"
   xmlns:svg="http://www.w3.org/2000/svg"
   xmlns="http://www.w3.org/2000/svg"
   xmlns:inkscape="http://www.inkscape.org/namespaces/inkscape"
   version="1.1"
   width="37.5"
   height="37.5"
   id="svg2"
   xml:space="preserve"><metadata
     id="metadata8"><rdf:RDF><cc:Work
         rdf:about=""><dc:format>image/svg+xml</dc:format><dc:type
           rdf:resource="http://purl.org/dc/dcmitype/StillImage" /></cc:Work></rdf:RDF></metadata><defs
     id="defs6"><clipPath
       id="clipPath16"><path
         d="M 0,30 30,30 30,0 0,0 0,30 z"
         inkscape:connector-curvature="0"
         id="path18" /></clipPath><clipPath
       id="clipPath32"><path
         d="m 17.2539,28.377 9.9082,0 0,-9.6592 -9.9082,0 0,9.6592 z"
         inkscape:connector-curvature="0"
         id="path34" /></clipPath></defs><g
     transform="matrix(1.25,0,0,-1.25,0,37.5)"
     id="g10"><g
       id="g12"><g
         clip-path="url(#clipPath16)"
         id="g14"><g
           transform="translate(26.0625,15)"
           id="g20"><path
             d="m 0,0 c 0,-6.11 -4.953,-11.063 -11.063,-11.063 -6.109,0 -11.062,4.953 -11.062,11.063 0,6.11 4.953,11.063 11.062,11.063 C -4.953,11.063 0,6.11 0,0"
             inkscape:connector-curvature="0"
             id="path22"
             style="fill:#c04838;fill-opacity:1;fill-rule:nonzero;stroke:none" /></g><g
           transform="translate(26.0625,15)"
           id="g24"><path
             d="m 0,0 c 0,-6.11 -4.953,-11.063 -11.063,-11.063 -6.109,0 -11.062,4.953 -11.062,11.063 0,6.11 4.953,11.063 11.062,11.063 C -4.953,11.063 0,6.11 0,0 z"
             inkscape:connector-curvature="0"
             id="path26"
             style="fill:none;stroke:#373535;stroke-width:1;stroke-linecap:butt;stroke-linejoin:miter;stroke-miterlimit:4;stroke-opacity:1;stroke-dasharray:none" /></g><g
           id="g28"><g
             id="g30" /><g
             id="g36"><g
               clip-path="url(#clipPath32)"
               id="g38"
               style="opacity:0.69999701"><g
                 transform="translate(22.207,28.0396)"
                 id="g40"><path
                   d="M 0,0 0.896,-2.884 3.711,-1.786 2.015,-4.286 4.626,-5.8 1.614,-6.031 2.06,-9.018 0,-6.809 l -2.059,-2.209 0.445,2.987 -3.011,0.231 2.611,1.514 -1.696,2.5 2.815,-1.098 L 0,0 z"
                   inkscape:connector-curvature="0"
                   id="path42"
                   style="fill:#f8ee41;fill-opacity:1;fill-rule:nonzero;stroke:none" /></g><g
                 transform="translate(22.207,28.0396)"
                 id="g44"><path
                   d="M 0,0 0.896,-2.884 3.711,-1.786 2.015,-4.286 4.626,-5.8 1.614,-6.031 2.06,-9.018 0,-6.809 l -2.059,-2.209 0.445,2.987 -3.011,0.231 2.611,1.514 -1.696,2.5 2.815,-1.098 L 0,0 z"
                   inkscape:connector-curvature="0"
                   id="path46"
                   style="fill:none;stroke:#373535;stroke-width:0.2;stroke-linecap:butt;stroke-linejoin:miter;stroke-miterlimit:4;stroke-opacity:1;stroke-dasharray:none" /></g></g></g></g><g
           transform="translate(5.3643,-7.0825)"
           id="g48"><path
             d="m 0,0 c 6.081,1.937 11.074,-2.006 11.292,3.379 0.218,5.385 2.929,2.96 7.002,0 4.072,-2.959 7.328,-17.373 3.854,-20.914 -3.473,-3.54 -10.209,-5.506 -12.704,-1.109 -2.495,4.397 -1.411,6.299 -2.929,9.646 -1.52,3.349 -4.559,0.446 -8.034,0 C -4.994,-9.442 -6.08,-1.937 0,0"
             inkscape:connector-curvature="0"
             id="path50"
             style="fill:#373535;fill-opacity:1;fill-rule:nonzero;stroke:none" /></g></g></g></g></svg>