<?xml version="1.0" encoding="UTF-8" standalone="no"?>
<!-- Created with Inkscape (http://www.inkscape.org/) -->

<svg
   xmlns:dc="http://purl.org/dc/elements/1.1/"
   xmlns:cc="http://creativecommons.org/ns#"
   xmlns:rdf="http://www.w3.org/1999/02/22-rdf-syntax-ns#"
   xmlns:svg="http://www.w3.org/2000/svg"
   xmlns="http://www.w3.org/2000/svg"
   xmlns:inkscape="http://www.inkscape.org/namespaces/inkscape"
   version="1.1"
   width="37.5"
   height="37.5"
   id="svg2"
   xml:space="preserve"><metadata
     id="metadata8"><rdf:RDF><cc:Work
         rdf:about=""><dc:format>image/svg+xml</dc:format><dc:type
           rdf:resource="http://purl.org/dc/dcmitype/StillImage" /></cc:Work></rdf:RDF></metadata><defs
     id="defs6"><radialGradient
       cx="0"
       cy="0"
       r="1"
       fx="0.779526"
       fy="-0.088531502"
       id="radialGradient24"
       gradientUnits="userSpaceOnUse"
       gradientTransform="matrix(-7.0584412,5.7158203,5.7158203,7.0584412,16.835449,18.096191)"
       spreadMethod="pad"><stop
         id="stop26"
         style="stop-color:#dfe2f2;stop-opacity:1"
         offset="0" /><stop
         id="stop28"
         style="stop-color:#00b0f0;stop-opacity:1"
         offset="0.92637599" /><stop
         id="stop30"
         style="stop-color:#00b0f0;stop-opacity:1"
         offset="1" /></radialGradient><clipPath
       id="clipPath38"><path
         d="M 0,30 30,30 30,0 0,0 0,30 z"
         inkscape:connector-curvature="0"
         id="path40" /></clipPath></defs><g
     transform="matrix(1.25,0,0,-1.25,0,37.5)"
     id="g10"><g
       id="g12"><g
         id="g14"><g
           id="g20"><g
             id="g22"><path
               d="m 7.673,17.685 c 0,-5.02 4.059,-9.09 9.079,-9.09 l 0,0 c 5.02,0 9.08,4.07 9.08,9.09 l 0,0 c 0,5.009 -4.06,9.079 -9.08,9.079 l 0,0 c -5.02,0 -9.079,-4.07 -9.079,-9.079"
               inkscape:connector-curvature="0"
               id="path32"
               style="fill:url(#radialGradient24);stroke:none" /></g></g></g></g><g
       id="g34"><g
         clip-path="url(#clipPath38)"
         id="g36"><g
           transform="translate(25.832,17.6846)"
           id="g42"><path
             d="m 0,0 c 0,-5.02 -4.06,-9.09 -9.08,-9.09 -5.02,0 -9.08,4.07 -9.08,9.09 0,5.01 4.06,9.08 9.08,9.08 C -4.06,9.08 0,5.01 0,0 z"
             inkscape:connector-curvature="0"
             id="path44"
             style="fill:none;stroke:#3c4694;stroke-width:1;stroke-linecap:round;stroke-linejoin:round;stroke-miterlimit:10;stroke-opacity:1;stroke-dasharray:none" /></g><g
           transform="translate(3.7075,1.6494)"
           id="g46"><path
             d="M 0,0 C 1.935,0 1.935,3 0,3 -1.935,3 -1.935,0 0,0"
             inkscape:connector-curvature="0"
             id="path48"
             style="fill:#737577;fill-opacity:1;fill-rule:nonzero;stroke:none" /></g><g
           transform="translate(5.0283,10.897)"
           id="g50"><path
             d="M 0,0 C 1.935,0 1.935,3 0,3 -1.935,3 -1.935,0 0,0"
             inkscape:connector-curvature="0"
             id="path52"
             style="fill:#737577;fill-opacity:1;fill-rule:nonzero;stroke:none" /></g><g
           transform="translate(10.3125,7.2632)"
           id="g54"><path
             d="M 0,0 C 1.935,0 1.935,3 0,3 -1.935,3 -1.935,0 0,0"
             inkscape:connector-curvature="0"
             id="path56"
             style="fill:#737577;fill-opacity:1;fill-rule:nonzero;stroke:none" /></g><g
           transform="translate(10.8081,16.8413)"
           id="g58"><path
             d="M 0,0 C 1.935,0 1.935,3 0,3 -1.935,3 -1.935,0 0,0"
             inkscape:connector-curvature="0"
             id="path60"
             style="fill:#ba3125;fill-opacity:1;fill-rule:nonzero;stroke:none" /></g><g
           transform="translate(16.7524,16.3467)"
           id="g62"><path
             d="M 0,0 C 1.935,0 1.935,3 0,3 -1.935,3 -1.935,0 0,0"
             inkscape:connector-curvature="0"
             id="path64"
             style="fill:#ba3125;fill-opacity:1;fill-rule:nonzero;stroke:none" /></g><g
           transform="translate(16.7524,10.731)"
           id="g66"><path
             d="M 0,0 C 1.935,0 1.935,3 0,3 -1.935,3 -1.935,0 0,0"
             inkscape:connector-curvature="0"
             id="path68"
             style="fill:#ba3125;fill-opacity:1;fill-rule:nonzero;stroke:none" /></g><g
           transform="translate(14.6064,21.9604)"
           id="g70"><path
             d="M 0,0 C 1.935,0 1.935,3 0,3 -1.935,3 -1.935,0 0,0"
             inkscape:connector-curvature="0"
             id="path72"
             style="fill:#ba3125;fill-opacity:1;fill-rule:nonzero;stroke:none" /></g><g
           transform="translate(21.2114,20.8877)"
           id="g74"><path
             d="M 0,0 C 1.935,0 1.935,3 0,3 -1.935,3 -1.935,0 0,0"
             inkscape:connector-curvature="0"
             id="path76"
             style="fill:#ba3125;fill-opacity:1;fill-rule:nonzero;stroke:none" /></g><g
           transform="translate(21.2114,14.5293)"
           id="g78"><path
             d="M 0,0 C 1.935,0 1.935,3 0,3 -1.935,3 -1.935,0 0,0"
             inkscape:connector-curvature="0"
             id="path80"
             style="fill:#ba3125;fill-opacity:1;fill-rule:nonzero;stroke:none" /></g></g></g></g></svg>