<?xml version="1.0" encoding="UTF-8" standalone="no"?>
<!-- Created with Inkscape (http://www.inkscape.org/) -->

<svg
   xmlns:dc="http://purl.org/dc/elements/1.1/"
   xmlns:cc="http://creativecommons.org/ns#"
   xmlns:rdf="http://www.w3.org/1999/02/22-rdf-syntax-ns#"
   xmlns:svg="http://www.w3.org/2000/svg"
   xmlns="http://www.w3.org/2000/svg"
   xmlns:inkscape="http://www.inkscape.org/namespaces/inkscape"
   version="1.1"
   width="37.5"
   height="37.5"
   id="svg2"
   xml:space="preserve"><metadata
     id="metadata8"><rdf:RDF><cc:Work
         rdf:about=""><dc:format>image/svg+xml</dc:format><dc:type
           rdf:resource="http://purl.org/dc/dcmitype/StillImage" /></cc:Work></rdf:RDF></metadata><defs
     id="defs6"><clipPath
       id="clipPath16"><path
         d="M 0,30 30,30 30,0 0,0 0,30 z"
         inkscape:connector-curvature="0"
         id="path18" /></clipPath><clipPath
       id="clipPath24"><path
         d="m 11.6294,28.3135 7.1143,0 0,-11.3565 -7.1143,0 0,11.3565 z"
         inkscape:connector-curvature="0"
         id="path26" /></clipPath><clipPath
       id="clipPath40"><path
         d="m 10.6714,29.2026 9.0029,0 0,-12.7456 -9.0029,0 0,12.7456 z"
         inkscape:connector-curvature="0"
         id="path42" /></clipPath><clipPath
       id="clipPath56"><path
         d="m 15.2915,18.3281 13.4775,0 0,-6.9687 -13.4775,0 0,6.9687 z"
         inkscape:connector-curvature="0"
         id="path58" /></clipPath><clipPath
       id="clipPath72"><path
         d="m 14.7915,19.2861 14.8667,0 0,-8.8579 -14.8667,0 0,8.8579 z"
         inkscape:connector-curvature="0"
         id="path74" /></clipPath><clipPath
       id="clipPath88"><path
         d="m 11.5376,13.1357 7.2549,0 0,-11.44918 -7.2549,0 0,11.44918 z"
         inkscape:connector-curvature="0"
         id="path90" /></clipPath><clipPath
       id="clipPath104"><path
         d="m 10.6069,13.6357 9.1436,0 0,-12.838825 -9.1436,0 0,12.838825 z"
         inkscape:connector-curvature="0"
         id="path106" /></clipPath><clipPath
       id="clipPath120"><path
         d="m 1.23096,18.5361 13.39164,0 0,-7.1855 -13.39164,0 0,7.1855 z"
         inkscape:connector-curvature="0"
         id="path122" /></clipPath><clipPath
       id="clipPath136"><path
         d="m 0.341797,19.4668 14.780803,0 0,-9.0737 -14.780803,0 0,9.0737 z"
         inkscape:connector-curvature="0"
         id="path138" /></clipPath></defs><g
     transform="matrix(1.25,0,0,-1.25,0,37.5)"
     id="g10"><g
       id="g12"><g
         clip-path="url(#clipPath16)"
         id="g14"><g
           id="g20"><g
             id="g22" /><g
             id="g28"><g
               clip-path="url(#clipPath24)"
               id="g30"
               style="opacity:0.99215698"><g
                 transform="translate(15.1782,28.3135)"
                 id="g32"><path
                   d="m 0,0 3.565,-5.164 -2.034,-0.07 -0.037,-6.122 -2.989,0 -0.036,6.122 L -3.549,-5.302 0,0 z"
                   inkscape:connector-curvature="0"
                   id="path34"
                   style="fill:#2d6683;fill-opacity:1;fill-rule:nonzero;stroke:none" /></g></g></g></g><g
           id="g36"><g
             id="g38" /><g
             id="g44"><g
               clip-path="url(#clipPath40)"
               id="g46"
               style="opacity:0.99000501"><g
                 transform="translate(15.1782,28.3135)"
                 id="g48"><path
                   d="m 0,0 3.565,-5.164 -2.034,-0.07 -0.037,-6.122 -2.989,0 -0.036,6.122 L -3.549,-5.302 0,0 z"
                   inkscape:connector-curvature="0"
                   id="path50"
                   style="fill:none;stroke:#2d6683;stroke-width:1;stroke-linecap:butt;stroke-linejoin:miter;stroke-miterlimit:4;stroke-opacity:1;stroke-dasharray:none" /></g></g></g></g><g
           id="g52"><g
             id="g54" /><g
             id="g60"><g
               clip-path="url(#clipPath56)"
               id="g62"
               style="opacity:0.99215698"><g
                 transform="translate(28.769,14.8525)"
                 id="g64"><path
                   d="m 0,0 -5.059,-3.493 -0.068,1.993 -8.351,0.129 0,2.927 L -5.127,1.499 -5.193,3.476 0,0 z"
                   inkscape:connector-curvature="0"
                   id="path66"
                   style="fill:#2d6683;fill-opacity:1;fill-rule:nonzero;stroke:none" /></g></g></g></g><g
           id="g68"><g
             id="g70" /><g
             id="g76"><g
               clip-path="url(#clipPath72)"
               id="g78"
               style="opacity:0.99000501"><g
                 transform="translate(28.769,14.8525)"
                 id="g80"><path
                   d="m 0,0 -5.059,-3.493 -0.068,1.993 -8.351,0.129 0,2.927 L -5.127,1.499 -5.193,3.476 0,0 z"
                   inkscape:connector-curvature="0"
                   id="path82"
                   style="fill:none;stroke:#2d6683;stroke-width:1;stroke-linecap:butt;stroke-linejoin:miter;stroke-miterlimit:4;stroke-opacity:1;stroke-dasharray:none" /></g></g></g></g><g
           id="g84"><g
             id="g86" /><g
             id="g92"><g
               clip-path="url(#clipPath88)"
               id="g94"
               style="opacity:0.99215698"><g
                 transform="translate(15.1733,1.6865)"
                 id="g96"><path
                   d="m 0,0 -3.636,5.267 2.075,0.071 0.038,6.111 3.047,0 L 1.563,5.338 3.619,5.407 0,0 z"
                   inkscape:connector-curvature="0"
                   id="path98"
                   style="fill:#2d6683;fill-opacity:1;fill-rule:nonzero;stroke:none" /></g></g></g></g><g
           id="g100"><g
             id="g102" /><g
             id="g108"><g
               clip-path="url(#clipPath104)"
               id="g110"
               style="opacity:0.99000501"><g
                 transform="translate(15.1733,1.6865)"
                 id="g112"><path
                   d="m 0,0 -3.636,5.267 2.075,0.071 0.038,6.111 3.047,0 L 1.563,5.338 3.619,5.407 0,0 z"
                   inkscape:connector-curvature="0"
                   id="path114"
                   style="fill:none;stroke:#2d6683;stroke-width:1;stroke-linecap:butt;stroke-linejoin:miter;stroke-miterlimit:4;stroke-opacity:1;stroke-dasharray:none" /></g></g></g></g><g
           id="g116"><g
             id="g118" /><g
             id="g124"><g
               clip-path="url(#clipPath120)"
               id="g126"
               style="opacity:0.99215698"><g
                 transform="translate(1.231,14.9346)"
                 id="g128"><path
                   d="m 0,0 5.216,3.602 0.071,-2.056 8.105,-0.036 0,-3.02 L 5.287,-1.546 5.354,-3.584 0,0 z"
                   inkscape:connector-curvature="0"
                   id="path130"
                   style="fill:#2d6683;fill-opacity:1;fill-rule:nonzero;stroke:none" /></g></g></g></g><g
           id="g132"><g
             id="g134" /><g
             id="g140"><g
               clip-path="url(#clipPath136)"
               id="g142"
               style="opacity:0.99000501"><g
                 transform="translate(1.231,14.9346)"
                 id="g144"><path
                   d="m 0,0 5.216,3.602 0.071,-2.056 8.105,-0.036 0,-3.02 L 5.287,-1.546 5.354,-3.584 0,0 z"
                   inkscape:connector-curvature="0"
                   id="path146"
                   style="fill:none;stroke:#2d6683;stroke-width:1;stroke-linecap:butt;stroke-linejoin:miter;stroke-miterlimit:4;stroke-opacity:1;stroke-dasharray:none" /></g></g></g></g></g></g></g></svg>