<?xml version="1.0" encoding="UTF-8" standalone="no"?>
<!-- Created with Inkscape (http://www.inkscape.org/) -->

<svg
   xmlns:dc="http://purl.org/dc/elements/1.1/"
   xmlns:cc="http://creativecommons.org/ns#"
   xmlns:rdf="http://www.w3.org/1999/02/22-rdf-syntax-ns#"
   xmlns:svg="http://www.w3.org/2000/svg"
   xmlns="http://www.w3.org/2000/svg"
   xmlns:inkscape="http://www.inkscape.org/namespaces/inkscape"
   version="1.1"
   width="37.5"
   height="37.5"
   id="svg2"
   xml:space="preserve"><metadata
     id="metadata8"><rdf:RDF><cc:Work
         rdf:about=""><dc:format>image/svg+xml</dc:format><dc:type
           rdf:resource="http://purl.org/dc/dcmitype/StillImage" /></cc:Work></rdf:RDF></metadata><defs
     id="defs6"><clipPath
       id="clipPath16"><path
         d="M 0,30 30,30 30,0 0,0 0,30 z"
         inkscape:connector-curvature="0"
         id="path18" /></clipPath><clipPath
       id="clipPath64"><path
         d="m 30,30 29.999,0 0,-30 L 30,0 30,30 z"
         inkscape:connector-curvature="0"
         id="path66" /></clipPath></defs><g
     transform="matrix(1.25,0,0,-1.25,0,37.5)"
     id="g10"><g
       id="g12"><g
         clip-path="url(#clipPath16)"
         id="g14"><g
           transform="translate(3.1768,22.5244)"
           id="g20"><path
             d="M 0,0 C 3.084,5.449 4.5,3.462 7.625,2.44 10.75,1.418 13,0.056 14.75,0.227 c 1.75,0.17 4.038,5.879 6.625,4.597 4.125,-2.043 2.875,-5.789 3.375,-8.344 0.5,-2.554 1.625,-9.365 -2.5,-11.749 -4.125,-2.384 -11.125,-5.619 -15,-4.597 -3.875,1.021 -4.177,2.237 -6.625,6.811 -2.188,4.087 -2.132,5.32 -2.208,7.265 C -1.646,-4.155 -1.894,-3.346 0,0"
             inkscape:connector-curvature="0"
             id="path22"
             style="fill:#e7e8e9;fill-opacity:1;fill-rule:nonzero;stroke:none" /></g><g
           transform="translate(3.1768,22.5244)"
           id="g24"><path
             d="M 0,0 C 3.084,5.449 4.5,3.462 7.625,2.44 10.75,1.418 13,0.056 14.75,0.227 c 1.75,0.17 4.038,5.879 6.625,4.597 4.125,-2.043 2.875,-5.789 3.375,-8.344 0.5,-2.554 1.625,-9.365 -2.5,-11.749 -4.125,-2.384 -11.125,-5.619 -15,-4.597 -3.875,1.021 -4.177,2.237 -6.625,6.811 -2.188,4.087 -2.132,5.32 -2.208,7.265 C -1.646,-4.155 -1.894,-3.346 0,0 z"
             inkscape:connector-curvature="0"
             id="path26"
             style="fill:none;stroke:#000000;stroke-width:1;stroke-linecap:butt;stroke-linejoin:miter;stroke-miterlimit:10;stroke-opacity:1;stroke-dasharray:none" /></g><g
           transform="translate(12.2393,20.5938)"
           id="g28"><path
             d="m 0,0 c -1.856,1.806 -2.625,1.362 -4.875,1.022 -2.25,-0.341 -2.813,-3.576 -3.063,-5.279 -0.25,-1.702 0.125,-2.809 1.375,-6.045 1.25,-3.235 6.5,-3.831 7.251,-3.831 1.937,0 2.654,1.22 2.187,5.109 -0.562,4.682 -1,5.619 -1,5.619 0,0 -1,2.554 -1.875,3.405"
             inkscape:connector-curvature="0"
             id="path30"
             style="fill:#aaacae;fill-opacity:1;fill-rule:nonzero;stroke:none" /></g><g
           transform="translate(12.2393,20.5938)"
           id="g32"><path
             d="m 0,0 c -1.856,1.806 -2.625,1.362 -4.875,1.022 -2.25,-0.341 -2.813,-3.576 -3.063,-5.279 -0.25,-1.702 0.125,-2.809 1.375,-6.045 1.25,-3.235 6.5,-3.831 7.251,-3.831 1.937,0 2.654,1.22 2.187,5.109 -0.562,4.682 -1,5.619 -1,5.619 0,0 -1,2.554 -1.875,3.405 z"
             inkscape:connector-curvature="0"
             id="path34"
             style="fill:none;stroke:#000000;stroke-width:1;stroke-linecap:butt;stroke-linejoin:miter;stroke-miterlimit:10;stroke-opacity:1;stroke-dasharray:none" /></g><g
           transform="translate(11.1143,16.8477)"
           id="g36"><path
             d="m 0,0 c -1.269,2.002 -2.75,0.767 -3.438,-0.17 -0.643,-0.877 0.736,-4.301 1.75,-4.768 0.76,-0.35 2.795,-0.443 3.188,0.511 C 1.938,-3.364 0.585,-0.922 0,0"
             inkscape:connector-curvature="0"
             id="path38"
             style="fill:#737577;fill-opacity:1;fill-rule:nonzero;stroke:none" /></g><g
           transform="translate(11.1143,16.8477)"
           id="g40"><path
             d="m 0,0 c -1.269,2.002 -2.75,0.767 -3.438,-0.17 -0.643,-0.877 0.736,-4.301 1.75,-4.768 0.76,-0.35 2.795,-0.443 3.188,0.511 C 1.938,-3.364 0.585,-0.922 0,0 z"
             inkscape:connector-curvature="0"
             id="path42"
             style="fill:none;stroke:#000000;stroke-width:1;stroke-linecap:butt;stroke-linejoin:miter;stroke-miterlimit:10;stroke-opacity:1;stroke-dasharray:none" /></g><g
           transform="translate(23.0518,22.9214)"
           id="g44"><path
             d="m 0,0 c -1.905,1.19 -3.75,-1.873 -4.25,-3.746 -0.5,-1.873 -1.125,-7.152 -0.625,-9.025 0.5,-1.873 4.782,-1.147 5.438,-0.341 1.937,2.384 1.938,4.372 2,5.875 0.125,3.065 -0.308,4.009 -0.938,5.194 C 1.301,-1.434 0.502,-0.314 0,0"
             inkscape:connector-curvature="0"
             id="path46"
             style="fill:#aaacae;fill-opacity:1;fill-rule:nonzero;stroke:none" /></g><g
           transform="translate(23.0518,22.9214)"
           id="g48"><path
             d="m 0,0 c -1.905,1.19 -3.75,-1.873 -4.25,-3.746 -0.5,-1.873 -1.125,-7.152 -0.625,-9.025 0.5,-1.873 4.782,-1.147 5.438,-0.341 1.937,2.384 1.938,4.372 2,5.875 0.125,3.065 -0.308,4.009 -0.938,5.194 C 1.301,-1.434 0.502,-0.314 0,0 z"
             inkscape:connector-curvature="0"
             id="path50"
             style="fill:none;stroke:#ba3125;stroke-width:1;stroke-linecap:butt;stroke-linejoin:miter;stroke-miterlimit:10;stroke-opacity:1;stroke-dasharray:none" /></g><g
           transform="translate(22.1768,18.3237)"
           id="g52"><path
             d="m 0,0 c -0.75,0 -1.528,-0.844 -1.625,-1.277 -0.233,-1.047 -0.515,-3.502 0,-4.342 0.361,-0.589 1.856,-0.378 2.25,0.17 0.498,0.694 0.89,2.794 0.75,3.746 C 1.305,-1.227 0.812,-0.405 0.5,-0.17 0.388,-0.085 0,0 0,0"
             inkscape:connector-curvature="0"
             id="path54"
             style="fill:#737577;fill-opacity:1;fill-rule:nonzero;stroke:none" /></g><g
           transform="translate(22.1768,18.3237)"
           id="g56"><path
             d="m 0,0 c -0.75,0 -1.528,-0.844 -1.625,-1.277 -0.233,-1.047 -0.515,-3.502 0,-4.342 0.361,-0.589 1.856,-0.378 2.25,0.17 0.498,0.694 0.89,2.794 0.75,3.746 C 1.305,-1.227 0.812,-0.405 0.5,-0.17 0.388,-0.085 0,0 0,0 z"
             inkscape:connector-curvature="0"
             id="path58"
             style="fill:none;stroke:#ba3125;stroke-width:1;stroke-linecap:butt;stroke-linejoin:miter;stroke-miterlimit:10;stroke-opacity:1;stroke-dasharray:none" /></g><g
           id="g60"><g
             id="g62" /><g
             id="g68"><g
               clip-path="url(#clipPath64)"
               id="g70"><g
                 transform="translate(45.6543,6)"
                 id="g72"><path
                   d="m 0,0 c 4.929,0 8.929,4 8.929,8.929 0,4.928 -4,8.928 -8.929,8.928 -4.928,0 -8.928,-4 -8.928,-8.928 C -8.928,4 -4.928,0 0,0 m 14.345,-6 -29.999,0 0,30 29.999,0 0,-30 z"
                   inkscape:connector-curvature="0"
                   id="path74"
                   style="fill:#ba3125;fill-opacity:1;fill-rule:nonzero;stroke:none" /></g></g></g></g></g></g></g></svg>