<?xml version="1.0" encoding="UTF-8" standalone="no"?>
<!-- Created with Inkscape (http://www.inkscape.org/) -->

<svg
   xmlns:dc="http://purl.org/dc/elements/1.1/"
   xmlns:cc="http://creativecommons.org/ns#"
   xmlns:rdf="http://www.w3.org/1999/02/22-rdf-syntax-ns#"
   xmlns:svg="http://www.w3.org/2000/svg"
   xmlns="http://www.w3.org/2000/svg"
   xmlns:inkscape="http://www.inkscape.org/namespaces/inkscape"
   version="1.1"
   width="37.5"
   height="37.5"
   id="svg2"
   xml:space="preserve"><metadata
     id="metadata8"><rdf:RDF><cc:Work
         rdf:about=""><dc:format>image/svg+xml</dc:format><dc:type
           rdf:resource="http://purl.org/dc/dcmitype/StillImage" /></cc:Work></rdf:RDF></metadata><defs
     id="defs6"><clipPath
       id="clipPath16"><path
         d="M 0,30 30,30 30,0 0,0 0,30 z"
         inkscape:connector-curvature="0"
         id="path18" /></clipPath><clipPath
       id="clipPath24"><path
         d="m 9.05273,18.9521 11.55667,0 0,-9.48286 -11.55667,0 0,9.48286 z"
         inkscape:connector-curvature="0"
         id="path26" /></clipPath></defs><g
     transform="matrix(1.25,0,0,-1.25,0,37.5)"
     id="g10"><g
       id="g12"><g
         clip-path="url(#clipPath16)"
         id="g14"><g
           id="g20"><g
             id="g22" /><g
             id="g28"><g
               clip-path="url(#clipPath24)"
               id="g30"><g
                 transform="translate(20.5977,18.5488)"
                 id="g32"><path
                   d="m 0,0 c 0.012,-0.059 0.012,-0.13 0.012,-0.189 0,-4.908 -3.983,-8.891 -8.89,-8.891 -0.925,0 -1.813,0.142 -2.655,0.403 -0.012,0.06 -0.012,0.131 -0.012,0.19 0,4.907 3.982,8.89 8.89,8.89 C -1.73,0.403 -0.842,0.261 0,0"
                   inkscape:connector-curvature="0"
                   id="path34"
                   style="fill:#ba3125;fill-opacity:1;fill-rule:nonzero;stroke:none" /></g></g></g></g><g
           transform="translate(20.5977,18.5488)"
           id="g36"><path
             d="m 0,0 c 3.615,-1.126 6.235,-4.504 6.235,-8.487 0,-4.908 -3.983,-8.89 -8.89,-8.89 -4.848,0 -8.783,3.876 -8.878,8.7 -0.012,0.06 -0.012,0.131 -0.012,0.19 0,4.907 3.982,8.89 8.89,8.89 C -1.73,0.403 -0.842,0.261 0,0 z"
             inkscape:connector-curvature="0"
             id="path38"
             style="fill:none;stroke:#000000;stroke-width:1;stroke-linecap:butt;stroke-linejoin:miter;stroke-miterlimit:10;stroke-opacity:1;stroke-dasharray:none" /></g><g
           transform="translate(20.5977,18.5488)"
           id="g40"><path
             d="m 0,0 c 0.012,-0.059 0.012,-0.13 0.012,-0.189 0,-4.908 -3.983,-8.891 -8.89,-8.891 -0.925,0 -1.813,0.142 -2.655,0.403 -3.615,1.127 -6.236,4.505 -6.236,8.488 0,4.907 3.984,8.89 8.891,8.89 C -4.03,8.701 -0.095,4.825 0,0 z"
             inkscape:connector-curvature="0"
             id="path42"
             style="fill:none;stroke:#000000;stroke-width:1;stroke-linecap:butt;stroke-linejoin:miter;stroke-miterlimit:10;stroke-opacity:1;stroke-dasharray:none" /></g></g></g></g></svg>