<?xml version="1.0" encoding="UTF-8" standalone="no"?>
<!-- Created with Inkscape (http://www.inkscape.org/) -->

<svg
   xmlns:dc="http://purl.org/dc/elements/1.1/"
   xmlns:cc="http://creativecommons.org/ns#"
   xmlns:rdf="http://www.w3.org/1999/02/22-rdf-syntax-ns#"
   xmlns:svg="http://www.w3.org/2000/svg"
   xmlns="http://www.w3.org/2000/svg"
   xmlns:sodipodi="http://sodipodi.sourceforge.net/DTD/sodipodi-0.dtd"
   xmlns:inkscape="http://www.inkscape.org/namespaces/inkscape"
   version="1.1"
   width="37.5"
   height="37.5"
   id="svg2"
   xml:space="preserve"
   inkscape:version="0.48.2 r9819"
   sodipodi:docname="glue_point.svg"><sodipodi:namedview
     pagecolor="#ffffff"
     bordercolor="#666666"
     borderopacity="1"
     objecttolerance="10"
     gridtolerance="10"
     guidetolerance="10"
     inkscape:pageopacity="0"
     inkscape:pageshadow="2"
     inkscape:window-width="1101"
     inkscape:window-height="1015"
     id="namedview46"
     showgrid="false"
     inkscape:zoom="10"
     inkscape:cx="26.25686"
     inkscape:cy="13.851381"
     inkscape:window-x="180"
     inkscape:window-y="0"
     inkscape:window-maximized="0"
     inkscape:current-layer="g3140" /><metadata
     id="metadata8"><rdf:RDF><cc:Work
         rdf:about=""><dc:format>image/svg+xml</dc:format><dc:type
           rdf:resource="http://purl.org/dc/dcmitype/StillImage" /><dc:title /></cc:Work></rdf:RDF></metadata><defs
     id="defs6"><linearGradient
       x1="0"
       y1="0"
       x2="1"
       y2="0"
       id="linearGradient24"
       gradientUnits="userSpaceOnUse"
       gradientTransform="matrix(16.832871,-9.4996185,-9.4996185,-16.832871,6.4394531,20.069336)"
       spreadMethod="pad"><stop
         id="stop26"
         style="stop-color:#dfe2f2;stop-opacity:1"
         offset="0" /><stop
         id="stop28"
         style="stop-color:#00b0f0;stop-opacity:1"
         offset="0.907974" /><stop
         id="stop30"
         style="stop-color:#00b0f0;stop-opacity:1"
         offset="1" /></linearGradient><clipPath
       id="clipPath40"><path
         d="M 0,30 30,30 30,0 0,0 0,30 z"
         inkscape:connector-curvature="0"
         id="path42" /></clipPath><clipPath
       id="clipPath56"><path
         d="M 0,30 30,30 30,0 0,0 0,30 z"
         inkscape:connector-curvature="0"
         id="path58" /></clipPath></defs><g
     transform="matrix(1.25,0,0,-1.25,0,37.5)"
     id="g10"><g
       id="g36"><g
         clip-path="url(#clipPath40)"
         id="g38"><g
           transform="translate(18.2949,13.9258)"
           id="g44"><path
             d="M 0,0 z"
             inkscape:connector-curvature="0"
             id="path46"
             style="fill:#bcd6f0;fill-opacity:1;fill-rule:nonzero;stroke:none" /></g></g></g><g
       transform="translate(18.2949,13.9258)"
       id="g48"><path
         d="M 0,0 0,0 z"
         inkscape:connector-curvature="0"
         id="path50"
         style="fill:none;stroke:#3c4694;stroke-width:1;stroke-linecap:butt;stroke-linejoin:miter;stroke-miterlimit:10;stroke-opacity:1;stroke-dasharray:none" /></g><g
       transform="translate(5.25,3.3447)"
       id="g60"><path
         d="M 0,0 C 1.935,0 1.935,3 0,3 -1.935,3 -1.935,0 0,0"
         inkscape:connector-curvature="0"
         id="path62"
         style="fill:#737577;fill-opacity:1;fill-rule:nonzero;stroke:none" /></g><g
       transform="translate(6.5703,12.5918)"
       id="g64"
       style="fill:#808080"><path
         d="M 0,0 C 1.935,0 1.935,3 0,3 -1.935,3 -1.935,0 0,0"
         inkscape:connector-curvature="0"
         id="path66"
         style="fill:#808080;fill-opacity:1;fill-rule:nonzero;stroke:none" /></g><g
       transform="translate(11.8545,8.958)"
       id="g68"
       style="fill:#808080"><path
         d="M 0,0 C 1.935,0 1.935,3 0,3 -1.935,3 -1.935,0 0,0"
         inkscape:connector-curvature="0"
         id="path70"
         style="fill:#808080;fill-opacity:1;fill-rule:nonzero;stroke:none" /></g><g
       transform="translate(12.3506,18.5361)"
       id="g72"
       style="fill:#808080"><path
         d="M 0,0 C 1.935,0 1.935,3 0,3 -1.935,3 -1.935,0 0,0"
         inkscape:connector-curvature="0"
         id="path74"
         style="fill:#808080;fill-opacity:1;fill-rule:nonzero;stroke:none" /></g><g
       transform="translate(18.2949,18.042)"
       id="g76"
       style="fill:#808080"><path
         d="M 0,0 C 1.935,0 1.935,3 0,3 -1.935,3 -1.935,0 0,0"
         inkscape:connector-curvature="0"
         id="path78"
         style="fill:#808080;fill-opacity:1;fill-rule:nonzero;stroke:none" /></g><g
       transform="translate(18.2949,12.4258)"
       id="g80"><path
         d="M 0,0 C 1.935,0 1.935,3 0,3 -1.935,3 -1.935,0 0,0"
         inkscape:connector-curvature="0"
         id="path82"
         style="fill:#ba3125;fill-opacity:1;fill-rule:nonzero;stroke:none" /></g><g
       transform="translate(16.1484,23.6553)"
       id="g84"><path
         d="M 0,0 C 1.935,0 1.935,3 0,3 -1.935,3 -1.935,0 0,0"
         inkscape:connector-curvature="0"
         id="path86"
         style="fill:#737577;fill-opacity:1;fill-rule:nonzero;stroke:none" /></g><g
       transform="translate(22.7539,22.583)"
       id="g88"><path
         d="M 0,0 C 1.935,0 1.935,3 0,3 -1.935,3 -1.935,0 0,0"
         inkscape:connector-curvature="0"
         id="path90"
         style="fill:#737577;fill-opacity:1;fill-rule:nonzero;stroke:none" /></g><g
       transform="translate(22.7539,16.2246)"
       id="g92"
       style="fill:#808080"><path
         d="M 0,0 C 1.935,0 1.935,3 0,3 -1.935,3 -1.935,0 0,0"
         inkscape:connector-curvature="0"
         id="path94"
         style="fill:#808080;fill-opacity:1;fill-rule:nonzero;stroke:none" /></g><g
       transform="matrix(0.06561272,0,0,0.06561272,14.58344,1.4013879)"
       inkscape:label="Untitled"
       id="g3136"><g
         id="g3138" /><g
         id="g3140"><g
           transform="matrix(0.93498848,0,0,0.93498848,11.842087,-16.653199)"
           inkscape:label="Untitled"
           id="g3050"><g
             id="g3052" /><g
             id="g3054"><path
               id="path3056"
               style="fill:#00b0f0;fill-opacity:1;fill-rule:nonzero;stroke:none"
               d="M 58.73639,45.68604 57.10162,205.6138 163.2137,86.70114 116.5415,85.58548 138.4949,28.3092 116.3771,19.61029 94.25183,76.57956 58.73639,45.68604 z"
               inkscape:connector-curvature="0" /><g
               transform="matrix(1,0,0,-1,-392.5,583.5)"
               id="g3058"><path
                 id="path3060"
                 style="fill:none;stroke:#3c4694;stroke-width:14;stroke-linecap:round;stroke-linejoin:round;stroke-miterlimit:10;stroke-opacity:1;stroke-dasharray:none"
                 d="m 451.2364,537.814 -1.6348,-159.9278 106.1121,118.9127 -46.6722,1.1156 21.9534,57.2763 -22.1178,8.6989 -22.1253,-56.9693 -35.5154,30.8936 z"
                 inkscape:connector-curvature="0" /></g></g></g></g></g></g></svg>