<?xml version="1.0" encoding="UTF-8" standalone="no"?>
<svg
   xmlns:dc="http://purl.org/dc/elements/1.1/"
   xmlns:cc="http://creativecommons.org/ns#"
   xmlns:rdf="http://www.w3.org/1999/02/22-rdf-syntax-ns#"
   xmlns:svg="http://www.w3.org/2000/svg"
   xmlns="http://www.w3.org/2000/svg"
   xmlns:sodipodi="http://sodipodi.sourceforge.net/DTD/sodipodi-0.dtd"
   xmlns:inkscape="http://www.inkscape.org/namespaces/inkscape"
   inkscape:version="1.0 (4035a4f, 2020-05-01)"
   sodipodi:docname="glue_move_x.svg"
   xml:space="preserve"
   id="svg2"
   height="37.5"
   width="37.5"
   version="1.1"><sodipodi:namedview
     inkscape:current-layer="svg2"
     inkscape:window-maximized="0"
     inkscape:window-y="39"
     inkscape:window-x="263"
     inkscape:cy="18.75"
     inkscape:cx="18.75"
     inkscape:zoom="19.6"
     showgrid="false"
     id="namedview82"
     inkscape:window-height="803"
     inkscape:window-width="1133"
     inkscape:pageshadow="2"
     inkscape:pageopacity="0"
     guidetolerance="10"
     gridtolerance="10"
     objecttolerance="10"
     borderopacity="1"
     bordercolor="#666666"
     pagecolor="#ffffff" /><metadata
     id="metadata8"><rdf:RDF><cc:Work
         rdf:about=""><dc:format>image/svg+xml</dc:format><dc:type
           rdf:resource="http://purl.org/dc/dcmitype/StillImage" /></cc:Work></rdf:RDF></metadata><defs
     id="defs6"><clipPath
       id="clipPath16"><path
         id="path18"
         inkscape:connector-curvature="0"
         d="M 0,30 30,30 30,0 0,0 0,30 z" /></clipPath><clipPath
       id="clipPath24"><path
         id="path26"
         inkscape:connector-curvature="0"
         d="m 11.6294,28.3135 7.1143,0 0,-11.3565 -7.1143,0 0,11.3565 z" /></clipPath><clipPath
       id="clipPath40"><path
         id="path42"
         inkscape:connector-curvature="0"
         d="m 10.6714,29.2026 9.0029,0 0,-12.7456 -9.0029,0 0,12.7456 z" /></clipPath><clipPath
       id="clipPath56"><path
         id="path58"
         inkscape:connector-curvature="0"
         d="m 15.2915,18.3281 13.4775,0 0,-6.9687 -13.4775,0 0,6.9687 z" /></clipPath><clipPath
       id="clipPath72"><path
         id="path74"
         inkscape:connector-curvature="0"
         d="m 14.7915,19.2861 14.8667,0 0,-8.8579 -14.8667,0 0,8.8579 z" /></clipPath><clipPath
       id="clipPath88"><path
         id="path90"
         inkscape:connector-curvature="0"
         d="m 11.5376,13.1357 7.2549,0 0,-11.44918 -7.2549,0 0,11.44918 z" /></clipPath><clipPath
       id="clipPath104"><path
         id="path106"
         inkscape:connector-curvature="0"
         d="m 10.6069,13.6357 9.1436,0 0,-12.838825 -9.1436,0 0,12.838825 z" /></clipPath><clipPath
       id="clipPath120"><path
         id="path122"
         inkscape:connector-curvature="0"
         d="m 1.23096,18.5361 13.39164,0 0,-7.1855 -13.39164,0 0,7.1855 z" /></clipPath><clipPath
       id="clipPath136"><path
         id="path138"
         inkscape:connector-curvature="0"
         d="m 0.341797,19.4668 14.780803,0 0,-9.0737 -14.780803,0 0,9.0737 z" /></clipPath></defs><g
     id="g10"
     transform="matrix(1.25,0,0,-1.25,0,37.5)"><g
       id="g12"><g
         id="g14"
         clip-path="url(#clipPath16)"><g
           id="g20"><g
             id="g22" /><g
             id="g28"><g
               style="opacity:0.99215698"
               id="g30"
               clip-path="url(#clipPath24)"><g
                 id="g32"
                 transform="translate(15.1782,28.3135)" /></g></g></g><g
           id="g36"><g
             id="g38" /><g
             id="g44"><g
               style="opacity:0.99000501"
               id="g46"
               clip-path="url(#clipPath40)"><g
                 id="g48"
                 transform="translate(15.1782,28.3135)" /></g></g></g><g
           id="g52"><g
             id="g54" /><g
             id="g60"><g
               style="opacity:0.99215698"
               id="g62"
               clip-path="url(#clipPath56)"><g
                 id="g64"
                 transform="translate(28.769,14.8525)"><path
                   style="fill:#2d6683;fill-opacity:1;fill-rule:nonzero;stroke:none"
                   id="path66"
                   inkscape:connector-curvature="0"
                   d="m 0,0 -5.059,-3.493 -0.068,1.993 -8.351,0.129 0,2.927 L -5.127,1.499 -5.193,3.476 0,0 z" /></g></g></g></g><g
           id="g68"><g
             id="g70" /><g
             id="g76"><g
               style="opacity:0.99000501"
               id="g78"
               clip-path="url(#clipPath72)"><g
                 id="g80"
                 transform="translate(28.769,14.8525)"><path
                   style="fill:none;stroke:#2d6683;stroke-width:1;stroke-linecap:butt;stroke-linejoin:miter;stroke-miterlimit:4;stroke-opacity:1;stroke-dasharray:none"
                   id="path82"
                   inkscape:connector-curvature="0"
                   d="m 0,0 -5.059,-3.493 -0.068,1.993 -8.351,0.129 0,2.927 L -5.127,1.499 -5.193,3.476 0,0 z" /></g></g></g></g><g
           id="g84"><g
             id="g86" /><g
             id="g92"><g
               style="opacity:0.99215698"
               id="g94"
               clip-path="url(#clipPath88)"><g
                 id="g96"
                 transform="translate(15.1733,1.6865)" /></g></g></g><g
           id="g100"><g
             id="g102" /><g
             id="g108"><g
               style="opacity:0.99000501"
               id="g110"
               clip-path="url(#clipPath104)"><g
                 id="g112"
                 transform="translate(15.1733,1.6865)" /></g></g></g><g
           id="g116"><g
             id="g118" /><g
             id="g124"><g
               style="opacity:0.99215698"
               id="g126"
               clip-path="url(#clipPath120)"><g
                 id="g128"
                 transform="translate(1.231,14.9346)"><path
                   style="fill:#2d6683;fill-opacity:1;fill-rule:nonzero;stroke:none"
                   id="path130"
                   inkscape:connector-curvature="0"
                   d="m 0,0 5.216,3.602 0.071,-2.056 8.105,-0.036 0,-3.02 L 5.287,-1.546 5.354,-3.584 0,0 z" /></g></g></g></g><g
           id="g132"><g
             id="g134" /><g
             id="g140"><g
               style="opacity:0.99000501"
               id="g142"
               clip-path="url(#clipPath136)"><g
                 id="g144"
                 transform="translate(1.231,14.9346)"><path
                   style="fill:none;stroke:#2d6683;stroke-width:1;stroke-linecap:butt;stroke-linejoin:miter;stroke-miterlimit:4;stroke-opacity:1;stroke-dasharray:none"
                   id="path146"
                   inkscape:connector-curvature="0"
                   d="m 0,0 5.216,3.602 0.071,-2.056 8.105,-0.036 0,-3.02 L 5.287,-1.546 5.354,-3.584 0,0 z" /></g></g></g></g></g></g></g></svg>
