<?xml version="1.0" encoding="UTF-8" standalone="no"?>
<!-- Created with Inkscape (http://www.inkscape.org/) -->

<svg
   xmlns:dc="http://purl.org/dc/elements/1.1/"
   xmlns:cc="http://creativecommons.org/ns#"
   xmlns:rdf="http://www.w3.org/1999/02/22-rdf-syntax-ns#"
   xmlns:svg="http://www.w3.org/2000/svg"
   xmlns="http://www.w3.org/2000/svg"
   xmlns:inkscape="http://www.inkscape.org/namespaces/inkscape"
   version="1.1"
   width="37.5"
   height="37.5"
   id="svg2"
   xml:space="preserve"><metadata
     id="metadata8"><rdf:RDF><cc:Work
         rdf:about=""><dc:format>image/svg+xml</dc:format><dc:type
           rdf:resource="http://purl.org/dc/dcmitype/StillImage" /></cc:Work></rdf:RDF></metadata><defs
     id="defs6"><clipPath
       id="clipPath16"><path
         d="M 0,30 30,30 30,0 0,0 0,30 z"
         inkscape:connector-curvature="0"
         id="path18" /></clipPath><clipPath
       id="clipPath24"><path
         d="m 1.90283,27.5059 26.19437,0 0,-25.01176 -26.19437,0 0,25.01176 z"
         inkscape:connector-curvature="0"
         id="path26" /></clipPath><clipPath
       id="clipPath28"><path
         d="m 1.91,25.196 c -0.092,1.072 0.669,2.175 1.682,2.31 l 22.911,-0.122 c 0.833,-0.079 1.364,-0.533 1.594,-1.814 L 28.077,4.688 25.737,2.594 4.034,2.494 1.916,4.796 1.91,25.196 z"
         inkscape:connector-curvature="0"
         id="path30" /></clipPath><radialGradient
       cx="0"
       cy="0"
       r="1"
       fx="0"
       fy="0"
       id="radialGradient36"
       gradientUnits="userSpaceOnUse"
       gradientTransform="matrix(17.53743,-4.58e-5,0,14.35376,7.3129883,19.4375)"
       spreadMethod="pad"><stop
         id="stop38"
         style="stop-color:#ffffff;stop-opacity:0.6156863"
         offset="0" /><stop
         id="stop40"
         style="stop-color:#ffffff;stop-opacity:0.91764706"
         offset="1" /></radialGradient><mask
       id="mask42"><g
         id="g44"><g
           id="g46"><g
             id="g48"><g
               id="g50"><path
                 d="m -32767,32767 65534,0 0,-65534 -65534,0 0,65534 z"
                 inkscape:connector-curvature="0"
                 id="path52"
                 style="fill:url(#radialGradient36);stroke:none" /></g></g></g></g></mask><radialGradient
       cx="0"
       cy="0"
       r="1"
       fx="0"
       fy="0"
       id="radialGradient54"
       gradientUnits="userSpaceOnUse"
       gradientTransform="matrix(17.53743,-4.58e-5,0,14.35376,7.3129883,19.4375)"
       spreadMethod="pad"><stop
         id="stop56"
         style="stop-color:#2d6582;stop-opacity:1"
         offset="0" /><stop
         id="stop58"
         style="stop-color:#29506f;stop-opacity:1"
         offset="1" /></radialGradient><clipPath
       id="clipPath82"><path
         d="m 1.40283,28.0059 27.19437,0 0,-26.01176 -27.19437,0 0,26.01176 z"
         inkscape:connector-curvature="0"
         id="path84" /></clipPath><clipPath
       id="clipPath98"><path
         d="m 9.01123,11.1182 12.83397,0 0,-8.33109 -12.83397,0 0,8.33109 z"
         inkscape:connector-curvature="0"
         id="path100" /></clipPath><linearGradient
       x1="0"
       y1="0"
       x2="1"
       y2="0"
       id="linearGradient106"
       gradientUnits="userSpaceOnUse"
       gradientTransform="matrix(11.000671,-8.0020905,11.931717,14.256714,10.187988,10.75)"
       spreadMethod="pad"><stop
         id="stop108"
         style="stop-color:#f7f8f9;stop-opacity:1"
         offset="0" /><stop
         id="stop110"
         style="stop-color:#999898;stop-opacity:1"
         offset="1" /></linearGradient><clipPath
       id="clipPath130"><path
         d="m 8.50586,11.6182 13.84624,0 0,-9.33158 -13.84624,0 0,9.33158 z"
         inkscape:connector-curvature="0"
         id="path132" /></clipPath><clipPath
       id="clipPath146"><path
         d="m 3.30029,25.5264 1.6416,0 0,-1.794 -1.6416,0 0,1.794 z"
         inkscape:connector-curvature="0"
         id="path148" /></clipPath><clipPath
       id="clipPath162"><path
         d="m 2.7998,26.0317 2.64356,0 0,-2.8188 -2.64356,0 0,2.8188 z"
         inkscape:connector-curvature="0"
         id="path164" /></clipPath><clipPath
       id="clipPath178"><path
         d="m 6.10498,27.291 18.14062,0 0,-10.4795 -18.14062,0 0,10.4795 z"
         inkscape:connector-curvature="0"
         id="path180" /></clipPath><linearGradient
       x1="0"
       y1="0"
       x2="1"
       y2="0"
       id="linearGradient186"
       gradientUnits="userSpaceOnUse"
       gradientTransform="matrix(16.269119,-8.6781158,15.47258,18.159607,8.1254883,25.75)"
       spreadMethod="pad"><stop
         id="stop188"
         style="stop-color:#feffff;stop-opacity:1"
         offset="0" /><stop
         id="stop190"
         style="stop-color:#b2b5b8;stop-opacity:1"
         offset="1" /></linearGradient><clipPath
       id="clipPath210"><path
         d="m 5.59912,27.791 19.15378,0 0,-11.48 -19.15378,0 0,11.48 z"
         inkscape:connector-curvature="0"
         id="path212" /></clipPath><clipPath
       id="clipPath226"><path
         d="m 11.2749,22.8828 11.0957,0 0,-1.1172 -11.0957,0 0,1.1172 z"
         inkscape:connector-curvature="0"
         id="path228" /></clipPath><clipPath
       id="clipPath242"><path
         d="m 10.7695,23.3838 12.1197,0 0,-2.1187 -12.1197,0 0,2.1187 z"
         inkscape:connector-curvature="0"
         id="path244" /></clipPath><clipPath
       id="clipPath258"><path
         d="m 11.1343,10.3008 3.2842,0 0,-6.60353 -3.2842,0 0,6.60353 z"
         inkscape:connector-curvature="0"
         id="path260" /></clipPath><clipPath
       id="clipPath274"><path
         d="M 6.474,27.053 23.825,27.021 23.887,25.315 6.492,25.3 6.474,27.053 z"
         inkscape:connector-curvature="0"
         id="path276" /></clipPath><linearGradient
       x1="0"
       y1="0"
       x2="1"
       y2="0"
       id="linearGradient286"
       gradientUnits="userSpaceOnUse"
       gradientTransform="matrix(-0.3928223,2.9530029,-25.049133,-0.1617737,15.437988,24.289062)"
       spreadMethod="pad"><stop
         id="stop288"
         style="stop-color:#ffffff;stop-opacity:0.99217212"
         offset="0" /><stop
         id="stop290"
         style="stop-color:#ffffff;stop-opacity:0.95295644"
         offset="1" /></linearGradient><mask
       id="mask292"><g
         id="g294"><g
           id="g296"><g
             id="g298"><g
               id="g300"><path
                 d="m -32768,32767 65535,0 0,-65534 -65535,0 0,65534 z"
                 inkscape:connector-curvature="0"
                 id="path302"
                 style="fill:url(#linearGradient286);stroke:none" /></g></g></g></g></mask><linearGradient
       x1="0"
       y1="0"
       x2="1"
       y2="0"
       id="linearGradient308"
       gradientUnits="userSpaceOnUse"
       gradientTransform="matrix(-0.3928223,2.9530029,-25.049133,-0.1617737,15.437988,24.289062)"
       spreadMethod="pad"><stop
         id="stop310"
         style="stop-color:#fcdeb4;stop-opacity:1"
         offset="0" /><stop
         id="stop312"
         style="stop-color:#efab35;stop-opacity:1"
         offset="1" /></linearGradient><clipPath
       id="clipPath320"><path
         d="M 0,30 30,30 30,0 0,0 0,30 z"
         inkscape:connector-curvature="0"
         id="path322" /></clipPath><clipPath
       id="clipPath328"><path
         d="m 5.96826,27.5537 18.43754,0 0,-2.7544 -18.43754,0 0,2.7544 z"
         inkscape:connector-curvature="0"
         id="path330" /></clipPath><clipPath
       id="clipPath344"><path
         d="m 11.2749,20.3555 11.0957,0 0,-1.1162 -11.0957,0 0,1.1162 z"
         inkscape:connector-curvature="0"
         id="path346" /></clipPath><clipPath
       id="clipPath360"><path
         d="m 10.7695,20.8564 12.1197,0 0,-2.1176 -12.1197,0 0,2.1176 z"
         inkscape:connector-curvature="0"
         id="path362" /></clipPath><clipPath
       id="clipPath376"><path
         d="m 25.2861,25.6523 1.6416,0 0,-1.7929 -1.6416,0 0,1.7929 z"
         inkscape:connector-curvature="0"
         id="path378" /></clipPath><clipPath
       id="clipPath392"><path
         d="m 24.7852,26.1572 2.644,0 0,-2.8174 -2.644,0 0,2.8174 z"
         inkscape:connector-curvature="0"
         id="path394" /></clipPath></defs><g
     transform="matrix(1.25,0,0,-1.25,0,37.5)"
     id="g10"><g
       id="g12"><g
         clip-path="url(#clipPath16)"
         id="g14"><g
           id="g20"><g
             id="g22" /><g
             id="g60"><g
               clip-path="url(#clipPath24)"
               id="g62"
               style="opacity:0.99000501"><g
                 id="g64"><g
                   clip-path="url(#clipPath28)"
                   id="g66"><g
                     id="g68"><g
                       id="g70" /><g
                       mask="url(#mask42)"
                       id="g72"><g
                         id="g74"><path
                           d="m 1.91,25.196 c -0.092,1.072 0.669,2.175 1.682,2.31 l 22.911,-0.122 c 0.833,-0.079 1.364,-0.533 1.594,-1.814 L 28.077,4.688 25.737,2.594 4.034,2.494 1.916,4.796 1.91,25.196 z"
                           inkscape:connector-curvature="0"
                           id="path76"
                           style="fill:url(#radialGradient54);stroke:none" /></g></g></g></g></g></g></g></g><g
           id="g78"><g
             id="g80" /><g
             id="g86"><g
               clip-path="url(#clipPath82)"
               id="g88"
               style="opacity:0.99000501"><g
                 transform="translate(1.9102,25.1963)"
                 id="g90"><path
                   d="M 0,0 C -0.092,1.071 0.669,2.175 1.682,2.31 L 24.593,2.188 c 0.833,-0.08 1.364,-0.534 1.594,-1.814 l -0.02,-20.882 -2.34,-2.095 L 2.124,-22.702 0.005,-20.4 0,0 z"
                   inkscape:connector-curvature="0"
                   id="path92"
                   style="fill:none;stroke:#2d6582;stroke-width:1;stroke-linecap:round;stroke-linejoin:round;stroke-miterlimit:4;stroke-opacity:1;stroke-dasharray:none" /></g></g></g></g><g
           id="g94"><g
             id="g96" /><g
             id="g112"><g
               clip-path="url(#clipPath98)"
               id="g114"
               style="opacity:0.69929498"><g
                 id="g116"><g
                   id="g118"><g
                     id="g120"><g
                       id="g122"><path
                         d="M 9.096,11.118 21.736,11.115 21.845,2.797 9.011,2.787 9.096,11.118 z"
                         inkscape:connector-curvature="0"
                         id="path124"
                         style="fill:url(#linearGradient106);stroke:none" /></g></g></g></g></g></g></g><g
           id="g126"><g
             id="g128" /><g
             id="g134"><g
               clip-path="url(#clipPath130)"
               id="g136"
               style="opacity:0.99215698"><g
                 transform="translate(9.0962,11.1182)"
                 id="g138"><path
                   d="M 0,0 12.64,-0.003 12.749,-8.321 -0.085,-8.331 0,0 z"
                   inkscape:connector-curvature="0"
                   id="path140"
                   style="fill:none;stroke:#333b4e;stroke-width:1;stroke-linecap:butt;stroke-linejoin:miter;stroke-miterlimit:4;stroke-opacity:1;stroke-dasharray:none" /></g></g></g></g><g
           id="g142"><g
             id="g144" /><g
             id="g150"><g
               clip-path="url(#clipPath146)"
               id="g152"
               style="opacity:0.99215698"><g
                 transform="translate(4.9419,23.7324)"
                 id="g154"><path
                   d="M 0,0 -1.639,0.063 -1.642,1.777 -0.004,1.794 0,0 z"
                   inkscape:connector-curvature="0"
                   id="path156"
                   style="fill:#ffffff;fill-opacity:1;fill-rule:nonzero;stroke:none" /></g></g></g></g><g
           id="g158"><g
             id="g160" /><g
             id="g166"><g
               clip-path="url(#clipPath162)"
               id="g168"
               style="opacity:0.99215698"><g
                 transform="translate(4.9419,23.7324)"
                 id="g170"><path
                   d="M 0,0 -1.639,0.063 -1.642,1.777 -0.004,1.794 0,0 z"
                   inkscape:connector-curvature="0"
                   id="path172"
                   style="fill:none;stroke:#333b4e;stroke-width:1;stroke-linecap:butt;stroke-linejoin:miter;stroke-miterlimit:4;stroke-opacity:1;stroke-dasharray:none" /></g></g></g></g><g
           id="g174"><g
             id="g176" /><g
             id="g192"><g
               clip-path="url(#clipPath178)"
               id="g194"
               style="opacity:0.69929498"><g
                 id="g196"><g
                   id="g198"><g
                     id="g200"><g
                       id="g202"><path
                         d="M 6.226,27.291 24.092,27.288 24.246,16.824 6.105,16.812 6.226,27.291 z"
                         inkscape:connector-curvature="0"
                         id="path204"
                         style="fill:url(#linearGradient186);stroke:none" /></g></g></g></g></g></g></g><g
           id="g206"><g
             id="g208" /><g
             id="g214"><g
               clip-path="url(#clipPath210)"
               id="g216"
               style="opacity:0.99215698"><g
                 transform="translate(6.2256,27.291)"
                 id="g218"><path
                   d="M 0,0 17.866,-0.003 18.02,-10.467 -0.121,-10.479 0,0 z"
                   inkscape:connector-curvature="0"
                   id="path220"
                   style="fill:none;stroke:#2d6582;stroke-width:1;stroke-linecap:butt;stroke-linejoin:miter;stroke-miterlimit:4;stroke-opacity:1;stroke-dasharray:none" /></g></g></g></g><g
           id="g222"><g
             id="g224" /><g
             id="g230"><g
               clip-path="url(#clipPath226)"
               id="g232"
               style="opacity:0.99215698"><g
                 transform="translate(11.2749,22.8828)"
                 id="g234"><path
                   d="M 0,0 11.056,-0.021 11.096,-1.107 0.012,-1.117 0,0 z"
                   inkscape:connector-curvature="0"
                   id="path236"
                   style="fill:#333b4e;fill-opacity:1;fill-rule:nonzero;stroke:none" /></g></g></g></g><g
           id="g238"><g
             id="g240" /><g
             id="g246"><g
               clip-path="url(#clipPath242)"
               id="g248"
               style="opacity:0.99000501"><g
                 transform="translate(11.2749,22.8828)"
                 id="g250"><path
                   d="M 0,0 11.056,-0.021 11.096,-1.107 0.012,-1.117 0,0 z"
                   inkscape:connector-curvature="0"
                   id="path252"
                   style="fill:none;stroke:#2d6683;stroke-width:1;stroke-linecap:butt;stroke-linejoin:miter;stroke-miterlimit:4;stroke-opacity:1;stroke-dasharray:none" /></g></g></g></g><g
           id="g254"><g
             id="g256" /><g
             id="g262"><g
               clip-path="url(#clipPath258)"
               id="g264"
               style="opacity:0.99215698"><g
                 transform="translate(14.4185,3.7637)"
                 id="g266"><path
                   d="M 0,0 -3.279,-0.066 -3.284,6.537 -0.01,6.474 0,0 z"
                   inkscape:connector-curvature="0"
                   id="path268"
                   style="fill:#333b4e;fill-opacity:1;fill-rule:nonzero;stroke:none" /></g></g></g></g></g></g><g
       id="g270"><g
         clip-path="url(#clipPath274)"
         id="g272"><g
           id="g278"><g
             id="g280" /><g
             mask="url(#mask292)"
             id="g304"><g
               id="g306"><path
                 d="M 6.474,27.053 23.825,27.021 23.887,25.315 6.492,25.3 6.474,27.053 z"
                 inkscape:connector-curvature="0"
                 id="path314"
                 style="fill:url(#linearGradient308);stroke:none" /></g></g></g></g></g><g
       id="g316"><g
         clip-path="url(#clipPath320)"
         id="g318"><g
           id="g324"><g
             id="g326" /><g
             id="g332"><g
               clip-path="url(#clipPath328)"
               id="g334"
               style="opacity:0.99215698"><g
                 transform="translate(6.4736,27.0527)"
                 id="g336"><path
                   d="M 0,0 17.351,-0.032 17.414,-1.737 0.019,-1.753 0,0 z"
                   inkscape:connector-curvature="0"
                   id="path338"
                   style="fill:none;stroke:#5d2e2d;stroke-width:1;stroke-linecap:butt;stroke-linejoin:miter;stroke-miterlimit:4;stroke-opacity:1;stroke-dasharray:none" /></g></g></g></g><g
           id="g340"><g
             id="g342" /><g
             id="g348"><g
               clip-path="url(#clipPath344)"
               id="g350"
               style="opacity:0.99215698"><g
                 transform="translate(11.2749,20.3555)"
                 id="g352"><path
                   d="M 0,0 11.056,-0.02 11.096,-1.106 0.012,-1.116 0,0 z"
                   inkscape:connector-curvature="0"
                   id="path354"
                   style="fill:#333b4e;fill-opacity:1;fill-rule:nonzero;stroke:none" /></g></g></g></g><g
           id="g356"><g
             id="g358" /><g
             id="g364"><g
               clip-path="url(#clipPath360)"
               id="g366"
               style="opacity:0.99000501"><g
                 transform="translate(11.2749,20.3555)"
                 id="g368"><path
                   d="M 0,0 11.056,-0.02 11.096,-1.106 0.012,-1.116 0,0 z"
                   inkscape:connector-curvature="0"
                   id="path370"
                   style="fill:none;stroke:#2d6683;stroke-width:1;stroke-linecap:butt;stroke-linejoin:miter;stroke-miterlimit:4;stroke-opacity:1;stroke-dasharray:none" /></g></g></g></g><g
           id="g372"><g
             id="g374" /><g
             id="g380"><g
               clip-path="url(#clipPath376)"
               id="g382"
               style="opacity:0.99215698"><g
                 transform="translate(26.9277,23.8594)"
                 id="g384"><path
                   d="M 0,0 -1.639,0.063 -1.642,1.777 -0.004,1.793 0,0 z"
                   inkscape:connector-curvature="0"
                   id="path386"
                   style="fill:#ffffff;fill-opacity:1;fill-rule:nonzero;stroke:none" /></g></g></g></g><g
           id="g388"><g
             id="g390" /><g
             id="g396"><g
               clip-path="url(#clipPath392)"
               id="g398"
               style="opacity:0.99215698"><g
                 transform="translate(26.9277,23.8594)"
                 id="g400"><path
                   d="M 0,0 -1.639,0.063 -1.642,1.777 -0.004,1.793 0,0 z"
                   inkscape:connector-curvature="0"
                   id="path402"
                   style="fill:none;stroke:#333b4e;stroke-width:1;stroke-linecap:butt;stroke-linejoin:miter;stroke-miterlimit:4;stroke-opacity:1;stroke-dasharray:none" /></g></g></g></g></g></g></g></svg>