<?xml version="1.0" encoding="UTF-8"?>
<svg width="512pt" height="512pt" version="1.1" viewBox="0 0 512 512" xmlns="http://www.w3.org/2000/svg">
 <g>
  <path d="m473.6 166.4h-435.2v-128h435.2zm-409.6-25.598h384v-76.801h-384z"/>
  <path d="m448 448h25.602v25.602h-25.602z"/>
  <path d="m422.4 473.6h-25.602v-25.602h25.602zm-51.199 0h-25.602v-25.602h25.602zm-51.199 0h-25.602v-25.602h25.602zm-51.199 0h-25.602v-25.602h25.602zm-51.199 0h-25.602v-25.602h25.602zm-51.203 0h-25.602v-25.602h25.602zm-51.199 0h-25.602v-25.602h25.602z"/>
  <path d="m38.398 448h25.602v25.602h-25.602z"/>
  <path d="m64 422.4h-25.602v-25.602h25.602zm0-51.199h-25.602v-25.602h25.602zm0-51.199h-25.602v-25.602h25.602zm0-51.199h-25.602v-25.602h25.602zm0-51.199h-25.602v-25.602h25.602z"/>
  <path d="m473.6 422.4h-25.602v-25.602h25.602zm0-51.199h-25.602v-25.602h25.602zm0-51.199h-25.602v-25.602h25.602zm0-51.199h-25.602v-25.602h25.602zm0-51.199h-25.602v-25.602h25.602z"/>
  <path d="m102.4 89.602h51.199v25.602h-51.199z"/>
  <path d="m204.8 89.602h204.8v25.602h-204.8z"/>
 </g>
</svg>
